<svg id="Livello_1" xmlns="http://www.w3.org/2000/svg" width="775.9" height="165.7" viewBox="-91 198.3 775.9 165.7"><style>.st0{fill:#fff}</style><path class="st0" d="M2.5 203.6l-.1 3.6s4.3 3.5 11.1 9.4c4.7 5.1 21.8 24.4 36.9 51.9.6 1.7 1.1 3.6 1.7 5.5.4 6 .6 13.2.2 21.5-1.5 6.8-3.4 14-5.9 21.4-2 2.9-4.1 5.8-6.4 8.8-4.6 3.9-9.5 7.9-14.7 11.8-6.4 3-13.1 5.9-19.9 8.5-15.7 3.7-34.1 7.7-55.6 11.7-.7 0-1.5.1-2.3.1-5 0-10.1 0-15.3-.1l-4 3H139c0 .1-12.1-86.6-136.5-157.1m60.8 138c-1 .3-2 .5-3.1.8.2-3.3.4-6.5.5-9.7 4.6-1.5 8.6-3 12.1-4.3.7 3.3 1.2 6.7 1.7 10.2-3.3.9-7 1.9-11.2 3m11.5-1.2c.4 3.5.7 7.1.9 10.7-4.7 1.4-10.2 2.4-16.6 3 .4-3.3.7-6.5 1-9.7 1.3-.3 2.6-.7 3.9-1 3.9-1 7.5-2.1 10.8-3m-46 15.3c1.4-1.8 2.7-3.7 3.9-5.6 4.1-.7 7.9-1.5 11.5-2.2-.6 2.3-1.2 4.6-1.9 7-2.9.2-7.5.5-13.5.8m-16 .7c1.5-1.2 3-2.5 4.4-3.8 4.5-.7 8.8-1.4 12.8-2.1-1.2 1.8-2.5 3.5-3.8 5.2-3.9.3-8.4.5-13.4.7m-13.4.5c1.3-.8 2.6-1.5 3.9-2.3 3.6-.5 7-.9 10.3-1.4-1.3 1.1-2.7 2.3-4.1 3.4-3.1.1-6.5.2-10.1.3m-22.3.6c7.6-.7 14.8-1.5 21.5-2.3l-3.3 1.8c-5.7.3-11.8.4-18.2.5m78.5-68.7c.6 3.2 1.2 6.7 1.7 10.2-1.1 2.1-2.4 4.3-3.7 6.6.3-3.5.5-6.8.7-9.9.4-2.3.9-4.7 1.3-6.9m24.1-2.9c-2.2 2.6-6.6 7.7-12.7 14.2-1.1-3.1-2.3-6.1-3.5-9.1 3.6-7.7 5.8-13.8 6.9-17.2 3.2 4 6.4 8.1 9.3 12.1m9 14.2c-3.3 2.3-9.5 6.7-17.9 12-1-3.4-2.1-6.8-3.2-10 6.2-6.5 10.7-11.7 13.1-14.6 3.1 4.3 5.7 8.5 8 12.6m6.7 14.9c-2.4 1.8-8.2 5.5-21.1 10.6-.8-4-1.8-7.8-2.9-11.7 8.5-5.4 14.8-9.8 18.2-12.2 2.5 4.7 4.5 9.1 5.8 13.3m-29.2-11.4c1.1 3.1 2.1 6.3 3 9.6-2.6 1.7-5.5 3.4-8.5 5.2-.1-3-.3-6-.5-8.8 2.2-2.1 4.1-4.1 6-6m-6.1 3.5c-.2-2.7-.5-5.2-.8-7.7 1.1-2.1 2.1-4.1 3.1-6 1.1 2.7 2.2 5.5 3.2 8.3-1.8 1.7-3.6 3.5-5.5 5.4m-1.2 12.4c-2.5 1.5-5 2.9-7.7 4.4.4-2.3.7-4.5 1-6.7 2.2-2 4.3-4 6.3-5.9.2 2.7.3 5.4.4 8.2m-9.8 5.7c-1.6.9-3.2 1.8-4.8 2.6.7-1.7 1.4-3.4 2-5.2 1.3-1.1 2.5-2.2 3.7-3.3-.2 1.9-.6 3.9-.9 5.9m-.4 2.4c-.4 2.4-.9 4.9-1.4 7.4-2.3.7-4.6 1.4-7.1 2.1 1.1-2.1 2-4.3 3-6.4 1.8-1.1 3.7-2.1 5.5-3.1m2.1-1.2c2.8-1.6 5.5-3.1 8.1-4.7.1 3.1 0 6.3 0 9.6-3 1-6.2 2-9.6 3 .6-2.7 1.1-5.4 1.5-7.9m10-5.8c3.2-1.9 6.2-3.7 8.9-5.5 1 3.7 2 7.5 2.8 11.3-3.4 1.3-7.3 2.7-11.7 4.2.1-3.4.1-6.8 0-10m1.6-31.9c-1.6-3.8-3.3-7.4-5-10.9 1-7.4 1.5-13.3 1.7-16.9 3.4 3.7 6.6 7.5 9.8 11.3-.8 2.7-2.9 8.6-6.5 16.5m-6.5-14c-.7-1.4-1.5-2.8-2.2-4.2-.7-7.7-1.7-13.9-2.8-18.4 2.1 2.2 4.2 4.5 6.4 6.8-.1 2.7-.5 8.3-1.4 15.8m-.5 3.5c0 .2-.1.4-.1.6-.1-.6-.3-1.1-.4-1.7.2.4.4.7.5 1.1m1.5 3c1.5 3.2 3 6.5 4.4 9.8-.8 1.6-1.6 3.4-2.6 5.2-.6-4.4-1.4-8.6-2.3-12.4.2-.9.4-1.8.5-2.6m.8 21.1c.2 2.1.5 4.3.6 6.6-1.8 1.8-3.7 3.6-5.7 5.5.2-1.5.3-2.9.5-4.3 1.7-2.7 3.2-5.3 4.6-7.8m-7.3 14.1c-.9.8-1.8 1.7-2.7 2.5.1-.4.3-.7.4-1.1.9-1.4 1.8-2.7 2.7-4-.1.8-.2 1.7-.4 2.6m-7.1 8.9c-.5 1.3-1.1 2.6-1.6 3.9-1.2.6-2.4 1.3-3.6 1.9 1.1-1.4 2.3-2.8 3.3-4.2.6-.5 1.3-1 1.9-1.6m-2.9 6.7l-2.7 5.7c-2.3.6-4.6 1.3-7.1 1.9 1.5-1.6 2.9-3.2 4.3-4.8 1.9-.9 3.7-1.8 5.5-2.8m-12.3 10.3c2.9-.8 5.7-1.5 8.3-2.3-1.5 2.8-3.2 5.6-4.9 8.4-3.7.7-7.6 1.3-11.7 2 2.9-2.7 5.7-5.4 8.3-8.1m-1-1.7c-1.4.4-2.9.8-4.4 1.1l3.6-2.7c1.3-.6 2.7-1.3 4-1.9-1 1.2-2.1 2.3-3.2 3.5m-2.6 2.6c-2.6 2.6-5.3 5.1-8.1 7.7-2.9.4-5.9.9-9 1.3 3.8-2.4 7.5-4.9 11.2-7.4 2-.5 4-1.1 5.9-1.6m-21.8 9.6c-5.9.8-12 1.5-18.6 2.1 7.3-1.9 14.5-4.3 21.7-7.1 2.5-.6 5-1.2 7.4-1.8-3.3 2.4-6.9 4.6-10.5 6.8M34 348c1.8-2.8 3.4-5.7 4.9-8.6 2.7-.8 5.3-1.5 7.8-2.3-.6 2.9-1.3 5.8-2.1 8.8-3.2.7-6.8 1.4-10.6 2.1m14.9-11.6c3.6-1.1 6.9-2.1 10-3.1-.1 3.1-.3 6.3-.5 9.5-3.5.8-7.3 1.7-11.5 2.6.6-3 1.3-6 2-9m25.8-8.8C87 322.7 93.1 319.1 96 317c1.3 4.7 1.8 9.2 1.2 13.2-3.1 1.4-9.8 4.3-20.8 7.7-.5-3.5-1-6.9-1.7-10.3m-26.3-78.2c.9 3.6 2 8.9 2.9 15.7-.2-.5-.4-1-.6-1.6-3.5-9.7-7.4-17.1-10.4-22.2l8.1 8.1m-24.1-23.2c3 2.7 6.2 5.7 9.4 8.8 2.2 2.9 7.4 10.3 12.5 22.3-.2-.3-.4-.6-.5-.9-7.7-12.5-15.5-22.9-21.4-30.2m30.1 56.7c.1.3.1.6.2.9-.1.3-.1.7-.2 1v-1.9m-2.8 23.5l-.3 3c-.3.5-.7 1.1-1 1.6.4-1.5.9-3 1.3-4.6m-17.8 26.9l-.1.1s-.1 0-.1.1c.1-.1.1-.2.2-.2m-16 9.6c0 .1 0 .1 0 0-.1.1-.1.1-.2.1.1 0 .2 0 .2-.1m-29.6 9c-6.8 2-13.6 3.6-20.2 4.6-.9.1-1.8.1-2.7.2 8.1-1.7 15.7-3.3 22.9-4.8m56.1 2.9c.7-2.5 1.4-4.9 2-7.3 4.3-.9 8.2-1.8 11.9-2.7-.3 3.1-.6 6.2-1 9.4-3.5.3-7.2.4-11.2.5-.1 0-.6 0-1.7.1m33.2-4.3c-.2-3.6-.5-7.1-.9-10.6 10.1-3.1 16.6-5.7 20.2-7.3-1.8 7.7-7.8 14-19.3 17.9"/><path id="XMLID_33_" class="st0" d="M177.3 314.1s4.9 5.4 12.9 5.4c6 0 10.8-3.7 10.8-9.5 0-13.8-24.7-10-24.7-25.1 0-6.4 5.7-12.5 14.5-12.5 7.9 0 12.3 4.5 12.3 4.5l-1.7 2.6s-4.1-4.1-10.6-4.1c-7.2 0-11.5 4.8-11.5 9.5 0 12.8 24.7 8.8 24.7 25 0 7-5.4 12.6-14 12.6-9.5 0-14.8-6-14.8-6l2.1-2.4z"/><path class="st0" d="M229.5 286.2c9.9 0 17.9 7.8 17.9 17.9 0 10.3-8 18.3-17.9 18.3s-17.9-8-17.9-18.3c0-10.1 8-17.9 17.9-17.9m0 33.4c8.2 0 14.9-6.7 14.9-15.5 0-8.6-6.6-15.1-14.9-15.1-8.2 0-14.9 6.5-14.9 15.1 0 8.8 6.6 15.5 14.9 15.5"/><path id="XMLID_30_" class="st0" d="M256.6 273.2h2.9v40.5c0 4.8 2.5 5.4 4.1 5.4.6 0 1-.1 1-.1v2.7s-.6.1-1.2.1c-2 0-6.8-.8-6.8-7.3v-41.3z"/><path id="XMLID_29_" class="st0" d="M272.4 287h2.9v20.9c0 6 .8 11.7 8.5 11.7 8.6 0 14.2-7.6 14.2-15.7V287h2.9v34.6H298v-6.1c0-1.6.3-2.8.3-2.8h-.1c-1.2 3.2-5.9 9.7-14.3 9.7-8.5 0-11.4-4.7-11.4-13.5V287h-.1z"/><path id="XMLID_28_" class="st0" d="M310 319.2l20.9-26.3c1.2-1.6 2.7-3.2 2.7-3.2v-.1s-1.2.1-3.5.1h-19.2V287h26.7v2.3l-21 26.3c-1.2 1.6-2.8 3.2-2.8 3.2v.1s1.3-.1 3.6-.1h20.9v2.7H310v-2.3z"/><path class="st0" d="M347.4 273.2h3.5v5h-3.5v-5zm.3 13.8h2.9v34.6h-2.9V287zm30.4-.8c9.9 0 17.9 7.8 17.9 17.9 0 10.3-8 18.3-17.9 18.3s-17.9-8-17.9-18.3c0-10.1 8-17.9 17.9-17.9m0 33.4c8.2 0 14.9-6.7 14.9-15.5 0-8.6-6.6-15.1-14.9-15.1-8.2 0-14.9 6.5-14.9 15.1 0 8.8 6.7 15.5 14.9 15.5"/><path id="XMLID_23_" class="st0" d="M405.6 287h2.9v6.1c0 1.6-.3 2.8-.3 2.8h.1c1.2-3.2 6-9.7 14.7-9.7 9 0 11.4 5.3 11.4 13.5v21.9h-2.9v-20.9c0-6-.8-11.7-8.5-11.7-6.5 0-12.2 4.6-14 11-.4 1.5-.6 3-.6 4.7v16.9h-2.9V287h.1z"/><path class="st0" d="M445.8 273.2h3.5v5h-3.5v-5zm.3 13.8h2.9v34.6h-2.9V287z"/><path id="XMLID_20_" class="st0" d="M481.7 273.2h24.4v2.8h-21.4v20.1h18.5v2.8h-18.5v22.7h-3z"/><path id="XMLID_19_" class="st0" d="M514.7 287h2.9v20.9c0 6 .8 11.7 8.5 11.7 8.6 0 14.2-7.6 14.2-15.7V287h2.9v34.6h-2.9v-6.1c0-1.6.3-2.8.3-2.8h-.1c-1.2 3.2-5.9 9.7-14.3 9.7-8.5 0-11.4-4.7-11.4-13.5V287h-.1z"/><path id="XMLID_18_" class="st0" d="M556.4 289.9h-4.6v-2.6h4.6v-9.8h2.9v9.8h9.1v2.6h-9.1v19c0 9.1 5.5 10.3 8.2 10.3 1 0 1.6-.1 1.6-.1v2.7s-.7.1-1.7.1c-3.6 0-11-1.3-11-12.8v-19.2z"/><path id="XMLID_17_" class="st0" d="M576.5 287h2.9v20.9c0 6 .8 11.7 8.5 11.7 8.6 0 14.2-7.6 14.2-15.7V287h2.9v34.6h-2.9v-6.1c0-1.6.3-2.8.3-2.8h-.1c-1.2 3.2-5.9 9.7-14.3 9.7-8.5 0-11.4-4.7-11.4-13.5V287h-.1z"/><path id="XMLID_16_" class="st0" d="M617.2 287h2.9v6.6c0 1.6-.3 2.8-.3 2.8h.1c1.7-5.3 5.6-9.7 11.1-9.7 1 0 2 .2 2 .2v2.9s-.8-.1-1.6-.1c-5.4 0-8.8 4.6-10.3 9.7-.8 2.4-1 5-1 7.3v14.9h-2.9V287z"/><path class="st0" d="M659.1 300.5h2.3v-1.2c0-7.7-3.9-10.3-9.5-10.3-6 0-9.9 3.3-9.9 3.3l-1.7-2.3s4.1-3.8 11.7-3.8c7.9 0 12.2 4.4 12.2 13.1v22.3h-2.9V317c0-1.9.3-3.1.3-3.1h-.1c.1 0-3.1 8.5-12.1 8.5-5.6 0-11.7-3.1-11.7-10 0-11.8 15.3-11.9 21.4-11.9m-9.5 19.2c7.5 0 11.8-7.8 11.8-14.7v-1.9h-2.2c-5.9 0-18.5 0-18.5 9 .1 3.7 3 7.6 8.9 7.6"/></svg>