<svg id="Livello_1" xmlns="http://www.w3.org/2000/svg" xmlns:xlink="http://www.w3.org/1999/xlink" viewBox="0 0 140 115"><style>.st0{fill:#1c3576}.st1{fill:#dbdae7}.st1,.st2{fill-rule:evenodd;clip-rule:evenodd}.st2,.st3{fill:#fff}.st4{fill:#dbdae7}.st5{fill:#fff}.st5,.st6,.st7,.st8{clip-path:url(#XMLID_368_)}.st6{fill:#f4f3f8}.st7{fill:#ebebf2}.st8{fill:#e5e4ed}.st10,.st11,.st12,.st13,.st9{clip-path:url(#XMLID_368_)}.st9{fill:#dedde8}.st10{fill:#d7d6e5}.st11{fill:#cfcfdf}.st12{fill:#c9c9db}.st13{fill:#c3c3d7}.st14{fill:#bdbdd4}.st14,.st15,.st16,.st17,.st18{clip-path:url(#XMLID_368_)}.st15{fill:#b6b7d0}.st16{fill:#b1b1cc}.st17{fill:#abacc8}.st18{fill:#a6a6c5}.st19{fill:#a0a1c2}.st19,.st20,.st21,.st22,.st23{clip-path:url(#XMLID_368_)}.st20{fill:#9b9cbe}.st21{fill:#9697bb}.st22{fill:#9092b7}.st23{fill:#8b8db4}.st24{fill:#8789b1}.st24,.st25,.st26,.st27,.st28{clip-path:url(#XMLID_368_)}.st25{fill:#8285ae}.st26{fill:#7f80aa}.st27{fill:#7a7ca7}.st28{fill:#7679a5}.st29{fill:#7175a2}.st29,.st30,.st31,.st32,.st33{clip-path:url(#XMLID_368_)}.st30{fill:#6d719f}.st31{fill:#696d9c}.st32{fill:#64699a}.st33{fill:#606697}.st34{fill:#5c6295}.st34,.st35,.st36,.st37,.st38{clip-path:url(#XMLID_368_)}.st35{fill:#575e92}.st36{fill:#535b90}.st37{fill:#4e588d}.st38{fill:#4a558b}.st39{fill:#465189}.st39,.st40,.st41,.st42,.st43{clip-path:url(#XMLID_368_)}.st40{fill:#414e86}.st41{fill:#3d4b84}.st42{fill:#384782}.st43{fill:#334480}.st44{fill:#2f417e}.st44,.st45,.st46,.st47,.st48{clip-path:url(#XMLID_368_)}.st45{fill:#2a3e7d}.st46{fill:#263b7b}.st47{fill:#203879}.st48{fill:#1c3576}.st49{fill:#fff}.st49,.st50,.st51,.st52,.st53{clip-path:url(#XMLID_369_)}.st50{fill:#f5f6fa}.st51{fill:#f1f0f5}.st52{fill:#eaeaf2}.st53{fill:#e5e4ed}.st54{fill:#dfdfea}.st54,.st55,.st56,.st57,.st58{clip-path:url(#XMLID_369_)}.st55{fill:#dad9e6}.st56{fill:#d4d4e2}.st57{fill:#cfcfdf}.st58{fill:#cacadc}.st59{fill:#c6c6da}.st59,.st60,.st61,.st62,.st63{clip-path:url(#XMLID_369_)}.st60{fill:#c1c1d7}.st61{fill:#bcbdd4}.st62{fill:#b8b8d1}.st63{fill:#b4b4ce}.st64{fill:#afb0cb}.st64,.st65,.st66,.st67,.st68{clip-path:url(#XMLID_369_)}.st65{fill:#ababc8}.st66{fill:#a6a7c5}.st67{fill:#a3a3c2}.st68{fill:#9e9fc0}.st69{fill:#9b9cbe}.st69,.st70,.st71,.st72,.st73{clip-path:url(#XMLID_369_)}.st70{fill:#9798bb}.st71{fill:#9394b9}.st72{fill:#8f91b6}.st73{fill:#8b8db3}.st74{fill:#878ab1}.st74,.st75,.st76,.st77,.st78{clip-path:url(#XMLID_369_)}.st75{fill:#8486af}.st76{fill:#8083ac}.st77{fill:#7e80aa}.st78{fill:#7a7da8}.st79{fill:#787aa6}.st79,.st80,.st81,.st82,.st83{clip-path:url(#XMLID_369_)}.st80{fill:#7477a3}.st81{fill:#7174a2}.st82{fill:#6d719f}.st83{fill:#6a6e9d}.st84{fill:#666b9b}.st84,.st85,.st86,.st87,.st88{clip-path:url(#XMLID_369_)}.st85{fill:#646999}.st86{fill:#606697}.st87{fill:#5d6395}.st88{fill:#596093}.st89{fill:#575e92}.st89,.st90,.st91,.st92,.st93{clip-path:url(#XMLID_369_)}.st90{fill:#535b90}.st91{fill:#50598e}.st92{fill:#4c578c}.st93{fill:#49548b}.st94{fill:#465289}.st94,.st95,.st96,.st97,.st98{clip-path:url(#XMLID_369_)}.st95{fill:#424f87}.st96{fill:#3f4c85}.st97{fill:#3c4a84}.st98{fill:#384782}.st100,.st101,.st102,.st99{clip-path:url(#XMLID_369_)}.st99{fill:#354580}.st100{fill:#314380}.st101{fill:#2e417e}.st102{fill:#2a3e7d}.st103{fill:#263c7b}.st103,.st104,.st105,.st106{clip-path:url(#XMLID_369_)}.st104{fill:#223a79}.st105{fill:#1f3778}.st106{fill:#1c3576}.st107,.st108{clip-path:url(#XMLID_370_);fill:#fff}.st108{fill:#f9f9fc}.st109{fill:#f3f3f8}.st109,.st110,.st111,.st112{clip-path:url(#XMLID_370_)}.st110{fill:#f1f0f5}.st111{fill:#ebebf2}.st112{fill:#e7e6ee}.st113{fill:#e4e4ed}.st113,.st114,.st115,.st116{clip-path:url(#XMLID_370_)}.st114{fill:#e0e0eb}.st115{fill:#dddce8}.st116{fill:#d9d9e6}.st117{fill:#d5d5e4}.st117,.st118,.st119,.st120{clip-path:url(#XMLID_370_)}.st118{fill:#d2d2e1}.st119{fill:#cecfdf}.st120{fill:#ccd}.st121{fill:#c8c8db}.st121,.st122,.st123,.st124{clip-path:url(#XMLID_370_)}.st122{fill:#c5c6da}.st123{fill:#c2c2d7}.st124{fill:#bfbfd5}.st125{fill:#bcbdd3}.st125,.st126,.st127,.st128{clip-path:url(#XMLID_370_)}.st126{fill:#b9b9d1}.st127{fill:#b6b7d0}.st128{fill:#b3b4ce}.st129{fill:#b0b1cb}.st129,.st130,.st131,.st132{clip-path:url(#XMLID_370_)}.st130{fill:#adaecb}.st131{fill:#aaabc8}.st132{fill:#a7a8c6}.st133{fill:#a5a6c4}.st133,.st134,.st135,.st136{clip-path:url(#XMLID_370_)}.st134{fill:#a2a3c2}.st135{fill:#a0a0c1}.st136{fill:#9d9ebf}.st137{fill:#9a9bbd}.st137,.st138,.st139,.st140{clip-path:url(#XMLID_370_)}.st138{fill:#9798bb}.st139{fill:#9596ba}.st140{fill:#9294b9}.st141{fill:#9091b6}.st141,.st142,.st143,.st144{clip-path:url(#XMLID_370_)}.st142{fill:#8d8fb5}.st143{fill:#8b8cb3}.st144{fill:#888ab1}.st145{fill:#8688b0}.st145,.st146,.st147,.st148{clip-path:url(#XMLID_370_)}.st146{fill:#8485ae}.st147{fill:#8183ad}.st148{fill:#8081ab}.st149{fill:#7d80aa}.st149,.st150,.st151,.st152{clip-path:url(#XMLID_370_)}.st150{fill:#7b7ea9}.st151{fill:#797ca7}.st152{fill:#7679a5}.st153{fill:#7478a4}.st153,.st154,.st155,.st156{clip-path:url(#XMLID_370_)}.st154{fill:#7275a2}.st155{fill:#7073a1}.st156{fill:#6e72a0}.st157{fill:#6b6f9e}.st157,.st158,.st159,.st160{clip-path:url(#XMLID_370_)}.st158{fill:#696e9d}.st159{fill:#676c9c}.st160{fill:#656a9a}.st161{fill:#636899}.st161,.st162,.st163,.st164{clip-path:url(#XMLID_370_)}.st162{fill:#616698}.st163{fill:#5f6496}.st164{fill:#5c6295}.st165{fill:#5a6194}.st165,.st166,.st167,.st168{clip-path:url(#XMLID_370_)}.st166{fill:#585f92}.st167{fill:#555d91}.st168{fill:#535c90}.st169{fill:#515a8f}.st169,.st170,.st171,.st172{clip-path:url(#XMLID_370_)}.st170{fill:#4f598e}.st171{fill:#4d578c}.st172{fill:#4b558b}.st173{fill:#48548a}.st173,.st174,.st175,.st176{clip-path:url(#XMLID_370_)}.st174{fill:#465289}.st175{fill:#445088}.st176{fill:#424e87}.st177{fill:#404d85}.st177,.st178,.st179,.st180{clip-path:url(#XMLID_370_)}.st178{fill:#3d4b84}.st179{fill:#3b4983}.st180{fill:#394882}.st181{fill:#374681}.st181,.st182,.st183,.st184{clip-path:url(#XMLID_370_)}.st182{fill:#344580}.st183{fill:#324380}.st184{fill:#30417e}.st185{fill:#2c407e}.st185,.st186,.st187,.st188{clip-path:url(#XMLID_370_)}.st186{fill:#2b3e7d}.st187{fill:#283d7c}.st188{fill:#263b7b}.st189{fill:#223a79}.st189,.st190,.st191,.st192{clip-path:url(#XMLID_370_)}.st190{fill:#203979}.st191{fill:#1e3778}.st192{fill:#1c3576}.st193{fill:none;stroke:#dbdae7;stroke-width:.473;stroke-miterlimit:3.864}.st194{clip-path:url(#XMLID_371_);fill:#fff}.st195{fill:#fafafc}.st195,.st196,.st197,.st198{clip-path:url(#XMLID_371_)}.st196{fill:#f5f5f9}.st197{fill:#f2f2f6}.st198{fill:#f0eff5}.st199{fill:#ecebf2}.st199,.st200,.st201,.st202{clip-path:url(#XMLID_371_)}.st200{fill:#e9e9f1}.st201{fill:#e6e5ee}.st202{fill:#e4e3ed}.st203{fill:#e0e0eb}.st203,.st204,.st205,.st206{clip-path:url(#XMLID_371_)}.st204{fill:#dedde8}.st205{fill:#dad9e6}.st206{fill:#d8d7e5}.st207{fill:#d5d4e2}.st207,.st208,.st209,.st210{clip-path:url(#XMLID_371_)}.st208{fill:#d2d2e1}.st209{fill:#cfcfdf}.st210{fill:#cdcdde}.st211{fill:#cbcbdd}.st211,.st212,.st213,.st214{clip-path:url(#XMLID_371_)}.st212{fill:#c8c8db}.st213{fill:#c5c6da}.st214{fill:#c3c3d7}.st215{fill:#c1c1d7}.st215,.st216,.st217,.st218{clip-path:url(#XMLID_371_)}.st216{fill:#bebfd5}.st217{fill:#bcbcd3}.st218{fill:#babad1}.st219{fill:#b7b7d0}.st219,.st220,.st221,.st222{clip-path:url(#XMLID_371_)}.st220{fill:#b5b5cf}.st221{fill:#b2b3cd}.st222{fill:#b0b1cb}.st223{fill:#aeafcb}.st223,.st224,.st225,.st226{clip-path:url(#XMLID_371_)}.st224{fill:#abacc8}.st225{fill:#a9aac7}.st226{fill:#a7a8c6}.st227{fill:#a5a6c4}.st227,.st228,.st229,.st230{clip-path:url(#XMLID_371_)}.st228{fill:#a3a4c3}.st229{fill:#a1a2c2}.st230{fill:#9e9fc0}.st231{fill:#9d9dbf}.st231,.st232,.st233,.st234{clip-path:url(#XMLID_371_)}.st232{fill:#9a9bbe}.st233{fill:#9899bc}.st234{fill:#9798bb}.st235{fill:#9495b9}.st235,.st236,.st237,.st238{clip-path:url(#XMLID_371_)}.st236{fill:#9294b8}.st237{fill:#9092b7}.st238{fill:#8e90b6}.st239{fill:#8c8eb4}.st239,.st240,.st241,.st242{clip-path:url(#XMLID_371_)}.st240{fill:#8a8cb3}.st241{fill:#888ab1}.st242{fill:#8788b0}.st243{fill:#8486af}.st243,.st244,.st245,.st246{clip-path:url(#XMLID_371_)}.st244{fill:#8385ae}.st245{fill:#8183ac}.st246{fill:#8081ab}.st247{fill:#7e80aa}.st247,.st248,.st249,.st250{clip-path:url(#XMLID_371_)}.st248{fill:#7c7fa9}.st249{fill:#7a7da8}.st250{fill:#797ca7}.st251{fill:#767aa5}.st251,.st252,.st253,.st254{clip-path:url(#XMLID_371_)}.st252{fill:#7578a4}.st253{fill:#7477a3}.st254{fill:#7175a2}.st255{fill:#7073a1}.st255,.st256,.st257,.st258{clip-path:url(#XMLID_371_)}.st256{fill:#6e72a0}.st257{fill:#6c709f}.st258{fill:#6b6f9e}.st259{fill:#696d9d}.st259,.st260,.st261,.st262{clip-path:url(#XMLID_371_)}.st260{fill:#676c9c}.st261{fill:#666b9b}.st262{fill:#63699a}.st263{fill:#626899}.st263,.st264,.st265,.st266{clip-path:url(#XMLID_371_)}.st264{fill:#616698}.st265{fill:#5f6497}.st266{fill:#5d6395}.st267{fill:#5b6294}.st267,.st268,.st269,.st270{clip-path:url(#XMLID_371_)}.st268{fill:#596093}.st269{fill:#585f92}.st270{fill:#555d91}.st271{fill:#545c91}.st271,.st272,.st273,.st274{clip-path:url(#XMLID_371_)}.st272{fill:#535b90}.st273{fill:#505a8f}.st274{fill:#4f598e}.st275{fill:#4d578d}.st275,.st276,.st277,.st278{clip-path:url(#XMLID_371_)}.st276{fill:#4c568c}.st277{fill:#4a548b}.st278{fill:#48538a}.st279{fill:#465289}.st279,.st280,.st281,.st282{clip-path:url(#XMLID_371_)}.st280{fill:#455188}.st281{fill:#424f87}.st282{fill:#414e86}.st283{fill:#404d85}.st283,.st284,.st285,.st286{clip-path:url(#XMLID_371_)}.st284{fill:#3d4b85}.st285{fill:#3c4a83}.st286{fill:#3a4883}.st287{fill:#384782}.st287,.st288,.st289,.st290{clip-path:url(#XMLID_371_)}.st288{fill:#374681}.st289{fill:#344580}.st290{fill:#334480}.st291{fill:#31427f}.st291,.st292,.st293,.st294{clip-path:url(#XMLID_371_)}.st292{fill:#2f417e}.st293{fill:#2d407e}.st294{fill:#2a3f7d}.st295{fill:#293e7c}.st295,.st296,.st297,.st298{clip-path:url(#XMLID_371_)}.st296{fill:#273c7b}.st297{fill:#243b7b}.st298{fill:#233a7a}.st299{fill:#223979}.st299,.st300,.st301,.st302{clip-path:url(#XMLID_371_)}.st300{fill:#1f3778}.st301{fill:#1e3677}.st302{fill:#1c3576}</style><g id="XMLID_2_"><path id="XMLID_367_" class="st0" d="M3.4.6h132.1v112.9H3.4z"/><path id="XMLID_364_" class="st1" d="M61.6 81c0-2.4-2.6-5.7-11-5.7s-11 3.4-11 5.7c0 2.4 2.6 5.7 11 5.7s11-3.4 11-5.7m-3.2 0c0 2.6-3 4.4-7.9 4.4s-7.9-1.9-7.9-4.4c0-2.6 3-4.4 7.9-4.4s7.9 1.8 7.9 4.4"/><path id="XMLID_360_" class="st2" d="M17.7 81.6h6c2.5 0 5.3.3 5.3 1.8 0 1.2-1.6 2-4.8 2h-6.5v-3.8zm-3.1 5.1h9.7c5 0 7.7-1.5 7.7-3.2 0-1.9-2.6-2.4-4.1-2.7 2.5-.6 3-1.6 3-2.3 0-1.5-2.2-2.8-6.4-2.8h-10v11zm3.1-9.6h5.5c3.4 0 4.7.6 4.7 1.6 0 1.3-1.8 1.8-4.7 1.8h-5.5v-3.4z"/><path id="XMLID_357_" class="st2" d="M56.6 81.3c0-2.4-2.6-5.7-11-5.7s-11 3.4-11 5.7c0 2.4 2.6 5.7 11 5.7s11-3.4 11-5.7m-3.1 0c0 2.6-3 4.4-7.9 4.4s-7.9-1.9-7.9-4.4c0-2.6 3-4.4 7.9-4.4 4.9-.1 7.9 1.8 7.9 4.4"/><path id="XMLID_354_" class="st2" d="M63.7 77.1h7.6c1.5 0 4.1.1 4.1 1.8 0 1.6-2.4 1.9-4.6 1.9h-7.1v-3.7zm0 4.9h7.4c3.7 0 4 1 4 1.9 0 .4.1 2.1.5 2.7h3.8v-.2c-.9-.3-1.1-.5-1.1-1.1l-.2-2c-.1-1.5-1.4-1.8-2.7-2.1 1.4-.4 3.2-1 3.2-2.6 0-2.3-3.7-2.9-7.4-2.9H60.6v10.9h3.1V82z"/><path id="XMLID_353_" class="st3" d="M100 85.4H86.4v-3.6h12.4v-1.4H86.4v-3.3h13.4v-1.3H83.3v10.9H100z"/><path id="XMLID_350_" class="st2" d="M108.5 82.2l3.6-4.8h.1l3.3 4.8h-7zm8.2 1.3l2.2 3.2h3.3L114 75.8h-3.5L102 86.7h3.2l2.4-3.2h9.1z"/><path id="XMLID_349_" class="st3" d="M13.1 72.1h110v1.3h-110z"/><path id="XMLID_348_" class="st3" d="M13.1 89.4h110v1.3h-110z"/><path id="XMLID_347_" class="st0" d="M39.6 11.3h57.6v57.4H39.6z"/><path id="XMLID_344_" class="st1" d="M47.1 39c0 .8-.7 1.6-2.1 1.5-1.5-.1-2-.9-2-1.6 0-.8.6-1.6 2.1-1.5 1.4 0 2 .8 2 1.6m.2 0c0-1.3-.8-2.4-2.2-2.5-1.5-.1-2.4 1.1-2.4 2.3 0 1.2.7 2.4 2.2 2.5 1.4.1 2.3-.9 2.4-2.3"/><path id="XMLID_343_" class="st4" d="M46.5 31.7c-.5-.2-1 .1-1.2.7-.2.5.1 1.1.6 1.2.5.2 1-.1 1.2-.7.1-.5-.2-1.1-.6-1.2"/><path id="XMLID_340_" class="st1" d="M46.8 27.1c-.2-.1-.2-.2 0-.4.2-.3.8-1.2 1.6-.7.9.5.3 1.4.2 1.6-.1.1-.2.3-.3.4l-1.5-.9zm-1 .9c.3-.4.4-.5.8-.2l2.5 1.5c.4.3.5.3.2.9l.1.1 1.1-1.8-.1-.1c-.3.6-.4.6-.9.4l-1-.6c.1-.1.2-.3.3-.4.4-.7.6-1.1.5-1.5 0-.2-.1-.6-.5-.9-.7-.5-1.5.1-2.1 1l-1 1.7.1-.1z"/><path id="XMLID_339_" class="st4" d="M52.9 22.4c-.4-.4-1-.3-1.3 0-.4.4-.4 1-.1 1.3.4.4 1 .3 1.3 0 .4-.3.4-.9.1-1.3"/><path id="XMLID_338_" class="st4" d="M59.4 19.5l-.2.1c0 .8-.2 1.1-1 1.6-1 .5-1 .5-1.1.3l-.8-1.5 1-.5c.5-.3.7-.3 1 .2l.1-.1-.8-1.4-.1.1c.2.5.2.6-.4 1l-1 .6-.7-1.3c-.1-.2 0-.2.1-.3l.9-.5c.7-.4.9-.4 1.3.1l.2-.1-.5-.8-3.4 1.7.1.1c.4-.2.6-.2.9.2l1.4 2.6c.3.5.1.6-.3.8l.1.1 3.5-1.9-.3-1.1z"/><path id="XMLID_337_" class="st4" d="M63.4 17.1c-.1-.5-.7-.8-1.2-.6-.5.1-.9.7-.7 1.1.1.5.7.8 1.2.6.5-.1.8-.6.7-1.1"/><path id="XMLID_334_" class="st1" d="M67.7 14.9c0-.2.1-.2.5-.2.3 0 1.3 0 1.3.9 0 1-1.1 1-1.7 1l-.1-1.7zm3.3 3.9c-.3 0-.5-.1-.6-.3l-1.5-1.7c.4-.1 1.3-.2 1.4-1.1 0-1-1.2-1.2-1.9-1.2h-2v.1c.5.1.6.1.6.6l-.1 2.8c0 .5 0 .6-.6.7v.1h2v-.1c-.6 0-.7-.2-.7-.6v-1.3h.4l1.7 2.1h1.2l.1-.1z"/><path id="XMLID_333_" class="st4" d="M75.6 17.7c.1-.5-.2-1-.7-1.1-.5-.1-1.1.1-1.2.6-.1.5.2 1 .7 1.1.5.2 1.1-.1 1.2-.6"/><path id="XMLID_330_" class="st1" d="M79.4 19.9l1.7-1.1-.3 2-1.4-.9zm2.2 3.3c-.3-.2-.3-.3-.3-.8l.5-4.2-.1-.2-3.1 2c-.3.2-.7.5-1 .5-.2 0-.3 0-.4-.1l-.1.1 1.2.8.1-.1c-.1-.1-.4-.3-.3-.5 0-.1.1-.1.2-.2l.7-.5 1.6 1-.1.7c0 .1 0 .3-.1.4-.1.2-.3.1-.6-.1l.2.3 1.6 1v-.1z"/><path id="XMLID_329_" class="st4" d="M86.2 24.8c.4-.3.4-.9 0-1.3s-1-.5-1.3-.1c-.4.3-.4.9 0 1.4s.9.3 1.3 0"/><path id="XMLID_328_" class="st4" d="M87.6 30.9c-.3-.6-.2-.7.2-.9l3-1.6.2.4c.4.7.4 1-.2 1.4l.1.2 1-.6L90 26l-1 .5.1.2c.7-.2.9-.1 1.3.6l.2.4-3 1.6c-.4.2-.6.3-.9-.3h-.2l1 1.9h.1z"/><path id="XMLID_327_" class="st4" d="M91.3 35.4c.5-.1.8-.7.6-1.2-.1-.5-.6-.9-1.1-.7-.5.1-.8.7-.6 1.2.1.5.6.8 1.1.7"/><path id="XMLID_326_" class="st4" d="M89.5 38.1l.1 2.2h.1c0-.5.1-.7.6-.7l3-.1c.5 0 .6.2.6.7h.1l-.1-2.2h-.1c0 .6-.1.7-.6.7l-3 .1c-.5 0-.6-.1-.6-.7h-.1z"/><path id="XMLID_325_" class="st4" d="M91.3 44.8c.5.1 1-.3 1.1-.8.1-.6-.2-1.1-.7-1.1-.5-.1-1 .3-1.1.8-.1.5.2 1 .7 1.1"/><path id="XMLID_322_" class="st1" d="M87.7 49c.3-.7 1.2-1.2 2.6-.6 1.4.6 1.5 1.6 1.2 2.3-.3.7-1.2 1.2-2.6.6-1.4-.6-1.6-1.5-1.2-2.3m-.3-.1c-.6 1.2-.2 2.6 1.1 3.2 1.4.7 2.6-.1 3.1-1.2.5-1.1.3-2.5-1.1-3.2-1.2-.6-2.5 0-3.1 1.2"/><path id="XMLID_321_" class="st4" d="M85.4 56c.4.3 1 .2 1.3-.2.4-.4.3-1-.1-1.3-.4-.3-1-.2-1.3.2-.3.4-.2 1 .1 1.3"/><path id="XMLID_320_" class="st4" d="M80.3 62.8l1.5-.9-.1-.1c-.5.2-.7.2-1.1-.4l-1.2-1.9 4.1 1.2 1.1-.7-.1-.1c-.2.2-.4.2-.8.1l-1.6-2.5c-.4-.6-.3-.8.1-1.1l-.1-.1-1.5.9.1.1c.5-.3.7-.2 1.1.3l1.4 2.2-4.7-1.3-.1.1 1.9 3c.4.7.2.8-.1 1.1l.1.1z"/><path id="XMLID_319_" class="st4" d="M74.5 62.6c.2.5.7.7 1.2.6.5-.2.8-.7.7-1.2-.2-.5-.7-.7-1.2-.6-.5.2-.8.7-.7 1.2"/><path id="XMLID_318_" class="st4" d="M69.8 63.4c.1.5.6.8 1.1.8.6-.1.9-.5.9-1-.1-.5-.6-.8-1.1-.8-.5 0-.9.5-.9 1"/><path id="XMLID_317_" class="st4" d="M65 63.2c0 .5.4.9.9 1 .6 0 1-.3 1.1-.8 0-.5-.4-.9-.9-1-.5-.1-1 .3-1.1.8"/><path id="XMLID_316_" class="st4" d="M60.3 62c-.2.5.1 1 .7 1.2.5.2 1.1-.1 1.2-.6.2-.5-.1-1-.7-1.2-.5-.2-1 .1-1.2.6"/><path id="XMLID_315_" class="st4" d="M53.8 59.5l-.7 1.3.1.1c.2-.2.4 0 .4 0 .1.1.4.5 1 .9 1.1.7 2.6.6 3.4-.6.9-1.4.1-2.6-.9-3.3-1.2-.7-2.1-.3-2.2-.3v.2c.3 0 1-.2 1.8.3s1.2 1.5.5 2.7c-.5.8-1 1-1.4 1.1-.4.1-.8 0-1.2-.2-.8-.5-.9-1.2-.7-1.9l-.1-.3z"/><path id="XMLID_312_" class="st1" d="M49.8 50.5c.4.7.2 1.7-1.1 2.4s-2.2.3-2.6-.4c-.4-.7-.3-1.6 1.1-2.4 1.3-.7 2.2-.3 2.6.4m.2-.1c-.6-1.2-1.9-1.7-3.2-1-1.4.7-1.5 2.2-.9 3.2.6 1.1 1.9 1.7 3.2 1 1.3-.7 1.6-2.1.9-3.2"/><path id="XMLID_311_" class="st4" d="M45.4 44.6c-.5.1-.8.7-.6 1.2.1.5.6.9 1.1.7.5-.1.8-.7.6-1.2-.1-.5-.6-.8-1.1-.7"/><g id="XMLID_265_"><defs><path id="XMLID_266_" d="M81 51.4c2.7-3.7 2.4-7.8 2.4-7.8-11.1-.1-8.8-13-8.8-13C67.7 49.8 81 51.4 81 51.4"/></defs><clipPath id="XMLID_368_"><use xlink:href="#XMLID_266_" overflow="visible"/></clipPath><path id="XMLID_310_" class="st5" d="M74.93 30.855l-8.2 11.715-.33-.23 8.202-11.714z"/><path id="XMLID_309_" class="st6" d="M75.28 31.075l-8.204 11.713-.328-.23 8.203-11.713z"/><path id="XMLID_308_" class="st7" d="M75.568 31.373l-8.203 11.714-.328-.23 8.203-11.713z"/><path id="XMLID_307_" class="st8" d="M75.834 31.54l-8.202 11.71-.328-.23 8.203-11.713z"/><path id="XMLID_306_" class="st9" d="M76.18 31.758l-8.2 11.713-.33-.228 8.203-11.713z"/><path id="XMLID_305_" class="st10" d="M76.53 31.98l-8.203 11.714-.328-.23L76.2 31.753z"/><path id="XMLID_304_" class="st11" d="M76.876 32.2l-8.202 11.713-.328-.23 8.203-11.712z"/><path id="XMLID_303_" class="st12" d="M77.142 32.366L68.94 44.08l-.328-.23 8.202-11.713z"/><path id="XMLID_302_" class="st13" d="M77.432 32.67L69.23 44.38l-.328-.23 8.203-11.712z"/><path id="XMLID_301_" class="st14" d="M77.78 32.892l-8.2 11.714-.33-.23 8.203-11.713z"/><path id="XMLID_300_" class="st15" d="M78.13 33.11l-8.204 11.714-.328-.23L77.8 32.882z"/><path id="XMLID_299_" class="st16" d="M78.394 33.274l-8.202 11.714-.328-.23 8.203-11.713z"/><path id="XMLID_298_" class="st17" d="M78.742 33.496L70.54 45.21l-.328-.23 8.202-11.714z"/><path id="XMLID_297_" class="st18" d="M79.034 33.803l-8.2 11.715-.328-.23 8.2-11.714z"/><path id="XMLID_296_" class="st19" d="M79.382 34.02L71.18 45.73l-.328-.23 8.202-11.713z"/><path id="XMLID_295_" class="st20" d="M79.73 34.24l-8.203 11.713-.328-.23L79.4 34.01z"/><path id="XMLID_294_" class="st21" d="M79.994 34.404l-8.202 11.713-.328-.23 8.203-11.712z"/><path id="XMLID_293_" class="st22" d="M80.342 34.625L72.14 46.338l-.328-.23 8.202-11.712z"/><path id="XMLID_292_" class="st23" d="M80.69 34.846L72.486 46.56l-.328-.23 8.202-11.713z"/><path id="XMLID_291_" class="st24" d="M80.98 35.15l-8.203 11.71-.327-.23 8.202-11.712z"/><path id="XMLID_290_" class="st25" d="M81.246 35.313l-8.202 11.713-.328-.23 8.203-11.713z"/><path id="XMLID_289_" class="st26" d="M81.594 35.534L73.39 47.247l-.326-.23 8.202-11.713z"/><path id="XMLID_288_" class="st27" d="M81.942 35.755L73.74 47.468l-.33-.23 8.204-11.713z"/><path id="XMLID_287_" class="st28" d="M82.29 35.982l-8.2 11.714-.33-.23 8.202-11.714z"/><path id="XMLID_286_" class="st29" d="M82.5 36.22l-8.204 11.714-.328-.23 8.203-11.713z"/><path id="XMLID_285_" class="st30" d="M82.846 36.442l-8.202 11.713-.328-.23 8.202-11.712z"/><path id="XMLID_284_" class="st31" d="M83.194 36.663L74.99 48.376l-.326-.23 8.202-11.712z"/><path id="XMLID_283_" class="st32" d="M83.542 36.884L75.34 48.597l-.328-.23 8.203-11.713z"/><path id="XMLID_282_" class="st33" d="M83.89 37.105l-8.202 11.713-.328-.23 8.202-11.713z"/><path id="XMLID_281_" class="st34" d="M84.156 37.268L75.953 48.98l-.327-.228 8.202-11.713z"/><path id="XMLID_280_" class="st35" d="M84.446 37.57l-8.202 11.714-.328-.23 8.202-11.712z"/><path id="XMLID_279_" class="st36" d="M84.794 37.792L76.59 49.505l-.327-.23 8.203-11.712z"/><path id="XMLID_278_" class="st37" d="M85.14 38.013l-8.2 11.714-.33-.23 8.204-11.713z"/><path id="XMLID_277_" class="st38" d="M85.408 38.183l-8.2 11.715-.328-.23 8.2-11.714z"/><path id="XMLID_276_" class="st39" d="M85.756 38.398L77.553 50.11l-.328-.23 8.203-11.712z"/><path id="XMLID_275_" class="st40" d="M86.046 38.7l-8.203 11.714-.327-.23 8.202-11.713z"/><path id="XMLID_274_" class="st41" d="M86.395 38.928l-8.2 11.714-.33-.23L86.068 38.7z"/><path id="XMLID_273_" class="st42" d="M86.742 39.142L78.54 50.855l-.328-.23 8.202-11.712z"/><path id="XMLID_272_" class="st43" d="M87.008 39.306L78.805 51.02l-.327-.23 8.202-11.713z"/><path id="XMLID_271_" class="st44" d="M87.355 39.527L79.153 51.24l-.328-.23 8.203-11.71z"/><path id="XMLID_270_" class="st45" d="M87.645 39.83l-8.203 11.714-.327-.23L87.317 39.6z"/><path id="XMLID_269_" class="st46" d="M87.992 40.052L79.79 51.765l-.328-.23 8.203-11.713z"/><path id="XMLID_268_" class="st47" d="M88.258 40.215L80.056 51.93l-.328-.23 8.202-11.714z"/><path id="XMLID_267_" class="st48" d="M88.607 40.436L80.404 52.15l-.327-.23 8.202-11.713z"/></g><g id="XMLID_205_"><defs><path id="XMLID_206_" d="M68.7 51.2c5.5-2.4 7.8-7.2 7.8-7.2-12.5-7.4-1.4-20.3-1.4-20.3-20.2 17.1-6.4 27.5-6.4 27.5"/></defs><clipPath id="XMLID_369_"><use xlink:href="#XMLID_206_" overflow="visible"/></clipPath><path id="XMLID_264_" class="st49" d="M75.23 24.136L58.37 32l-.17-.364 16.858-7.862z"/><path id="XMLID_263_" class="st50" d="M75.337 24.446l-16.858 7.86-.17-.362 16.858-7.86z"/><path id="XMLID_262_" class="st51" d="M75.575 24.81l-16.858 7.86-.17-.363 16.86-7.86z"/><path id="XMLID_261_" class="st52" d="M75.68 25.125l-16.857 7.86-.17-.362 16.858-7.86z"/><path id="XMLID_260_" class="st53" d="M75.825 25.533l-16.857 7.86-.17-.362 16.858-7.86z"/><path id="XMLID_259_" class="st54" d="M76.02 25.804l-16.857 7.86-.17-.362 16.858-7.86z"/><path id="XMLID_258_" class="st55" d="M76.168 26.213l-16.857 7.86-.168-.363L76 25.85z"/><path id="XMLID_257_" class="st56" d="M76.364 26.486l-16.858 7.86-.17-.363 16.86-7.86z"/><path id="XMLID_256_" class="st57" d="M76.507 26.89L59.65 34.75l-.17-.363 16.858-7.863z"/><path id="XMLID_255_" class="st58" d="M76.616 27.2l-16.858 7.86-.17-.36 16.86-7.862z"/><path id="XMLID_254_" class="st59" d="M76.85 27.57l-16.856 7.86-.17-.363 16.858-7.86z"/><path id="XMLID_253_" class="st60" d="M77 27.973l-16.858 7.86-.17-.362 16.858-7.86z"/><path id="XMLID_252_" class="st61" d="M77.103 28.284l-16.857 7.86-.17-.362 16.858-7.86z"/><path id="XMLID_251_" class="st62" d="M77.34 28.648l-16.856 7.86-.17-.362 16.858-7.86z"/><path id="XMLID_250_" class="st63" d="M77.445 28.97l-16.857 7.86-.17-.363 16.858-7.86z"/><path id="XMLID_249_" class="st64" d="M77.684 29.325l-16.857 7.86-.17-.362 16.858-7.86z"/><path id="XMLID_248_" class="st65" d="M77.787 29.64L60.93 37.5l-.17-.36 16.858-7.862z"/><path id="XMLID_247_" class="st66" d="M77.935 30.05l-16.858 7.86-.17-.363 16.86-7.86z"/><path id="XMLID_246_" class="st67" d="M78.13 30.318l-16.857 7.86-.17-.362 16.858-7.86z"/><path id="XMLID_245_" class="st68" d="M78.277 30.724l-16.857 7.86-.17-.362 16.858-7.86z"/><path id="XMLID_244_" class="st69" d="M78.473 31l-16.857 7.862-.17-.363 16.858-7.86z"/><path id="XMLID_243_" class="st70" d="M78.618 31.408l-16.857 7.86-.168-.363 16.857-7.86z"/><path id="XMLID_242_" class="st71" d="M78.723 31.72l-16.857 7.86-.17-.363 16.858-7.86z"/><path id="XMLID_241_" class="st72" d="M78.96 32.085l-16.856 7.86-.17-.363 16.858-7.86z"/><path id="XMLID_240_" class="st73" d="M79.066 32.396l-16.857 7.86-.17-.362 16.857-7.86z"/><path id="XMLID_239_" class="st74" d="M79.213 32.803l-16.857 7.86-.17-.362 16.858-7.86z"/><path id="XMLID_238_" class="st75" d="M79.45 33.168l-16.856 7.86-.17-.362 16.858-7.86z"/><path id="XMLID_237_" class="st76" d="M79.554 33.484l-16.857 7.86-.17-.362 16.858-7.86z"/><path id="XMLID_236_" class="st77" d="M79.79 33.847L62.93 41.71l-.168-.363 16.857-7.862z"/><path id="XMLID_235_" class="st78" d="M79.897 34.156l-16.857 7.86-.17-.362 16.858-7.86z"/><path id="XMLID_234_" class="st79" d="M80.044 34.567l-16.857 7.86-.17-.363 16.858-7.86z"/><path id="XMLID_233_" class="st80" d="M80.235 34.84l-16.857 7.862-.17-.362 16.858-7.863z"/><path id="XMLID_232_" class="st81" d="M80.387 35.24L63.53 43.1l-.17-.363 16.858-7.86z"/><path id="XMLID_231_" class="st82" d="M80.49 35.557l-16.857 7.86-.17-.362 16.858-7.86z"/><path id="XMLID_230_" class="st83" d="M80.728 35.92L63.87 43.78l-.168-.363 16.857-7.86z"/><path id="XMLID_229_" class="st84" d="M80.833 36.234l-16.857 7.86-.17-.362 16.858-7.86z"/><path id="XMLID_228_" class="st85" d="M81.07 36.6l-16.857 7.86-.17-.362 16.858-7.86z"/><path id="XMLID_227_" class="st86" d="M81.175 36.916l-16.857 7.86-.17-.362 16.858-7.86z"/><path id="XMLID_226_" class="st87" d="M81.32 37.322l-16.857 7.86-.17-.362 16.86-7.86z"/><path id="XMLID_225_" class="st88" d="M81.516 37.59L64.66 45.453l-.17-.363 16.857-7.86z"/><path id="XMLID_224_" class="st89" d="M81.664 37.995l-16.857 7.86-.17-.362 16.858-7.86z"/><path id="XMLID_223_" class="st90" d="M81.86 38.268L65 46.128l-.17-.362 16.858-7.86z"/><path id="XMLID_222_" class="st91" d="M82.006 38.674l-16.857 7.86-.17-.362 16.857-7.86z"/><path id="XMLID_221_" class="st92" d="M82.153 39.082l-16.857 7.86-.17-.362 16.858-7.86z"/><path id="XMLID_220_" class="st93" d="M82.347 39.35L65.49 47.213l-.17-.363 16.858-7.86z"/><path id="XMLID_219_" class="st94" d="M82.49 39.76l-16.857 7.864-.17-.363 16.86-7.86z"/><path id="XMLID_218_" class="st95" d="M82.6 40.075l-16.858 7.86-.17-.362 16.858-7.86z"/><path id="XMLID_217_" class="st96" d="M82.838 40.434l-16.858 7.86-.17-.362 16.86-7.86z"/><path id="XMLID_216_" class="st97" d="M82.943 40.75l-16.858 7.86-.17-.363 16.86-7.86z"/><path id="XMLID_215_" class="st98" d="M83.178 41.116l-16.858 7.86-.17-.362 16.86-7.86z"/><path id="XMLID_214_" class="st99" d="M83.28 41.43l-16.86 7.865-.17-.363 16.858-7.86z"/><path id="XMLID_213_" class="st100" d="M83.43 41.833l-16.857 7.86-.17-.362 16.86-7.86z"/><path id="XMLID_212_" class="st101" d="M83.626 42.106l-16.857 7.86-.17-.362 16.857-7.86z"/><path id="XMLID_211_" class="st102" d="M83.773 42.513l-16.857 7.86-.17-.363 16.858-7.86z"/><path id="XMLID_210_" class="st103" d="M83.967 42.788l-16.857 7.86-.17-.362 16.858-7.86z"/><path id="XMLID_209_" class="st104" d="M84.114 43.195l-16.857 7.86-.17-.363 16.858-7.86z"/><path id="XMLID_208_" class="st105" d="M84.22 43.506l-16.858 7.86-.17-.362 16.858-7.86z"/><path id="XMLID_207_" class="st106" d="M84.456 43.872L67.6 51.732l-.17-.363 16.857-7.86z"/></g><g id="XMLID_117_"><defs><path id="XMLID_118_" d="M53.4 49.3c8.9.2 15-4.8 15-4.8-12.2-17.7 10.8-28.3 10.8-28.3-38 10.4-25.8 33.1-25.8 33.1"/></defs><clipPath id="XMLID_370_"><use xlink:href="#XMLID_118_" overflow="visible"/></clipPath><path id="XMLID_204_" class="st107" d="M51.5 16.2h27.7v.4H51.5z"/><path id="XMLID_203_" class="st108" d="M51.5 16.6h27.7v.4H51.5z"/><path id="XMLID_202_" class="st109" d="M51.5 17h27.7v.4H51.5z"/><path id="XMLID_201_" class="st110" d="M51.5 17.4h27.7v.4H51.5z"/><path id="XMLID_200_" class="st111" d="M51.5 17.8h27.7v.4H51.5z"/><path id="XMLID_199_" class="st112" d="M51.5 18.2h27.7v.4H51.5z"/><path id="XMLID_198_" class="st113" d="M51.5 18.6h27.7v.4H51.5z"/><path id="XMLID_197_" class="st114" d="M51.5 18.9h27.7v.4H51.5z"/><path id="XMLID_196_" class="st115" d="M51.5 19.3h27.7v.4H51.5z"/><path id="XMLID_195_" class="st116" d="M51.5 19.7h27.7v.4H51.5z"/><path id="XMLID_194_" class="st117" d="M51.5 20.1h27.7v.4H51.5z"/><path id="XMLID_193_" class="st118" d="M51.5 20.5h27.7v.4H51.5z"/><path id="XMLID_192_" class="st119" d="M51.5 20.9h27.7v.4H51.5z"/><path id="XMLID_191_" class="st120" d="M51.5 21.2h27.7v.4H51.5z"/><path id="XMLID_190_" class="st121" d="M51.5 21.6h27.7v.4H51.5z"/><path id="XMLID_189_" class="st122" d="M51.5 22h27.7v.4H51.5z"/><path id="XMLID_188_" class="st123" d="M51.5 22.4h27.7v.4H51.5z"/><path id="XMLID_187_" class="st124" d="M51.5 22.8h27.7v.4H51.5z"/><path id="XMLID_186_" class="st125" d="M51.5 23.2h27.7v.4H51.5z"/><path id="XMLID_185_" class="st126" d="M51.5 23.6h27.7v.4H51.5z"/><path id="XMLID_184_" class="st127" d="M51.5 23.9h27.7v.4H51.5z"/><path id="XMLID_183_" class="st128" d="M51.5 24.3h27.7v.4H51.5z"/><path id="XMLID_182_" class="st129" d="M51.5 24.7h27.7v.4H51.5z"/><path id="XMLID_181_" class="st130" d="M51.5 25.1h27.7v.4H51.5z"/><path id="XMLID_180_" class="st131" d="M51.5 25.5h27.7v.4H51.5z"/><path id="XMLID_179_" class="st132" d="M51.5 25.9h27.7v.4H51.5z"/><path id="XMLID_178_" class="st133" d="M51.5 26.2h27.7v.4H51.5z"/><path id="XMLID_177_" class="st134" d="M51.5 26.6h27.7v.4H51.5z"/><path id="XMLID_176_" class="st135" d="M51.5 27h27.7v.4H51.5z"/><path id="XMLID_175_" class="st136" d="M51.5 27.4h27.7v.4H51.5z"/><path id="XMLID_174_" class="st137" d="M51.5 27.8h27.7v.4H51.5z"/><path id="XMLID_173_" class="st138" d="M51.5 28.2h27.7v.4H51.5z"/><path id="XMLID_172_" class="st139" d="M51.5 28.5h27.7v.4H51.5z"/><path id="XMLID_171_" class="st140" d="M51.5 28.9h27.7v.4H51.5z"/><path id="XMLID_170_" class="st141" d="M51.5 29.3h27.7v.4H51.5z"/><path id="XMLID_169_" class="st142" d="M51.5 29.7h27.7v.4H51.5z"/><path id="XMLID_168_" class="st143" d="M51.5 30.1h27.7v.4H51.5z"/><path id="XMLID_167_" class="st144" d="M51.5 30.5h27.7v.4H51.5z"/><path id="XMLID_166_" class="st145" d="M51.5 30.9h27.7v.4H51.5z"/><path id="XMLID_165_" class="st146" d="M51.5 31.2h27.7v.4H51.5z"/><path id="XMLID_164_" class="st147" d="M51.5 31.6h27.7v.4H51.5z"/><path id="XMLID_163_" class="st148" d="M51.5 32h27.7v.4H51.5z"/><path id="XMLID_162_" class="st149" d="M51.5 32.4h27.7v.4H51.5z"/><path id="XMLID_161_" class="st150" d="M51.5 32.8h27.7v.4H51.5z"/><path id="XMLID_160_" class="st151" d="M51.5 33.2h27.7v.4H51.5z"/><path id="XMLID_159_" class="st152" d="M51.5 33.5h27.7v.4H51.5z"/><path id="XMLID_158_" class="st153" d="M51.5 33.9h27.7v.4H51.5z"/><path id="XMLID_157_" class="st154" d="M51.5 34.3h27.7v.4H51.5z"/><path id="XMLID_156_" class="st155" d="M51.5 34.7h27.7v.4H51.5z"/><path id="XMLID_155_" class="st156" d="M51.5 35.1h27.7v.4H51.5z"/><path id="XMLID_154_" class="st157" d="M51.5 35.5h27.7v.4H51.5z"/><path id="XMLID_153_" class="st158" d="M51.5 35.9h27.7v.4H51.5z"/><path id="XMLID_152_" class="st159" d="M51.5 36.2h27.7v.4H51.5z"/><path id="XMLID_151_" class="st160" d="M51.5 36.6h27.7v.4H51.5z"/><path id="XMLID_150_" class="st161" d="M51.5 37h27.7v.4H51.5z"/><path id="XMLID_149_" class="st162" d="M51.5 37.4h27.7v.4H51.5z"/><path id="XMLID_148_" class="st163" d="M51.5 37.8h27.7v.4H51.5z"/><path id="XMLID_147_" class="st164" d="M51.5 38.2h27.7v.4H51.5z"/><path id="XMLID_146_" class="st165" d="M51.5 38.5h27.7v.4H51.5z"/><path id="XMLID_145_" class="st166" d="M51.5 38.9h27.7v.4H51.5z"/><path id="XMLID_144_" class="st167" d="M51.5 39.3h27.7v.4H51.5z"/><path id="XMLID_143_" class="st168" d="M51.5 39.7h27.7v.4H51.5z"/><path id="XMLID_142_" class="st169" d="M51.5 40.1h27.7v.4H51.5z"/><path id="XMLID_141_" class="st170" d="M51.5 40.5h27.7v.4H51.5z"/><path id="XMLID_140_" class="st171" d="M51.5 40.8h27.7v.4H51.5z"/><path id="XMLID_139_" class="st172" d="M51.5 41.2h27.7v.4H51.5z"/><path id="XMLID_138_" class="st173" d="M51.5 41.6h27.7v.4H51.5z"/><path id="XMLID_137_" class="st174" d="M51.5 42h27.7v.4H51.5z"/><path id="XMLID_136_" class="st175" d="M51.5 42.4h27.7v.4H51.5z"/><path id="XMLID_135_" class="st176" d="M51.5 42.8h27.7v.4H51.5z"/><path id="XMLID_134_" class="st177" d="M51.5 43.2h27.7v.4H51.5z"/><path id="XMLID_133_" class="st178" d="M51.5 43.5h27.7v.4H51.5z"/><path id="XMLID_132_" class="st179" d="M51.5 43.9h27.7v.4H51.5z"/><path id="XMLID_131_" class="st180" d="M51.5 44.3h27.7v.4H51.5z"/><path id="XMLID_130_" class="st181" d="M51.5 44.7h27.7v.4H51.5z"/><path id="XMLID_129_" class="st182" d="M51.5 45.1h27.7v.4H51.5z"/><path id="XMLID_128_" class="st183" d="M51.5 45.5h27.7v.4H51.5z"/><path id="XMLID_127_" class="st184" d="M51.5 45.8h27.7v.4H51.5z"/><path id="XMLID_126_" class="st185" d="M51.5 46.2h27.7v.4H51.5z"/><path id="XMLID_125_" class="st186" d="M51.5 46.6h27.7v.4H51.5z"/><path id="XMLID_124_" class="st187" d="M51.5 47h27.7v.4H51.5z"/><path id="XMLID_123_" class="st188" d="M51.5 47.4h27.7v.4H51.5z"/><path id="XMLID_122_" class="st189" d="M51.5 47.8h27.7v.4H51.5z"/><path id="XMLID_121_" class="st190" d="M51.5 48.2h27.7v.4H51.5z"/><path id="XMLID_120_" class="st191" d="M51.5 48.5h27.7v.4H51.5z"/><path id="XMLID_119_" class="st192" d="M51.5 48.9h27.7v.4H51.5z"/></g><path id="XMLID_116_" class="st193" d="M40.5 40c0-15.4 12.5-27.9 27.9-27.9 15.4 0 27.9 12.5 27.9 27.9 0 15.4-12.5 27.9-27.9 27.9C53 67.8 40.5 55.4 40.5 40z"/><g id="XMLID_3_"><defs><path id="XMLID_4_" d="M80.7 54.2c-6.2 3.3-20-2.5-20-2.5-7-2.4-11.5 2.6-11.5 2.6-2.6 2.3-7.8 8.4-7.8 8.4l4-3.6c3.5-3 10.4-2 10.4-2 1.1.2.9.2 1.3.4 6 2.5 7.9 3.1 7.9 3.1 3.7 1 7 .1 7 .1 9.7-2 18.9-13.5 18.9-13.5-2.7 2.8-10.2 7-10.2 7"/></defs><clipPath id="XMLID_371_"><use xlink:href="#XMLID_4_" overflow="visible"/></clipPath><path id="XMLID_115_" class="st194" d="M43.815 55.808l6.63 14.89-4.476 1.993-6.63-14.89z"/><path id="XMLID_114_" class="st194" d="M48.314 53.793l6.63 14.89-4.477 1.993-6.63-14.89z"/><path id="XMLID_113_" class="st194" d="M48.484 53.765l6.63 14.89-.366.163-6.63-14.89z"/><path id="XMLID_112_" class="st195" d="M48.897 53.633l6.63 14.89-.366.163-6.63-14.89z"/><path id="XMLID_111_" class="st196" d="M49.178 53.456l6.63 14.89-.364.163-6.63-14.89z"/><path id="XMLID_110_" class="st197" d="M49.59 53.323l6.63 14.89-.365.163-6.63-14.89z"/><path id="XMLID_109_" class="st198" d="M49.866 53.136l6.63 14.89-.367.163-6.63-14.892z"/><path id="XMLID_108_" class="st199" d="M50.28 53.01l6.632 14.89-.366.162-6.63-14.89z"/><path id="XMLID_107_" class="st200" d="M50.557 52.82l6.63 14.89-.366.164-6.63-14.89z"/><path id="XMLID_106_" class="st201" d="M50.97 52.694l6.632 14.89-.365.163-6.63-14.89z"/><path id="XMLID_105_" class="st202" d="M51.34 52.47l6.632 14.89-.365.164-6.63-14.89z"/><path id="XMLID_104_" class="st203" d="M51.66 52.38l6.632 14.89-.366.162-6.63-14.89z"/><path id="XMLID_103_" class="st204" d="M52.032 52.157l6.63 14.89-.364.163-6.63-14.89z"/><path id="XMLID_102_" class="st205" d="M52.35 52.06l6.628 14.89-.365.164-6.63-14.89z"/><path id="XMLID_101_" class="st206" d="M52.722 51.842l6.63 14.89-.364.163-6.63-14.89z"/><path id="XMLID_100_" class="st207" d="M53.133 51.71l6.63 14.89-.364.163-6.632-14.89z"/><path id="XMLID_99_" class="st208" d="M53.453 51.618l6.63 14.89-.364.163-6.632-14.89z"/><path id="XMLID_98_" class="st209" d="M53.824 51.396l6.63 14.89-.364.163-6.63-14.89z"/><path id="XMLID_97_" class="st210" d="M54.145 51.304l6.63 14.89-.365.163-6.63-14.89z"/><path id="XMLID_96_" class="st211" d="M54.512 51.076l6.63 14.89-.367.163-6.63-14.89z"/><path id="XMLID_95_" class="st212" d="M54.832 50.984l6.63 14.89-.367.163-6.63-14.89z"/><path id="XMLID_94_" class="st213" d="M55.205 50.766l6.63 14.89-.365.163-6.63-14.89z"/><path id="XMLID_93_" class="st214" d="M55.617 50.634l6.63 14.89-.365.163-6.63-14.89z"/><path id="XMLID_92_" class="st215" d="M55.896 50.452l6.63 14.89-.365.163-6.63-14.89z"/><path id="XMLID_91_" class="st216" d="M56.304 50.314l6.63 14.89-.366.163-6.63-14.89z"/><path id="XMLID_90_" class="st217" d="M56.586 50.137l6.63 14.89-.364.163-6.63-14.89z"/><path id="XMLID_89_" class="st218" d="M56.997 50.005l6.63 14.89-.365.163-6.63-14.89z"/><path id="XMLID_88_" class="st219" d="M57.278 49.823l6.63 14.89-.365.163-6.63-14.89z"/><path id="XMLID_87_" class="st220" d="M57.685 49.686l6.63 14.89-.366.163-6.63-14.89z"/><path id="XMLID_86_" class="st221" d="M58.056 49.462l6.63 14.89-.366.163-6.63-14.89z"/><path id="XMLID_85_" class="st222" d="M58.378 49.376l6.63 14.89-.364.163-6.63-14.89z"/><path id="XMLID_84_" class="st223" d="M58.79 49.243l6.63 14.89-.365.163-6.63-14.89z"/><path id="XMLID_83_" class="st224" d="M59.066 49.057l6.63 14.89-.366.163-6.63-14.89z"/><path id="XMLID_82_" class="st225" d="M59.478 48.924l6.63 14.89-.367.163-6.628-14.89z"/><path id="XMLID_81_" class="st226" d="M59.76 48.747l6.63 14.89-.365.163-6.63-14.89z"/><path id="XMLID_80_" class="st227" d="M60.168 48.61l6.63 14.89-.366.162-6.63-14.89z"/><path id="XMLID_79_" class="st228" d="M60.538 48.387l6.63 14.89-.366.163-6.63-14.89z"/><path id="XMLID_78_" class="st229" d="M60.858 48.296l6.63 14.89-.366.163-6.63-14.89z"/><path id="XMLID_77_" class="st230" d="M61.232 48.077l6.63 14.89-.364.163-6.63-14.89z"/><path id="XMLID_76_" class="st231" d="M61.552 47.985l6.63 14.89-.364.163-6.63-14.89z"/><path id="XMLID_75_" class="st232" d="M61.922 47.762l6.63 14.89-.364.163-6.63-14.89z"/><path id="XMLID_74_" class="st233" d="M62.24 47.666l6.63 14.89-.366.163-6.63-14.89z"/><path id="XMLID_73_" class="st234" d="M62.61 47.443l6.63 14.89-.366.163-6.63-14.89z"/><path id="XMLID_72_" class="st235" d="M63.024 47.316l6.63 14.89-.364.163-6.63-14.89z"/><path id="XMLID_71_" class="st236" d="M63.298 47.135l6.63 14.892-.366.162-6.63-14.892z"/><path id="XMLID_70_" class="st237" d="M63.712 46.997l6.63 14.89-.366.163-6.63-14.89z"/><path id="XMLID_69_" class="st238" d="M63.99 46.814l6.63 14.89-.365.163-6.63-14.89z"/><path id="XMLID_68_" class="st239" d="M64.406 46.687l6.63 14.89-.365.163-6.63-14.89z"/><path id="XMLID_67_" class="st240" d="M64.726 46.595l6.63 14.89-.365.163-6.63-14.89z"/><path id="XMLID_66_" class="st241" d="M65.092 46.367l6.63 14.89-.366.163-6.63-14.89z"/><path id="XMLID_65_" class="st242" d="M65.506 46.24l6.63 14.89-.365.163-6.63-14.89z"/><path id="XMLID_64_" class="st243" d="M65.784 46.053l6.63 14.89-.367.163-6.63-14.89z"/><path id="XMLID_63_" class="st244" d="M66.193 45.925l6.63 14.89-.364.162-6.632-14.89z"/><path id="XMLID_62_" class="st245" d="M66.478 45.743l6.63 14.89-.365.163-6.63-14.89z"/><path id="XMLID_61_" class="st246" d="M66.885 45.606l6.63 14.89-.366.163-6.63-14.892z"/><path id="XMLID_60_" class="st247" d="M67.165 45.424l6.63 14.89-.367.163-6.63-14.89z"/><path id="XMLID_59_" class="st248" d="M67.58 45.297l6.63 14.89-.365.163-6.63-14.89z"/><path id="XMLID_58_" class="st249" d="M67.95 45.073l6.63 14.89-.364.163-6.63-14.89z"/><path id="XMLID_57_" class="st250" d="M68.27 44.982l6.63 14.89-.365.163-6.63-14.89z"/><path id="XMLID_56_" class="st251" d="M68.637 44.754l6.63 14.89-.367.162-6.63-14.89z"/><path id="XMLID_55_" class="st252" d="M68.96 44.668l6.632 14.89-.366.163-6.63-14.89z"/><path id="XMLID_54_" class="st253" d="M69.332 44.444l6.63 14.89-.365.163-6.63-14.89z"/><path id="XMLID_53_" class="st254" d="M69.647 44.356l6.63 14.892-.366.162-6.628-14.89z"/><path id="XMLID_52_" class="st255" d="M70.058 44.216l6.63 14.89-.366.163-6.63-14.89z"/><path id="XMLID_51_" class="st256" d="M70.433 43.998l6.63 14.89-.365.162-6.63-14.89z"/><path id="XMLID_50_" class="st257" d="M70.753 43.907l6.63 14.89-.364.163-6.632-14.89z"/><path id="XMLID_49_" class="st258" d="M71.124 43.683l6.63 14.89-.365.163-6.632-14.89z"/><path id="XMLID_48_" class="st259" d="M71.44 43.587l6.63 14.89-.366.163-6.63-14.89z"/><path id="XMLID_47_" class="st260" d="M71.81 43.364l6.63 14.89-.366.163-6.63-14.89z"/><path id="XMLID_46_" class="st261" d="M72.128 43.276l6.63 14.89-.364.163-6.63-14.89z"/><path id="XMLID_45_" class="st262" d="M72.505 43.054l6.63 14.89-.364.163-6.63-14.89z"/><path id="XMLID_44_" class="st263" d="M72.91 42.918l6.63 14.89-.365.162-6.63-14.89z"/><path id="XMLID_43_" class="st264" d="M73.19 42.735l6.63 14.89-.365.162-6.63-14.89z"/><path id="XMLID_42_" class="st265" d="M73.606 42.608l6.63 14.89-.364.162-6.63-14.89z"/><path id="XMLID_41_" class="st266" d="M73.88 42.427l6.628 14.892-.365.16-6.63-14.89z"/><path id="XMLID_40_" class="st267" d="M74.29 42.296l6.63 14.892-.365.163-6.63-14.89z"/><path id="XMLID_39_" class="st268" d="M74.572 42.106l6.63 14.89-.366.162-6.63-14.89z"/><path id="XMLID_38_" class="st269" d="M74.988 41.978l6.63 14.89-.365.163-6.63-14.89z"/><path id="XMLID_37_" class="st270" d="M75.4 41.846l6.63 14.89-.365.163-6.63-14.89z"/><path id="XMLID_36_" class="st271" d="M75.678 41.664l6.63 14.89-.365.162-6.63-14.89z"/><path id="XMLID_35_" class="st272" d="M76.086 41.536l6.63 14.892-.366.162-6.63-14.89z"/><path id="XMLID_34_" class="st273" d="M76.365 41.353l6.63 14.89-.366.164L76 41.515z"/><path id="XMLID_33_" class="st274" d="M76.78 41.218l6.63 14.89-.365.162-6.63-14.89z"/><path id="XMLID_32_" class="st275" d="M77.06 41.034l6.63 14.89-.366.163-6.63-14.89z"/><path id="XMLID_31_" class="st276" d="M77.467 40.907l6.63 14.892-.366.16-6.628-14.89z"/><path id="XMLID_30_" class="st277" d="M77.837 40.675l6.63 14.89-.366.163-6.628-14.89z"/><path id="XMLID_29_" class="st278" d="M78.16 40.59l6.632 14.89-.365.16-6.63-14.89z"/><path id="XMLID_28_" class="st279" d="M78.532 40.365l6.63 14.89-.365.162-6.63-14.89z"/><path id="XMLID_27_" class="st280" d="M78.85 40.274l6.632 14.89-.365.162-6.63-14.89z"/><path id="XMLID_26_" class="st281" d="M79.218 40.046l6.63 14.89-.366.163-6.63-14.892z"/><path id="XMLID_25_" class="st282" d="M79.542 39.96l6.63 14.89-.364.162-6.63-14.89z"/><path id="XMLID_24_" class="st283" d="M79.913 39.735l6.63 14.89-.364.163-6.632-14.89z"/><path id="XMLID_23_" class="st284" d="M80.32 39.6l6.628 14.89-.365.162-6.63-14.89z"/><path id="XMLID_22_" class="st285" d="M80.6 39.426l6.63 14.89-.366.164-6.63-14.892z"/><path id="XMLID_21_" class="st286" d="M81.015 39.29l6.63 14.89-.364.162-6.63-14.89z"/><path id="XMLID_20_" class="st287" d="M81.335 39.2l6.63 14.89-.365.16-6.63-14.89z"/><path id="XMLID_19_" class="st288" d="M81.706 38.975l6.63 14.89-.365.162-6.63-14.89z"/><path id="XMLID_18_" class="st289" d="M82.02 38.88l6.63 14.89-.365.163-6.63-14.89z"/><path id="XMLID_17_" class="st290" d="M82.392 38.656l6.63 14.89-.367.163-6.63-14.89z"/><path id="XMLID_16_" class="st291" d="M82.8 38.532l6.63 14.892-.365.163-6.63-14.892z"/><path id="XMLID_15_" class="st292" d="M83.087 38.345l6.63 14.89-.365.163-6.63-14.89z"/><path id="XMLID_14_" class="st293" d="M83.498 38.214l6.63 14.89-.365.163-6.63-14.89z"/><path id="XMLID_13_" class="st294" d="M83.775 38.035l6.63 14.892-.367.162-6.63-14.892z"/><path id="XMLID_12_" class="st295" d="M84.19 37.9l6.63 14.89-.365.162-6.63-14.89z"/><path id="XMLID_11_" class="st296" d="M84.468 37.716l6.63 14.89-.364.163-6.63-14.89z"/><path id="XMLID_10_" class="st297" d="M84.873 37.588l6.63 14.892-.366.163-6.63-14.892z"/><path id="XMLID_9_" class="st298" d="M85.244 37.356l6.63 14.89-.366.163-6.63-14.89z"/><path id="XMLID_8_" class="st299" d="M85.57 37.27l6.63 14.89-.365.163-6.63-14.89z"/><path id="XMLID_7_" class="st300" d="M85.94 37.047l6.63 14.89-.364.163-6.63-14.89z"/><path id="XMLID_6_" class="st301" d="M86.26 36.955l6.63 14.89-.364.163-6.63-14.89z"/><path id="XMLID_5_" class="st302" d="M86.666 36.818l6.63 14.89-.366.163-6.63-14.89z"/></g></g></svg>