<svg id="Livello_1" xmlns="http://www.w3.org/2000/svg" width="210" height="106.4" viewBox="0 0 210 106.4"><style>.st0{fill:#de062f}.st1{fill:#0ba267}.st2{fill:#0ca367}</style><path class="st0" d="M151.4 84.8H94.1c-1 0-1.4-.3-1.3-1.3.1-.9.1-1.8 0-2.7 0-.7.2-.9.9-.9.9.1 1.8 0 2.7 0h94.2c1.7 0 3.4.1 5-.2 6.3-1.3 9.6-5.1 9.6-11.5.1-8.2 0-16.3 0-24.5 0-1.5-.3-3-.8-4.5-1.6-4.7-5.3-7.4-10.2-7.6h-100c-1.2 0-1.5-.3-1.4-1.5.1-.9 0-1.8 0-2.7 0-.5.2-.7.6-.6h115.2c1 0 1.4.2 1.4 1.3v55.3c0 1.2-.4 1.4-1.4 1.4h-57.2zM0 55.7V28c0-.9.2-1.2 1.1-1.2h27.5c.9 0 1.2.2 1.1 1.1-.1.9-.1 1.9 0 2.8 0 .7-.2.9-.9.9H17.3c-1.6 0-3.1.1-4.6.6-4.4 1.4-6.6 4.6-7.6 8.9-.2 1.1-.3 2.1-.3 3.2v23.6c0 7.4 4.6 12 12.1 12.1h11.7c.8 0 1.2.1 1.1 1.1-.1.9-.1 1.9 0 2.8 0 .7-.2.9-.9.9H1.1c-.9 0-1.1-.3-1.1-1.1v-28z"/><path id="XMLID_26_" class="st1" d="M125.3 51.7v13.2c0 .8-.2 1.1-1 1.1-1-.1-2.3.4-2.9-.2-.7-.6-.2-1.9-.2-2.9V37.3c0-.8.2-1.1 1-1 1 .1 2.3-.3 3.1.2.8.5.7 1.9 1 2.9 1.1 4 2.1 8 3.2 12.1.1.2.2.5.4.7V37.6c0-1 .3-1.3 1.3-1.3 2.8.1 2.8 0 2.8 2.8v25.8c0 .9-.2 1.1-1.1 1.1-3 0-3 0-3.8-2.8-1-3.6-2.1-7.1-3.1-10.7-.3-.3-.3-.5-.7-.8z"/><path id="XMLID_24_" class="st1" d="M160.5 65.9v-4.2c0-.7.2-.9.9-.9h2.7c.7 0 .9.2.9.9v5.7c0 1.1.5 1.3 1.4 1.3s1.2-.4 1.2-1.3c-.1-2 0-3.9 0-5.9 0-.8-.2-1.3-.8-1.9-1.2-1.2-2.6-2.1-4-3.1-1.6-1-2.4-2.4-2.3-4.4.1-2.1 0-4.2 0-6.4 0-1.6 1.1-2.7 2.7-2.8h6c1.8 0 2.9 1.2 2.9 3v6.3c0 .7-.2.9-.9.9-1-.1-1.9-.1-2.9 0-.7 0-.9-.2-.9-.9v-4.4c0-.9-.5-1-1.1-.9-.7 0-1.4-.1-1.4.9v4.7c0 .5.3.7.6 1 1.5 1.1 2.9 2.2 4.3 3.3 1.5 1.2 2.3 2.6 2.3 4.6-.1 2.7 0 5.4 0 8 0 1.8-.7 2.8-2.5 2.9-2.3.2-4.5.2-6.8 0-1.7-.2-2.3-1-2.3-2.7v-3.7z"/><path id="XMLID_23_" class="st1" d="M136.3 57.9V47c0-2.7 1.2-4 3.9-4h3.8c2.5.1 3.8 1.5 3.8 4v5.4c0 .7-.2.9-.9.9-1.1-.1-2.6.5-3.4-.2-.8-.7-.2-2.2-.2-3.3 0-.6-.1-1.3 0-1.9.1-1.1-.4-1.3-1.4-1.3-1.1 0-1.1.7-1.1 1.4v19.2c0 .8.2 1.3 1.1 1.3.8 0 1.4-.2 1.4-1.3v-5.9c0-.7.2-.9.9-.9.9.1 1.9.1 2.8 0 .7-.1.8.3.8.9v8.3c0 1.2-.5 2-1.5 2.3-2.8.9-5.6.9-8.3 0-1.2-.4-1.7-1.4-1.7-2.7V57.9z"/><path id="XMLID_22_" class="st1" d="M174.9 55.3V44.5c0-2.8 1.1-4 3.9-4.2 1.4-.1 2.8-.1 4.2.1 2.2.2 3.4 1.6 3.4 3.8v5.5c0 .7-.1.9-.9.9-.9-.1-1.9-.1-2.8 0-.7 0-.9-.2-.9-.9v-4.6c0-1-.5-1.2-1.3-1.2s-1.2.4-1.2 1.2v19.7c0 .9.5 1.1 1.2 1.1s1.3-.2 1.3-1.1V59c0-.8.1-1.2 1-1.1 1.1.1 2.6-.5 3.3.2.6.7.2 2.1.2 3.2V67c0 1.2-.5 2-1.6 2.3-2.7.9-5.4.8-8.1.1-1.3-.4-1.9-1.4-1.9-2.8.3-3.9.2-7.6.2-11.3z"/><path id="XMLID_18_" class="st1" d="M150.6 61.7V48.1c0-.8.1-1.1 1-1.1 2 .1 3.9 0 5.9 0 .6 0 1 .1.9.8-.1.9 0 1.9 0 2.8 0 .5-.2.7-.6.6h-.4c-2.6 0-2.6 0-2.6 2.6V58c0 .6.2.8.7.8h2.2c.6 0 .8.1.8.7-.1 1 .3 2.2-.2 2.8-.5.7-1.8.2-2.7.2-.6 0-.8.2-.8.8v7.9c0 .6.2.9.8.9h.4c.8.1 2.1-.4 2.3.2.4 1.1.2 2.4.2 3.6 0 .3-.3.4-.6.4h-6.6c-.8 0-.7-.5-.7-1V61.7z"/><path id="XMLID_17_" class="st1" d="M83.1 54.5V40.9c0-.8.2-1 1-1 2.3.1 4.6 0 6.9 0 .8 0 .9.2.9 1 0 3 0 3-2.9 3-.9 0-1.2.3-1.2 1.2.1 1.7 0 3.4 0 5.1 0 .6.2.9.8.8h.1c.8.1 2-.4 2.3.2.5 1 .2 2.2.2 3.4 0 .2-.1.3-.4.3h-.6c-2.5 0-2.5 0-2.5 2.5v10.7c0 .8-.2 1.2-1.1 1.1-1.2-.1-2.8.5-3.5-.3-.7-.7-.2-2.3-.2-3.5.1-3.6.1-7.3.2-10.9z"/><path id="XMLID_16_" class="st2" d="M8.9 55.2V41.8c0-.8.2-1.1 1-1 .8.1 1.6.1 2.5 0 .9-.1 1.1.3 1.1 1.1v22.7c0 1 .3 1.2 1.2 1.2 2.3-.1 2.3 0 2.3 2.2 0 1.6 0 1.6-1.6 1.6H10c-.8 0-1.1-.2-1.1-1.1V55.2z"/><g id="XMLID_31_"><path id="XMLID_37_" class="st1" d="M75.9 66.5c-1.6-.3-3.2-.3-4.8.2-6 1.7-11.2 4.8-15.4 9.5-.4.4-.7 1-1.4 1.3 1-9.1 1.5-18 1.7-27.2.9.8 1.7 1.4 2.6 2.1-.1-2.2-.3-4.2-.4-6.3 2.3 1.9 3.2 5.1 6.7 5.4-1-2.7-1.9-5.4-2.8-8-.1-.3-.4-.4-.7-.4-3 .1-5.9-.7-8.8-1.2-1.1-.2-1.9-.3-2.4.9-.2.4-.6.6-1 .9-1.3 1.1-2.6 2.2-3.8 3.3-.7.6-1 1.4-1 2.4 0 .6.2.9.9.5 1.6-.9 3.1-1.7 4.7-2.5.3-.1.6-.5.9-.1 1.1 1.6 2.4 3 2.3 5.2-.2 5.3-.5 10.6-1.1 15.8-.2 1.7-.4 3.4-.7 5.4-2.3-4.5-4.9-8.3-7.8-12-3.4-4.3-7.5-7.2-13-8.2-1-.2-1.9-.2-2.9.1-.4.4-.3.9-.2 1.4.1.3.2.6.2.9 0 .6.2 1.3.2 1.9 0 .2 0 .5.1.7.1.3.1.7.1 1 0 .4 0 .7.1 1.1.3.8 0 1.7.6 2.4.1.9.4 1.8.9 2.6 1.8 3.2 4.1 6 6.5 8.8 2.1 2.5 4.7 4 7.8 4.8 1.8.5 3.6.8 5.4.9 1.6.1 1.7.1 1.6 1.8-.2 6.9-.8 13.7-1.5 20.6-.1 1 0 1.8.9 2.5.6.4 1.1.4 1.5 1.4h.4c.2-3 .3-5.3.5-8 .3-3.6.6-7.1.8-10.7.1-.9.5-1.4 1.5-1.4s1.9-.1 2.9-.2c4.8-.6 9.4-1.7 13.4-4.7 3.3-2.5 6.1-5.5 8-9.3.7-1.4 1.3-2.9 2.6-4-1.8-1.3-4-1.2-6.1-1.6zm-34.8 6.2c-.7-.3-1.3-.7-1.8-1.2-2.8-3-5.2-6.2-7.2-9.7-.8-1.5-1.1-3.1-1.3-5 1.1.6 2 1.2 2.7 2 3.3 3.2 5.9 7 7.8 11.2.3.7.4 1.5.5 2.3 0 .4-.3.5-.7.4zm15.7 7.2c5.8-5.8 12.3-10.1 20.8-10.6-3.7 7.1-12.2 12.7-20.8 10.6z"/></g><g id="XMLID_3_"><path id="XMLID_45_" class="st0" d="M85.3 26.9c-.5-2.9-1.6-5.6-2.9-8.3-1.1-2.3-2.7-4-4.8-5.3-1.9-1.1-3.9-2-5.9-3-5.5-2.9-11.3-2.5-17-1.5s-9.6 7-9 12.8c.1.5.1 1 .1 1.6 0 3.8 4.9 9.9 9 10.7 3.6.7 7.2.9 10.8.5 4.3-.5 7.5-6 5.8-10.1-1.3-3.2-3.4-5.6-6.9-6.6-.8-.2-1.6-.6-2.4-.8-4.6-1.5-9.1 1.5-9.5 6.4-.1 1.6 0 3.1.1 4.7-1.6-.5-3.3-3-3.2-5 .1-2.6.7-5.1 2.3-7.2 1.3-1.7 2.9-3 5-3.3 4.8-.8 8.9 1 13 3.1.4.2.7.6 1 .9 3 2.8 4.3 6.3 4.8 10.3.3 2.7-.7 4.7-2.6 6.3-2.5 2.2-5.5 3.2-8.7 3.6-2.5.3-5.1.3-7.6.2-2.9 0-5.5-.9-7.7-2.8-1.4-1.2-2.8-2.5-4.2-3.7-3-2.5-3.7-5.7-2.9-9.3.7-3.2 1.7-6.3 3.2-9.3.7-1.4 1.7-2.6 3.3-3.2 1.2-.4 2.3-1 3.5-1.4 7.5-2.5 14.8-3 21.7 1.6.2.1.4.3.7.2-1.6-2.1-3.3-4-5.8-5-2-.9-4-1.9-5.9-2.9-1.8-1-3.7-1.3-5.7-.9L44.3 2.9c-2.4.5-4.2 2.1-6 3.5-.5.4-.7 1-.9 1.7-1.1 3.2-1.5 6.5-1.8 9.9-.4 4.4.9 8.2 3.7 11.7 2.4 2.9 4.8 5.9 7.2 8.8.6.8 1.4 1.2 2.3 1.7 1.9.9 3.9 1.3 6 1.6 4.4.7 8.7 1.5 13.2.5 5-1 9.8-2.3 13.7-6 2.7-2.5 4.3-5.4 3.6-9.4zM63.4 28c1.9-1.7 2.1-3.4.5-5.4-.8-1-1.6-1.9-2.4-2.8 2.3-1 5.4.5 6.1 3.2.5 2 .4 4-.5 5.9-.8 1.8-2.2 2.8-4.2 3.1-1.3.2-2.5.1-4 0 1.6-1.5 3.1-2.7 4.5-4z"/></g><g id="XMLID_12_"><path id="XMLID_39_" class="st1" d="M104.3 64.3c0-2-.5-3.7-2.5-4.8 2.3-.8 2.6-2.5 2.5-4.5s0-4.1 0-6.1c0-3.2-1.4-4.5-4.6-4.5h-5.9c-.9 0-1.1.2-1.1 1.1v25.1c0 1-.4 2.4.2 3 .7.7 2 .1 3.1.2.9.1 1.2-.2 1.2-1.2-.1-3.5 0-6.9 0-10.4 0-1 .4-1.1 1.1-.9 1.1.2 1.7.9 1.7 2.3v9.2c0 .7.1 1.1 1 1 .8-.1 1.6-.1 2.5 0 .7 0 .9-.2.9-.9-.1-2.8-.1-5.7-.1-8.6zm-4.2-12.5v4.8c0 .5-.1 1-.6 1.2-.7.3-1.4.2-2.1.1-.3-.1-.2-.5-.2-.8v-7.9c0-.5-.2-1.2.8-1.2 1.4 0 2 .2 2 1.2.1.8 0 1.7.1 2.6z"/></g><g id="XMLID_5_"><path id="XMLID_41_" class="st1" d="M119 67.8c-1-8.4-1.9-16.7-2.9-25.1-.3-2.5-.2-2.3-2.8-2.3h-.3c-.6 0-1.1-.1-1.7-.2-.9-.1-1.2.1-1.3 1-.3 3.1-.7 6.1-1 9.2-.7 6.1-1.3 12.1-2 18.2-.1.6 0 .8.7.8.8 0 1.6-.1 2.3 0 .8.1.9-.3 1-1 .1-1.6.3-3.1.4-4.7 0-.7.3-1 1-.9h.9c.7-.1.9.2 1 .8 0 .9.2 1.9.2 2.8.2 2.8.2 2.8 3 2.8 1.7.1 1.6.1 1.5-1.4zm-6.2-8.8c-.4.1-.8.1-.8-.6.3-2.9.6-5.8.9-8.8 0-.1.1-.3.1-.4h.2c.2 3.1.5 6.1.7 9.2.1 1.1-.7.6-1.1.6z"/></g><g id="XMLID_4_"><path id="XMLID_43_" class="st1" d="M200.4 72.1c-.2-1.2-.3-2.4-.4-3.7-.9-7.9-1.8-15.9-2.7-23.8-.1-.6-.3-.7-.8-.7h-4c-.7 0-.9.2-1 .9-.9 8.5-1.8 16.9-2.7 25.4-.1 1-.7 2.3 0 2.8.6.5 1.9.1 2.9.2.6 0 .8-.2.8-.8l.3-3.9c.1-1.8.1-1.7 1.9-1.8.8 0 1 .3 1 1 0 1.2.2 2.3.3 3.4.2 2 .2 2 2.3 2h1.1c.9.2 1.1-.2 1-1zm-5.9-9.2c-.4-.1-1.1.4-1.1-.4.3-3.2.6-6.3.9-9.5h.2c.2 3.1.5 6.2.7 9.3.1.7-.3.7-.7.6z"/></g><g id="XMLID_1_"><path id="XMLID_34_" class="st1" d="M28.9 73.2c-.4-3.1-.7-6.2-1-9.3 0-1-.1-1.9-.2-2.9 0-.3-.1-.6-.1-.9-.1-.3-.1-.7-.1-1 0-.4-.1-.8-.1-1.2-.1-.5-.2-1-.2-1.6-.1-.3-.1-.7-.2-1.1 0-.8-.2-1.6-.4-2.3-.2-2.3-.5-4.6-.7-6.9-.1-.8-.3-1.3-1.3-1.2-1.1.1-2.2.1-3.2 0-1.2-.1-1.4.4-1.5 1.5-.6 6-1.3 11.9-1.9 17.8-.3 3-.6 6.1-1 9.1-.1.7.1.9.8.9.7-.1 1.3-.1 2 0 1 .1 1.2-.3 1.2-1.2.1-1.5.3-3 .4-4.4 0-.6.3-.8.9-.7 1.8.2 1.8.1 2 1.8.1.5.1 1 .1 1.4.2 3 .2 3 3.2 3.1h.6c.6 0 .8-.2.7-.9zM23 63.8c-.5-.1-1.2.4-1.1-.7.2-1.7.3-3.3.5-5 .2-1.6.3-3.2.4-4.8.5.1.2.4.2.7.2 3 .5 6.1.8 9.1.1.8-.4.7-.8.7z"/></g></svg>