<svg id="Livello_1" data-name="Livello 1" xmlns="http://www.w3.org/2000/svg" viewBox="0 0 672.43 234.67"><defs><style>.cls-1{fill:#536d85}.cls-2{fill:#cd634a}.cls-3{fill:#fbbe5e}</style></defs><title>logo-asbr-v2</title><path class="cls-1" d="M420.34 364.84l-1.93-12.33h-.55c-7.46 9.76-17.95 14.38-29.82 14.38-20.43 0-35.62-15.92-35.62-38.26 0-32.87 31.2-46.48 61.85-46.74v-2.82c0-9.76-6.35-16.95-19.05-16.95a53.39 53.39 0 0 0-27.61 7.19L361 246.72c7.46-4.11 23.19-9.5 42-9.5 41.14 0 47.77 26.71 47.77 52.13v46.74c0 10 .55 20.29 2.21 28.76zm-5-61.12c-12.15.26-28.72 3.85-28.72 21.31 0 12.58 7.46 17.2 13 17.2a15.59 15.59 0 0 0 14.91-10.79 20.46 20.46 0 0 0 .83-5.91zm62.43 30.82c5.25 3.08 15.19 6.68 24.3 6.68 9.39 0 14.63-3.85 14.63-11.3 0-6.42-3.87-10.53-15.74-16.95-22.09-11.56-27.34-24.65-27.34-36.21 0-22.6 17.4-39.55 44.46-39.55a67.51 67.51 0 0 1 27.34 5.65l-6.35 24.65a39.59 39.59 0 0 0-18.78-5.14c-9.11 0-13.53 5.14-13.53 10.79s3 8.73 15.74 15.66c19.88 10.53 27.34 23.62 27.34 38 0 25.68-19.88 39.54-47.77 39.54-11.32 0-24.58-2.82-30.93-7.19zm91.67 30.3c.55-11 1.1-25.17 1.1-37.23V187.14h36.17v64.71h.55c6.63-9 15.19-14.64 28.16-14.64 26.23 0 38.11 27.48 38.11 61.37 0 43.91-18.78 68.31-43.9 68.31-11.32 0-19.33-4.37-26.51-16.95h-.83l-1.93 14.89zm37.28-44.94a21 21 0 0 0 1.38 8c3 9 8 11.55 12.43 11.55 12.15 0 17.12-14.12 17.12-38.26 0-21.57-5.25-35.69-17.4-35.69-5.52 0-10.22 5.39-12.15 11.56a23.89 23.89 0 0 0-1.38 7.7zm89.74-42.9c0-12.58-.55-26.19-1.1-37.75h31.48l1.93 18.23h.83c6.07-13.35 16.84-20.29 26.78-20.29a32.71 32.71 0 0 1 7.73.51v33.38a35.16 35.16 0 0 0-7.73-.51c-7.73 0-17.95 4.88-22.09 18a47.55 47.55 0 0 0-1.38 12.58v63.68h-36.45z" transform="translate(-94.72 -187.14)"/><path class="cls-2" d="M353.24 405.72l-1.94 8.09h-3.19l6.63-27h3.66l6.46 27h-3.27l-1.94-8.09zm6-2.48l-1.51-6.85c-.43-1.92-.82-4.16-1.16-6.17h-.17c-.34 2-.77 4.36-1.16 6.17l-1.51 6.85zm7.76 8.69l6.59-12c.56-1 1.21-2 1.68-2.88V397h-7.45v-2.56h11.08v2l-6.5 11.81c-.56 1-1.21 2-1.68 2.88v.08h8.18v2.56H367zm19-22.5a2 2 0 1 1-3.92 0 1.91 1.91 0 0 1 1.94-2 1.87 1.87 0 0 1 1.98 2zm-3.57 24.38v-19.38h3.32v19.38zm10.67-9.41c0 5.93 2.54 7.21 5 7.21a7.42 7.42 0 0 0 3.44-.76l.52 2.28a10.7 10.7 0 0 1-4.56.92c-5 0-7.58-3.8-7.58-9.73 0-6.29 2.84-10.21 7-10.21s5.94 4.16 5.94 8.57v1.72zm6.55-2.28c.09-3.88-1.51-5.61-3.1-5.61-2.15 0-3.27 3-3.4 5.61zm7.14-2.68c0-2.28-.13-3.44-.17-5h2.89l.17 2.32h.09a5.36 5.36 0 0 1 4.78-2.64c2.88 0 5 2 5 6.69v13h-3.32v-12.49c0-2.28-.47-4.6-2.89-4.6-1.38 0-2.71 1.08-3.14 3.16a10.16 10.16 0 0 0-.13 1.72v12.21h-3.32zm30.36-13.34v23.06c0 1.32.13 3.52.17 4.64h-2.84l-.22-2.44h-.13a4.8 4.8 0 0 1-4.35 2.76c-3.53 0-6.07-3.56-6.07-9.93 0-6.89 3.06-10.09 6.29-10.09a4.07 4.07 0 0 1 3.79 2.32h.09V386.1zm-3.27 15.7v-1.28c-.21-2-1.51-3.76-3.1-3.76-2.76 0-3.7 3.56-3.7 7.45 0 4.08 1.12 7.37 3.53 7.37 1 0 2.45-.52 3.19-3.32a5.67 5.67 0 0 0 .13-1.28zm16.53 12.01l-.22-2h-.13a4.73 4.73 0 0 1-4.13 2.36c-2.8 0-5-2.2-5-5.53 0-4.84 4.18-7 8.87-7V401c0-2.6-.69-4.4-3.32-4.4a6.62 6.62 0 0 0-3.45 1l-.73-2.16a9.48 9.48 0 0 1 4.87-1.28c4.18 0 6 2.56 6 6.93v8.37a28.5 28.5 0 0 0 .22 4.4zm-.47-10c-1.72 0-5.73.28-5.73 4.48 0 2.52 1.38 3.44 2.54 3.44a3.21 3.21 0 0 0 3.1-2.92 4.78 4.78 0 0 0 .09-1.08zm15.06 6.44a9 9 0 0 0 4.18 1.08c3 0 4.82-1.84 4.82-4.56 0-2.48-1.55-4-3.83-5.61s-5.47-4-5.47-7.49c0-4.08 3.06-7.09 7.66-7.09a8 8 0 0 1 4.09 1l-.82 2.64a6.4 6.4 0 0 0-3.44-.92 3.86 3.86 0 0 0-4.18 3.84c0 2.68 1.51 3.72 4.26 5.57 3.49 2.28 5 4.76 5 7.77 0 4.64-3.53 7.57-8.14 7.57a10.36 10.36 0 0 1-4.91-1.16zm18.64-5.85c0 5.93 2.54 7.21 5 7.21a7.42 7.42 0 0 0 3.44-.76l.52 2.28a10.71 10.71 0 0 1-4.6.87c-5 0-7.58-3.8-7.58-9.73 0-6.29 2.84-10.21 7-10.21s5.94 4.16 5.94 8.57v1.72zm6.54-2.28c.09-3.88-1.51-5.61-3.1-5.61-2.15 0-3.27 3-3.4 5.61zm7.11-2.68c0-1.64-.13-3.56-.17-5h3l.17 3h.09a5 5 0 0 1 4.39-3.36h.69v3.16a3.84 3.84 0 0 0-.69 0c-2.11 0-3.66 1.8-4 4a11 11 0 0 0-.13 1.76v10.73h-3.32zm12.79-5.01l2.63 10.89c.3 1.32.65 3 .9 4.72h.13c.21-1.6.56-3.24.86-4.72l2.58-10.89h3.27L515 413.81h-3l-5.43-19.38zm17.22-5a2 2 0 1 1-3.92 0 1.91 1.91 0 0 1 1.94-2 1.87 1.87 0 0 1 1.98 2zm-3.57 24.38v-19.38H527v19.38zm6.67-1.88L537 400c.56-1 1.21-2 1.68-2.88V397h-7.45v-2.56h11.11v2l-6.5 11.81c-.56 1-1.21 2-1.68 2.88v.08h8.18v2.56H530.4zm19.07-22.5a2 2 0 1 1-3.92 0 1.91 1.91 0 0 1 1.94-2 1.87 1.87 0 0 1 1.98 2zm-3.57 24.38v-19.38h3.32v19.38zm15.71-26.59a21.61 21.61 0 0 1 4.87-.52c2.63 0 4.87.52 6.42 1.88a5.87 5.87 0 0 1 1.89 4.61 6.27 6.27 0 0 1-4.48 6v.08a6.73 6.73 0 0 1 5.38 6.89 7.44 7.44 0 0 1-2.07 5.37C572 413.25 569.27 414 566 414a25.24 25.24 0 0 1-4.35-.28zm3.32 11.05h1.51a4.82 4.82 0 0 0 5-4.76c0-2.48-1.25-4.4-4.78-4.4a6.37 6.37 0 0 0-1.77.2zm0 13.09a8.27 8.27 0 0 0 1.68.16c3.45 0 5.68-1.88 5.68-5.37 0-3.72-2.8-5.49-5.9-5.53h-1.46zm22.94 2.45l-.22-2h-.13a4.73 4.73 0 0 1-4.13 2.36c-2.8 0-5-2.2-5-5.53 0-4.84 4.18-7 8.87-7V401c0-2.6-.69-4.4-3.32-4.4a6.62 6.62 0 0 0-3.45 1l-.73-2.16a9.48 9.48 0 0 1 4.87-1.28c4.18 0 6 2.56 6 6.93v8.37a28.5 28.5 0 0 0 .22 4.4zm-.47-10c-1.72 0-5.73.28-5.73 4.48 0 2.52 1.38 3.44 2.54 3.44a3.21 3.21 0 0 0 3.1-2.92 4.78 4.78 0 0 0 .09-1.08zm7.75 6.8a6.92 6.92 0 0 0 3.36 1c1.89 0 3.06-1.08 3.06-2.8 0-1.48-.56-2.48-2.67-3.8-2.71-1.64-4.18-3.28-4.18-5.53a5.41 5.41 0 0 1 5.73-5.37 7.57 7.57 0 0 1 3.75 1l-.9 2.32a5.15 5.15 0 0 0-2.76-.84 2.47 2.47 0 0 0-2.71 2.44c0 1.32.52 2 2.58 3.36 2.41 1.44 4.31 3.2 4.31 5.88 0 3.88-2.84 5.77-6.24 5.77a7.51 7.51 0 0 1-4.13-1.12zm12.85 0a6.92 6.92 0 0 0 3.36 1c1.89 0 3.06-1.08 3.06-2.8 0-1.48-.56-2.48-2.67-3.8-2.71-1.64-4.18-3.28-4.18-5.53a5.41 5.41 0 0 1 5.73-5.37 7.57 7.57 0 0 1 3.75 1l-.9 2.32a5.15 5.15 0 0 0-2.76-.84 2.47 2.47 0 0 0-2.71 2.44c0 1.32.52 2 2.58 3.36 2.41 1.44 4.31 3.2 4.31 5.88 0 3.88-2.84 5.77-6.24 5.77a7.51 7.51 0 0 1-4.13-1.12zm21.59 3.2l-.21-2h-.13a4.73 4.73 0 0 1-4.13 2.36c-2.8 0-5-2.2-5-5.53 0-4.84 4.18-7 8.87-7V401c0-2.6-.69-4.4-3.32-4.4a6.62 6.62 0 0 0-3.45 1l-.73-2.16a9.48 9.48 0 0 1 4.87-1.28c4.18 0 6 2.56 6 6.93v8.37a28.5 28.5 0 0 0 .22 4.4zm-.47-10c-1.72 0-5.73.28-5.73 4.48 0 2.52 1.38 3.44 2.54 3.44a3.21 3.21 0 0 0 3.1-2.92 4.78 4.78 0 0 0 .09-1.08zm15.71-16.59a20.3 20.3 0 0 1 4.78-.52c2.88 0 5 .56 6.54 1.92a7.64 7.64 0 0 1-2.63 12.21v.08c2.15.6 3.27 2.52 3.92 6a35.87 35.87 0 0 0 1.64 6.85h-3.36a32.86 32.86 0 0 1-1.55-6.69c-.65-3.68-1.89-5.09-4.74-5.09h-1.29v11.77h-3.32zm3.32 12.45h1.38a5.05 5.05 0 0 0 5.3-5.41c0-3.12-1.38-5-5-5.08a7.07 7.07 0 0 0-1.72.16zm16.74 4.73c0 5.93 2.54 7.21 5 7.21a7.42 7.42 0 0 0 3.44-.76l.52 2.28a10.71 10.71 0 0 1-4.56.92c-5 0-7.58-3.8-7.58-9.73 0-6.29 2.84-10.21 7-10.21s5.94 4.16 5.94 8.57v1.72zm6.54-2.28c.09-3.88-1.51-5.61-3.1-5.61-2.15 0-3.27 3-3.4 5.61zm19.9-7.69c0 1.36-.17 3.08-.17 6v10.85c0 5.09-.69 7-2.07 8.41a7.53 7.53 0 0 1-5.55 2.08 10.55 10.55 0 0 1-4.56-1l.78-2.4a9.05 9.05 0 0 0 3.88.84c2.63 0 4.26-1.52 4.26-5.93v-2h-.09a4.27 4.27 0 0 1-4 2.36c-3.7 0-6.11-3.88-6.11-9.57 0-7.13 3.49-10.09 6.54-10.09a4.13 4.13 0 0 1 3.88 2.52h.09l.17-2.2zm-3.45 6.69a4.85 4.85 0 0 0-.17-1.4c-.39-1.32-1.12-3-3-3-2.41 0-3.7 3-3.7 7.29 0 5 1.68 7.21 3.7 7.21 1 0 2.28-.44 3-2.76a6.37 6.37 0 0 0 .21-1.76zm21.01-6.69c0 1.36-.17 3.08-.17 6v10.85c0 5.09-.69 7-2.07 8.41a7.53 7.53 0 0 1-5.55 2.08 10.55 10.55 0 0 1-4.56-1l.78-2.4a9.05 9.05 0 0 0 3.88.84c2.63 0 4.26-1.52 4.26-5.93v-2h-.09a4.27 4.27 0 0 1-4 2.36c-3.7 0-6.11-3.88-6.11-9.57 0-7.13 3.49-10.09 6.54-10.09a4.13 4.13 0 0 1 3.88 2.52h.09l.17-2.2zm-3.45 6.69a4.85 4.85 0 0 0-.17-1.4c-.39-1.32-1.12-3-3-3-2.41 0-3.7 3-3.7 7.29 0 5 1.68 7.21 3.7 7.21 1 0 2.28-.44 3-2.76a6.37 6.37 0 0 0 .21-1.76zm11.85-11.69a2 2 0 1 1-3.92 0 1.91 1.91 0 0 1 1.94-2 1.87 1.87 0 0 1 1.98 2zm-3.57 24.38v-19.38H717v19.38zm16.53 0l-.21-2h-.13a4.73 4.73 0 0 1-4.13 2.36c-2.8 0-5-2.2-5-5.53 0-4.84 4.18-7 8.87-7V401c0-2.6-.69-4.4-3.32-4.4a6.62 6.62 0 0 0-3.45 1l-.73-2.16a9.48 9.48 0 0 1 4.87-1.28c4.18 0 6 2.56 6 6.93v8.37a28.5 28.5 0 0 0 .22 4.4zm-.47-10c-1.72 0-5.73.28-5.73 4.48 0 2.52 1.38 3.44 2.54 3.44a3.21 3.21 0 0 0 3.1-2.92 4.78 4.78 0 0 0 .09-1.08zm8.3-4.37c0-2.28-.13-3.44-.17-5h2.88l.17 2.32h.09a5.35 5.35 0 0 1 4.78-2.64c2.88 0 5 2 5 6.69v13h-3.32v-12.49c0-2.28-.47-4.6-2.89-4.6-1.38 0-2.71 1.08-3.14 3.16a10.05 10.05 0 0 0-.13 1.72v12.21h-3.32zm26.05 14.37l-.21-2h-.13a4.73 4.73 0 0 1-4.13 2.36c-2.8 0-5-2.2-5-5.53 0-4.84 4.18-7 8.87-7V401c0-2.6-.69-4.4-3.32-4.4a6.62 6.62 0 0 0-3.45 1l-.73-2.16a9.48 9.48 0 0 1 4.87-1.28c4.18 0 6 2.56 6 6.93v8.37a28.5 28.5 0 0 0 .22 4.4zm-.47-10c-1.72 0-5.73.28-5.73 4.48 0 2.52 1.38 3.44 2.54 3.44a3.21 3.21 0 0 0 3.1-2.92 4.78 4.78 0 0 0 .09-1.08z" transform="translate(-94.72 -187.14)"/><path class="cls-1" d="M132.18 379.26a37.47 37.47 0 1 0-37.47-37.46 37.47 37.47 0 0 0 37.47 37.46" transform="translate(-94.72 -187.14)"/><path class="cls-3" d="M178.75 341.79a54.61 54.61 0 1 0-54.62-54.6 54.61 54.61 0 0 0 54.62 54.6" transform="translate(-94.72 -187.14)"/><path class="cls-2" d="M276.84 360.86a38.73 38.73 0 1 0-38.73-38.72 38.72 38.72 0 0 0 38.73 38.72" transform="translate(-94.72 -187.14)"/></svg>