<svg xmlns="http://www.w3.org/2000/svg" xmlns:xlink="http://www.w3.org/1999/xlink" width="252.279" height="167.249" viewBox="0 0 252.2792969 167.2490234"><defs><path id="a" d="M0 0h252.279v167.249H0z"/></defs><clipPath id="b"><use xlink:href="#a" overflow="visible"/></clipPath><path clip-path="url(#b)" d="M49.529 91.152c.772 2.723 2.09 4.082 3.983 4.082 1.737 0 2.607-.872 2.622-2.622 0-.589-.296-1.11-.87-1.57a8.622 8.622 0 0 0-2.088-1.233 29.474 29.474 0 0 1-2.483-1.236 6.266 6.266 0 0 1-2.117-1.962c-.576-.842-.855-1.851-.855-3.043 0-1.528.519-2.818 1.557-3.87 1.05-1.05 2.355-1.585 3.926-1.585 2.72 0 4.652 1.22 5.805 3.646l-3.015 1.923c-.73-1.417-1.656-2.131-2.79-2.12-1.108 0-1.923.775-1.923 1.84 0 .628.296 1.192.885 1.681a9.982 9.982 0 0 0 2.145 1.304 37.58 37.58 0 0 1 2.509 1.261 6.597 6.597 0 0 1 2.147 1.894c.601.798.897 1.767.897 2.873 0 1.947-.59 3.494-1.754 4.599-1.163 1.107-2.733 1.653-4.682 1.653-1.753 0-3.268-.532-4.53-1.611-1.263-1.08-2.062-2.427-2.382-4.01l3.013-1.894zm16.469-12.814h3.745v20.106h-3.745zm10.61 0H80.8l4.739 12.549 4.739-12.549h4.192v20.106h-3.73V86.035L86.9 96.606h-2.706l-3.842-10.57v12.408h-3.743zm23.744 10.066c0-2.245.449-4.161 1.332-5.748.899-1.587 2.049-2.746 3.437-3.463 1.401-.715 2.972-1.08 4.712-1.08 1.75 0 3.322.365 4.71 1.08 1.4.717 2.55 1.876 3.436 3.463.882 1.587 1.332 3.503 1.332 5.748 0 2.23-.45 4.152-1.332 5.736-.885 1.586-2.035 2.748-3.436 3.464-1.388.715-2.96 1.063-4.71 1.063-1.74 0-3.311-.348-4.712-1.063-1.388-.716-2.538-1.878-3.437-3.464-.883-1.584-1.332-3.505-1.332-5.736m3.802 0c0 2.257.532 3.954 1.613 5.104 1.08 1.15 2.44 1.726 4.066 1.726 1.625 0 2.985-.577 4.066-1.726 1.079-1.15 1.626-2.847 1.626-5.104 0-2.255-.547-3.97-1.626-5.116-1.081-1.15-2.441-1.725-4.066-1.725-1.627 0-2.986.576-4.066 1.725-1.081 1.147-1.613 2.861-1.613 5.116m20.199-10.066h3.938l7.377 13.278V78.338h3.73v20.106h-3.926l-7.374-13.262v13.262h-3.745zm26.733.001h3.727l6.802 20.104h-4.01l-1.472-4.738h-6.38l-1.46 4.738h-4.022l6.815-20.104zm3.982 11.917l-2.118-6.968-2.13 6.968h4.248zm9.697 6.464l8.706-14.93h-8.217v-3.452h13.334v1.724l-8.622 14.932h9.015v3.45h-14.216zm18.165 0l8.708-14.93h-8.218v-3.452h13.336v1.724l-8.623 14.932h9.014v3.45H182.93zm19.091-18.382h3.741v20.106h-3.741z"/><path clip-path="url(#b)" fill="#E2001A" d="M113.256 31.113c-7.623 8.28-12.492 17.575-14.99 27.71 4.84.078 9.856.093 14.838.308-9.29 2.496-17.539 7.853-20.998 15.509 1.54.143 4.61-3.248 6.19-4.304a47.385 47.385 0 0 1 7.808-4.2c5.665-2.408 12.06-3.612 18.416-3.657 8.027-.056 15.72 1.771 22.384 5.119a57.705 57.705 0 0 1 10.718 8.048h1.927a35.098 35.098 0 0 0-1.411-1.992c-1.178-3.59-9.286-9.383-11.381-10.567-2.627-1.547-5.522-2.766-8.559-3.666-10.47-4.142-22.684-5.653-34.088-4.49"/><text transform="translate(85.687 108.953)"><tspan x="0" y="0" font-family="'Akkurat-Regular'" font-size="7.686">M</tspan><tspan x="6.11" y="0" font-family="'Akkurat-Regular'" font-size="7.686">OT</tspan><tspan x="14.688" y="0" font-family="'Akkurat-Regular'" font-size="7.686">OR</tspan><tspan x="23.981" y="0" font-family="'Akkurat-Regular'" font-size="7.686">CY</tspan><tspan x="32.059" y="0" font-family="'Akkurat-Regular'" font-size="7.686">CL</tspan><tspan x="40.006" y="0" font-family="'Akkurat-Regular'" font-size="7.686">E</tspan><tspan x="43.711" y="0" font-family="'Akkurat-Regular'" font-size="7.686"> </tspan><tspan x="45.271" y="0" font-family="'Akkurat-Regular'" font-size="7.686">&amp;</tspan><tspan x="49.845" y="0" font-family="'Akkurat-Regular'" font-size="7.686"> </tspan><tspan x="52.965" y="0" font-family="'Akkurat-Regular'" font-size="7.686">B</tspan><tspan x="57.054" y="0" font-family="'Akkurat-Regular'" font-size="7.686">IK</tspan><tspan x="62.919" y="0" font-family="'Akkurat-Regular'" font-size="7.686">E</tspan><tspan x="66.585" y="0" font-family="'Akkurat-Regular'" font-size="7.686">S</tspan></text></svg>