<svg xmlns="http://www.w3.org/2000/svg" viewBox="0 0 504.1 133.7"><g fill="#DD5326"><path d="M130.6 93.9l32.8-.1c16.4 0 18.3-4.7 18.3-8.2 0-1.6-.4-2.9-1.3-4-1-1.2-2.4-2.3-4.1-3.2-1.8-1-4-1.9-6.5-2.7-2.4-.8-5.1-1.6-8.3-2.6-4.1-1.3-7.9-2.6-11-3.9-3.2-1.3-6-2.9-8.2-4.6-1.1-.8-2-1.8-2.9-2.7.1 1.7.2 3.5.2 5.4 0 11.8-1.3 18.8-8.4 26.2-.2 0-.3.2-.6.4zM101.4 40c-7.6 0-13.4 2.3-18.1 7.3-4.9 5.2-7.4 11.9-7.4 19.9 0 7.8 2.6 14.6 7.5 19.6 4.8 4.9 10.5 7.2 18 7.2 8 0 14.7-2.5 18.8-7 4.2-4.5 6.2-11 6.2-19.8 0-8.9-2.1-15.7-6.2-20.2-4.1-4.6-10.6-7-18.8-7zm-63.7.1c-2.7 0-5.1.2-7.2.7-2.1.5-3.9 1.1-5.4 1.9-1.4.8-2.5 1.7-3.2 2.8-.7 1-1 2.1-1 3.3 0 1.6.3 2.9 1.1 3.9.8 1.1 1.9 2.1 3.4 3 1.6.9 3.6 1.8 5.9 2.6 2.7.9 5.5 1.8 8.3 2.6 4.1 1.2 7.9 2.5 11.2 3.9 3.4 1.3 6.3 2.9 8.7 4.6 1.4 1 2.7 2.1 3.8 3.4-.2-1.8-.3-3.7-.3-5.7 0-11 3-19.9 9-27H37.7z"/><path d="M202 27.3l.1-27.3L0 14.2v79.5l34.7.2c12.1 0 18.2-2.9 18.2-8.8 0-1.6-.4-2.9-1.3-4-1-1.2-2.4-2.3-4.1-3.2-1.8-1-4-1.9-6.5-2.7-2.4-.8-5.1-1.6-8.3-2.6-4.2-1.3-7.9-2.6-11-3.9-3.2-1.3-6-2.9-8.2-4.6-2.3-1.8-4-3.8-5.2-6.1-1.2-2.3-1.8-5-1.8-8 0-3.7 1.1-7.1 3.3-10 2.1-2.8 5-5.2 8.5-7 3.5-1.8 7.4-3.2 11.8-4.2 4.4-.9 8.9-1.4 13.6-1.4l58.9-.1c11.5 0 20.7 3.5 27.2 10.5 2.3 2.5 4.3 5.5 5.8 8.9.5-2.7 1.5-5.1 2.9-7 2.1-2.8 5-5.2 8.5-7 3.5-1.8 7.4-3.2 11.8-4.2 4.6-1 9.2-1.1 13.5-1.1H202z"/><path d="M0 106.6v27.1l202.1-14.6-.1-79h-37.2c-2.7 0-5.4 0-7.5.5-2.1.5-3.2.9-4.7 1.8-1.4.8-2.5 1.7-3.2 2.8-.6.9-.9 2.7-.9 4.1 0 1.6.3 2.9 1.1 3.9.8 1.1 1.9 2.1 3.4 3 1.6 1 3.6 1.8 5.9 2.6 2.7.9 5.5 1.8 8.3 2.6 4.1 1.2 7.9 2.5 11.2 3.9 3.4 1.3 6.3 2.9 8.7 4.6 2.5 1.8 4.4 3.8 5.8 6.1 1.4 2.3 2.1 5.2 2.1 8.4 0 3.9-1.1 7.4-3.4 10.3-2.2 2.8-5.1 5.2-8.7 7-3.5 1.8-7.6 3.2-12.2 4.1-4.6.9-10 .9-14.8.9H101c-11.4 0-20.7-3.6-27.5-10.7-2.6-2.7-4.7-5.8-6.4-9.2-.4 2.8-1.5 5.4-3.2 7.6-2.2 2.8-5.1 5.2-8.7 7-3.5 1.8-7.6 3.2-12.2 4.1-4.5.9-9.3 1.3-14.2 1.3L0 106.6z"/></g><path fill="#828487" d="M237 51.4c0 1.5-.3 2.9-.8 4-.6 1.2-1.3 2.1-2.3 2.9-1 .8-2.1 1.4-3.4 1.7-1.3.4-2.7.6-4.1.6-1 0-1.9-.1-2.8-.2-.9-.2-1.6-.4-2.3-.6-.7-.2-1.2-.5-1.6-.7-.4-.3-.8-.5-.9-.7-.2-.2-.3-.5-.4-.8-.1-.4-.1-.9-.1-1.6v-1.2c0-.3.1-.6.1-.8.1-.2.2-.3.3-.4.1-.1.2-.1.4-.1s.5.1.9.4c.4.2.9.5 1.5.8.6.3 1.3.6 2.1.8.8.2 1.8.4 2.8.4.7 0 1.3-.1 1.9-.3.6-.2 1-.4 1.4-.7.4-.3.7-.7.9-1.2.2-.5.3-1 .3-1.6 0-.7-.2-1.2-.5-1.7-.4-.5-.8-.9-1.4-1.3-.6-.4-1.2-.7-1.9-1-.7-.3-1.5-.7-2.2-1-.8-.4-1.5-.8-2.2-1.2-.7-.5-1.4-1-1.9-1.6-.6-.6-1-1.4-1.4-2.3-.4-.9-.5-1.9-.5-3.1 0-1.4.3-2.6.8-3.7s1.2-1.9 2.1-2.6c.9-.7 1.9-1.2 3.1-1.6 1.2-.3 2.4-.5 3.7-.5.7 0 1.4.1 2 .2.7.1 1.3.2 1.9.4.6.2 1.1.4 1.6.6.5.2.8.4.9.6.1.1.2.3.3.4.1.1.1.2.1.4s.1.4.1.7v2.1c0 .3-.1.5-.1.7-.1.2-.1.3-.2.4-.1.1-.2.1-.4.1s-.4-.1-.8-.3c-.4-.2-.8-.4-1.3-.7-.5-.2-1.1-.5-1.8-.7-.7-.2-1.4-.3-2.2-.3-.6 0-1.2.1-1.7.2-.5.2-.9.4-1.2.7-.3.3-.6.6-.7 1-.2.4-.2.8-.2 1.2 0 .6.2 1.2.5 1.7s.8.9 1.4 1.3c.6.4 1.2.7 2 1 .7.3 1.5.7 2.3 1 .8.4 1.5.8 2.3 1.2.7.5 1.4 1 2 1.6.6.6 1 1.4 1.4 2.2.1 1 .2 2 .2 3.2zm21.6 4.3v1c0 .3-.1.5-.1.7 0 .2-.1.3-.2.5-.1.1-.2.3-.4.5s-.5.4-.9.7c-.5.3-1 .5-1.7.8-.7.2-1.4.5-2.3.6-.9.2-1.8.2-2.8.2-2 0-3.7-.3-5.3-.9-1.6-.6-2.9-1.5-4-2.8-1.1-1.2-2-2.7-2.5-4.6-.6-1.8-.9-4-.9-6.4 0-2.5.3-4.7 1-6.6.7-1.9 1.6-3.5 2.7-4.8 1.2-1.3 2.6-2.3 4.2-3 1.6-.7 3.4-1 5.4-1 .8 0 1.6.1 2.3.2.7.1 1.4.3 2 .5.6.2 1.2.5 1.7.8.5.3.9.5 1.1.7.2.2.3.4.4.5.1.1.1.3.2.5 0 .2.1.5.1.7v2.2c0 .3-.1.6-.2.8-.1.2-.2.3-.3.4-.1.1-.2.1-.4.1s-.5-.1-.8-.4c-.3-.3-.8-.6-1.3-.9-.5-.3-1.2-.6-1.9-.9-.7-.3-1.6-.4-2.7-.4s-2.2.2-3 .7c-.9.5-1.7 1.1-2.3 2-.6.9-1.1 1.9-1.4 3.2-.3 1.2-.5 2.6-.5 4.2 0 1.7.2 3.2.5 4.4.3 1.3.8 2.3 1.5 3.1.6.8 1.4 1.4 2.3 1.8.9.4 1.9.6 3.1.6 1 0 1.9-.1 2.7-.4.8-.2 1.4-.5 1.9-.8.5-.3 1-.6 1.3-.8.3-.2.6-.4.8-.4.1 0 .3 0 .4.1.1.1.2.2.2.4.1.2.1.4.1.8v1.4zm24.9-6.4c0 1.8-.3 3.4-.8 4.8s-1.3 2.6-2.3 3.6c-1 1-2.2 1.7-3.7 2.2-1.5.5-3.2.8-5.1.8-1.8 0-3.4-.2-4.9-.7-1.4-.5-2.6-1.1-3.6-2.1-1-.9-1.7-2.1-2.3-3.5-.5-1.4-.8-3-.8-4.9V31.8c0-.1 0-.3.1-.4.1-.1.2-.2.5-.3.2-.1.5-.1.9-.2.4 0 .8-.1 1.4-.1.6 0 1 0 1.4.1.4 0 .7.1.9.2.2.1.4.2.5.3.1.1.1.3.1.4V49c0 1.2.1 2.2.4 3 .3.8.7 1.5 1.2 2.1.5.6 1.2 1 1.9 1.2.7.3 1.5.4 2.4.4.9 0 1.7-.1 2.5-.4.7-.3 1.3-.7 1.8-1.2s.9-1.2 1.2-2c.3-.8.4-1.7.4-2.7V31.8c0-.1 0-.3.1-.4.1-.1.2-.2.5-.3.2-.1.5-.1.9-.2.4 0 .8-.1 1.4-.1.6 0 1 0 1.4.1.4 0 .7.1.9.2.2.1.4.2.5.3.1.1.1.3.1.4v17.5zm29.3-4.1c0 2.4-.3 4.6-.9 6.5-.6 1.9-1.5 3.5-2.6 4.8-1.2 1.3-2.6 2.3-4.3 3-1.7.7-3.7 1-6 1-2.2 0-4.2-.3-5.8-.9-1.7-.6-3-1.5-4.2-2.7-1.1-1.2-1.9-2.8-2.5-4.6-.6-1.9-.8-4.1-.8-6.7 0-2.4.3-4.5.9-6.3.6-1.9 1.5-3.5 2.6-4.8 1.2-1.3 2.6-2.3 4.3-3 1.7-.7 3.7-1.1 6-1.1 2.2 0 4.1.3 5.8.9 1.7.6 3.1 1.5 4.2 2.7 1.1 1.2 2 2.7 2.5 4.6.5 1.9.8 4.1.8 6.6zm-6.1.3c0-1.5-.1-2.9-.4-4.2-.2-1.3-.6-2.3-1.2-3.2-.6-.9-1.3-1.6-2.3-2.1-.9-.5-2.1-.7-3.5-.7s-2.6.3-3.6.8-1.7 1.3-2.3 2.2c-.6.9-1 2-1.3 3.2-.2 1.2-.4 2.5-.4 3.9 0 1.6.1 3 .4 4.3.2 1.3.6 2.3 1.2 3.2.6.9 1.3 1.6 2.3 2.1.9.5 2.1.7 3.6.7 1.4 0 2.6-.3 3.6-.8s1.7-1.3 2.3-2.2c.6-.9 1-2 1.3-3.2.2-1.3.3-2.6.3-4zm24 12.1c0 .4 0 .8-.1 1.1 0 .3-.1.6-.2.8-.1.2-.2.3-.3.4-.1.1-.2.1-.4.1h-13.1c-.5 0-.9-.1-1.2-.4-.3-.3-.5-.8-.5-1.4V31.8c0-.1 0-.3.1-.4.1-.1.3-.2.5-.3.2-.1.5-.1.9-.2.4 0 .8-.1 1.4-.1.6 0 1 0 1.4.1.4 0 .7.1.9.2.2.1.4.2.5.3.1.1.1.3.1.4v23.4h9c.1 0 .3 0 .4.1.1.1.2.2.3.4.1.2.1.4.2.7.1.4.1.8.1 1.2zm26.5.3c.2.5.3 1 .3 1.3 0 .3 0 .6-.2.7-.2.2-.5.3-.9.3s-1 .1-1.7.1h-1.8c-.4 0-.7-.1-1-.1-.2-.1-.4-.2-.5-.3-.1-.1-.2-.3-.2-.5l-1.9-5.8h-10.8l-1.8 5.7c-.1.2-.1.4-.2.5-.1.1-.3.3-.5.3-.2.1-.5.1-.9.2h-1.5c-.7 0-1.2 0-1.6-.1-.4 0-.7-.2-.8-.3-.1-.2-.2-.4-.2-.7 0-.3.2-.7.3-1.3l8.8-25.8c.1-.3.2-.5.3-.6.1-.2.3-.3.6-.4.3-.1.6-.1 1.1-.2h3.9c.5 0 .9.1 1.2.2.3.1.5.2.6.4.1.2.2.4.3.7l9.1 25.7zM344 36.6l-4 12.3h8.1L344 36.6z"/><path fill="#DD5326" d="M383.2 45.2c0 2.4-.3 4.5-.8 6.4-.5 1.9-1.4 3.5-2.4 4.8-1.1 1.3-2.5 2.3-4.1 3.1-1.6.7-3.6 1.1-5.7 1.1-2.2 0-4-.3-5.6-1-1.6-.7-2.9-1.6-3.9-2.8-1-1.2-1.8-2.8-2.3-4.6-.5-1.8-.8-4-.8-6.4 0-2.3.3-4.4.8-6.2.5-1.9 1.4-3.5 2.5-4.8 1.1-1.3 2.5-2.3 4.1-3 1.6-.7 3.6-1.1 5.7-1.1s4 .3 5.5 1c1.6.6 2.9 1.6 3.9 2.8 1 1.2 1.8 2.8 2.3 4.6.6 1.7.8 3.8.8 6.1zm-4 .3c0-1.6-.1-3.2-.4-4.6-.3-1.4-.8-2.6-1.4-3.7-.7-1-1.6-1.9-2.7-2.4-1.1-.6-2.5-.9-4.2-.9-1.7 0-3 .3-4.2.9-1.1.6-2 1.5-2.7 2.5-.7 1-1.2 2.3-1.5 3.7-.3 1.4-.5 2.9-.5 4.4 0 1.7.1 3.3.4 4.7.3 1.4.8 2.7 1.4 3.7.7 1 1.6 1.9 2.7 2.4 1.1.6 2.5.9 4.2.9 1.7 0 3.1-.3 4.2-.9 1.1-.6 2.1-1.5 2.7-2.6.7-1.1 1.2-2.3 1.5-3.7.3-1.3.5-2.8.5-4.4zm29 13c0 .3-.1.6-.1.8-.1.2-.2.4-.4.5-.2.1-.3.2-.5.3-.2.1-.4.1-.6.1h-1.3c-.4 0-.7 0-1-.1-.3-.1-.6-.2-.8-.4-.3-.2-.5-.5-.8-.9-.3-.4-.6-.9-.9-1.4L393 40.7c-.5-.9-.9-1.7-1.4-2.7-.5-.9-.9-1.8-1.3-2.7 0 1.1.1 2.2.1 3.3v20.9c0 .1 0 .2-.1.3-.1.1-.2.2-.3.2-.1.1-.3.1-.6.1-.2 0-.5.1-.9.1s-.7 0-.9-.1c-.2 0-.4-.1-.6-.1-.1-.1-.2-.1-.3-.2-.1-.1-.1-.2-.1-.3V32.7c0-.6.2-1 .5-1.3.3-.3.7-.4 1.1-.4h1.9c.4 0 .8 0 1.1.1.3.1.6.2.8.4.2.2.5.4.7.7.2.3.5.7.7 1.2l6.7 12.8c.4.8.8 1.5 1.2 2.3.4.7.8 1.5 1.1 2.2.4.7.7 1.4 1.1 2.1.3.7.7 1.4 1 2.1 0-1.2 0-2.4-.1-3.7V31.7c0-.1 0-.2.1-.3.1-.1.2-.2.3-.2.1-.1.3-.1.6-.1h1.8c.2 0 .4.1.6.1.1.1.2.1.3.2.1.1.1.2.1.3v26.8zm19.8-.1v.8c0 .2-.1.4-.1.5-.1.1-.1.2-.2.3-.1.1-.2.1-.3.1h-12.7c-.3 0-.7-.1-1-.3-.3-.2-.5-.6-.5-1.2v-27c0-.1 0-.2.1-.3.1-.1.2-.2.3-.2.1-.1.3-.1.6-.1s.6-.1.9-.1c.4 0 .7 0 .9.1.2 0 .4.1.6.1.1.1.3.1.3.2.1.1.1.2.1.3v25.2h10.3c.1 0 .2 0 .3.1.1.1.2.2.2.3.1.1.1.3.1.5.1.2.1.4.1.7zm5.3 1.1c0 .1 0 .2-.1.3-.1.1-.2.2-.3.2-.1.1-.3.1-.6.1-.2 0-.6.1-.9.1-.4 0-.7 0-.9-.1-.3 0-.5-.1-.6-.1-.1-.1-.3-.1-.3-.2-.1-.1-.1-.2-.1-.3V31.6c0-.1 0-.2.1-.3.1-.1.2-.2.3-.2.2-.1.4-.1.6-.1.2 0 .5-.1.9-.1s.7 0 .9.1c.2 0 .4.1.6.1.1.1.3.1.3.2.1.1.1.2.1.3v27.9zm26.6-1c0 .3 0 .6-.1.8-.1.2-.2.4-.4.5-.2.1-.3.2-.5.3-.2.1-.4.1-.6.1H457c-.4 0-.7 0-1-.1-.3-.1-.6-.2-.8-.4-.3-.2-.5-.5-.8-.9-.3-.4-.6-.9-.9-1.4l-8.8-16.5c-.5-.9-.9-1.7-1.4-2.7-.5-.9-.9-1.8-1.3-2.7 0 1.1.1 2.2.1 3.3v20.9c0 .1 0 .2-.1.3-.1.1-.2.2-.3.2-.1.1-.3.1-.6.1-.2 0-.5.1-.9.1s-.7 0-.9-.1c-.2 0-.4-.1-.6-.1-.1-.1-.2-.1-.3-.2-.1-.1-.1-.2-.1-.3v-27c0-.6.2-1 .5-1.3.3-.3.7-.4 1.1-.4h1.9c.4 0 .8 0 1.1.1.3.1.6.2.8.4.2.2.5.4.7.7.2.3.5.7.7 1.2l6.7 12.8c.4.8.8 1.5 1.2 2.3.4.7.8 1.5 1.1 2.2.4.7.7 1.4 1.1 2.1.4.7.7 1.4 1 2.1 0-1.2 0-2.4-.1-3.7V31.7c0-.1 0-.2.1-.3.1-.1.2-.2.3-.2.1-.1.3-.1.6-.1h1.8c.3 0 .4.1.6.1.1.1.2.1.3.2.1.1.1.2.1.3v26.8zm20.8 0v.7c0 .2-.1.4-.2.5l-.3.3c-.1.1-.2.1-.3.1h-13.8c-.3 0-.7-.1-1-.3-.3-.2-.5-.6-.5-1.2v-26c0-.6.2-1 .5-1.2.3-.2.6-.3 1-.3h13.6c.1 0 .2 0 .3.1.1.1.2.2.2.3.1.1.1.3.1.5s.1.5.1.8c0 .3 0 .5-.1.7 0 .2-.1.4-.1.5-.1.1-.1.2-.2.3-.1.1-.2.1-.3.1h-11.2v9.1h9.6c.1 0 .2 0 .3.1.1.1.2.2.2.3.1.1.1.3.1.5v1.4c0 .2-.1.4-.1.5-.1.1-.1.2-.2.3-.1.1-.2.1-.3.1h-9.6v10.4H480c.1 0 .2 0 .3.1l.3.3c.1.1.1.3.2.5-.1 0-.1.2-.1.5z"/><path d="M268.5 68.9c-16.9 1.7-28.2 6.7-27.9 11.8.2 3.3 15 5 20.5 5.2 6.3.2 23.6 3.8 22.9 7.1-.7 3.8-18.2 3.5-32.1 5.1-9.8 1.1-45 7.7-45 9.1 0 1.5 33.9-5.8 55.7-6.4 34.7-.9 28.1-10.6 27.3-11.3-3.8-3.6-7.3-5.1-16.5-6.6-8.1-1.3-25.5-1.1-25.5-4.4 0-2.2 4.6-4.5 18.9-6.9 9.6-1.6 26.7-2 27.7-2.8 1.8-1.3-17.7-.7-26 .1zm77 18c-4.8.1-10.4 3.5-14.6 5.4-4.3 1.9-11.2 5.9-15.1 1.1 3.2-2.1 14.1-3.9 12.4-6.6-1.4-2.2-7.1-1.8-10.6-.3-3.2 1.4-4.2 2.4-7.1 4-2.7 1.5-6.7 1.3-9.7 2.1-2.2.6-4.3 1.3-6.3 2.2-.4.2-5.3 2.9-2.6 3.2 1.4 0 2.9-.8 4.2-1.2 1.9-.6 3.9-1.1 5.9-1.4 2.5-.4 5.5-1.2 8-1 5.4 3.7 10.8 6 17.4 3.3 4-1.6 7.8-3.6 11.8-5 3.1-1.1 5.9-1.8 8.7.1 2.7 1.9 4.7 4.4 7.3 6.4 2.3 1.7.8-2.4.3-3.1-1.8-2.6-6.1-9.2-10-9.2-2.8 0 3.1 0 0 0zm50.8 9.4c-2.3-.4-4.6-.7-6.9-1.3-2.4-.7-3.4-1.4-3.2-3.9.1-1.7 1.4-5 .2-6.5-1.6-2-5.5.6-6.8 1.5-2.6 1.8-4.9 3.9-7.5 5.8-1.6 1.2-5.1 4-7.4 3.1-2-.8-3.5-3.3-4.6-4.9-.7-1-2.3-4.2-3.8-4.3-1.9 0 .7 5.8 1.1 6.5 1.1 2.4 3.4 5.4 6.3 6.2 3.1.8 6.5-1.9 8.8-3.5 1.7-1.2 3.3-2.6 4.9-3.9 1-.8 2.9-3.1 4.3-3.2 1.1 0 .4 3.9.4 4.5-.1 1.6-.2 3.4 1.3 4.3 2.6 1.6 6.3 1.7 9.3 1.8 2.2.1 5.8.6 7.8-.3 2-.9-4.1-1.9-4.2-1.9-3.3-.5 3.6.5 0 0zm-39.8-13.4c3.1 0 6.5-1.5 9.5-2.2 4.4-1.1 8.8-2 13.3-2.4 3.5-.3 7.6.5 11.1-.2 1.9-.4.3-1.7-.6-2-1.6-.6-3.3-.8-5-1-5.8-.5-12.1 1.4-17.6 2.8-2.9.8-5.7 1.6-8.5 2.6-.4.2-4.9 2.4-2.2 2.4.7 0-.2 0 0 0zm142 15.8c-.3-.3-1-.3-1.4-.4-3-.4-6-.6-9-.8-11.4-.7-23-1.4-34.4-1.4h-.2c-3.4.1-4.8.2-8 .5-3.5.3-7.1.8-10.7.6-1.7-.1-5.1-.1-6.4-1.3 1.3-.9 15.7-2.5 12.9-6.1-1.2-1.6-5.5-.9-7.2-.5-3.3.7-6.9 1.9-9.7 3.7-4.5 2.9-16.3 4.4-18.1 2 0 0-.8-1.2-.3-2.4 1-2.5 1.7-3.3 9.1-6 3.5-1.3 6.9-1.8 10.7-2.1 4.5-.3 6.9-.3 8.3-.9 1.7-.7-8.6-1.2-15 .1-5.8 1.1-13 2.8-16.6 7.6-.8 1.1-1.3 2.4-1.2 3.7.3 3 5.8 3 8.1 3.1 1 .1 2.1.1 3.1.1 2.1 0 4.1-.3 6.1-.6 1.5-.3 3.9-1.3 5.1-.3 3 2.3 8.2 2.4 11.8 2.5 5.3.1 7.4-.2 13.2-.9 8.6-1 17.6-.4 26.3-.1 4.8.2 9.5.4 14.3.6 1.1 0 9 1 9.4-.2l.1-.3-.3-.2c-.2-.3 0 0 0 0z" fill="#333"/></svg>