<svg xmlns="http://www.w3.org/2000/svg" width="244.635" height="21.889" viewBox="0 0 244.6347656 21.8886719"><path d="M18.355 3.862L12.707 18.56h-3.8L3.259 3.862h3.863l2.835 8.105c.566 1.637.818 2.687.84 2.687h.02c.021 0 .273-1.05.84-2.687l2.835-8.105h3.863zm31.333 11.401v3.297H38.874V3.862h10.687V7.16h-7.16v2.414h5.606v3.086h-5.606v2.604h7.285zM84.862 3.862V18.56h-3.318l-3.002-4.094c-1.344-1.848-3.317-4.64-3.338-4.64h-.021c-.021 0 .02 2.267.02 5.48v3.254h-3.527V3.862h3.318l3.128 4.2c.945 1.26 3.191 4.43 3.212 4.43h.021c.021 0-.02-2.604-.02-5.27v-3.36h3.527zm33.159 0V7.16h-4.472v11.4h-3.528V7.16h-4.409V3.862h12.409zM138.75 18.56V3.862h3.527V18.56h-3.527zm36.518-3.297v3.297h-10.814V3.862h10.687V7.16h-7.16v2.414h5.607v3.086h-5.607v2.604h7.287zm21.336-7.579c.652-2.499 2.751-4.116 5.627-4.116 3.34 0 5.291 1.89 5.291 4.347 0 1.91-1.7 3.002-2.813 3.044v.02c1.554 0 3.086 1.176 3.086 3.213 0 2.71-2.309 4.662-5.564 4.662-2.813 0-5.27-1.744-5.858-4.074l3.191-.882c.336 1.05 1.198 1.806 2.52 1.806 1.071 0 2.037-.61 2.037-1.701 0-.944-.84-1.596-2.121-1.596h-1.238v-2.75H202c1.281 0 1.87-.672 1.87-1.49 0-.903-.757-1.491-1.87-1.491-1.092 0-1.784.546-2.246 1.847l-3.15-.84zm45.127 3.526c0 4.22-2.583 7.644-6.802 7.644s-6.783-3.423-6.783-7.643 2.563-7.643 6.783-7.643 6.802 3.423 6.802 7.643zm-9.91 0c0 2.373.904 4.158 3.108 4.158 2.163 0 3.128-1.785 3.128-4.157s-.965-4.157-3.128-4.157c-2.204 0-3.108 1.785-3.108 4.157z" fill="#1A171C"/></svg>