<svg xmlns="http://www.w3.org/2000/svg" viewBox="0 0 283.5 283.5"><path d="M27.8 260.3h1.9v-15h-1.8v-1.6h13.3v3.9h-1.7v-2.3h-7.7v6.2l8-.1v1.8l-8-.1v7.2H40V258h1.8v3.9h-14v-1.6zm33.5-12.7l-1 2-5.2 10.5h-1.8L48 249.4l-.9-1.9H47v12.8h1.9v1.5h-5.5v-1.5h1.8v-15h-1.8v-1.6h3.9l5.5 11.2 1.5 3.4 1.6-3.4 5.4-11.1h4v1.6h-1.8v15h1.8v1.5h-5.6v-1.5h1.9v-12.7h-.3zm6.6 14.3v-1.5h1.7v-15h-1.7v-1.6h5.6v1.6h-1.8v15h1.8v1.5h-5.6zm14.2-16.6H80v15h8.2v-3.1h1.7v4.6H76.1v-1.5H78v-15h-1.8v-1.6h5.9v1.6zm9.6 16.6v-1.5h1.7v-15h-1.7v-1.6h5.6v1.6h-1.8v15h1.8v1.5h-5.6zm19.5 0v-1.5h1.9L112 257h-7.7l-1.1 3.4h2v1.5h-5.8v-1.5h1.7l5.9-16.6h2.4l6 16.6h1.6v1.5h-5.8zm-2.5-14.6l-.5-1.4-.5 1.4-2.7 8h6.6l-2.9-8zm9.9 6.2v-1.9h9v1.9h-9zm11.2 8.4v-1.5h1.8v-15h-1.8v-1.6h8c.8 0 1.6.1 2.3.3.7.2 1.4.5 1.9.9s1 .9 1.3 1.5.5 1.4.5 2.3c0 .4-.1.9-.2 1.4-.1.5-.3 1-.6 1.4-.3.5-.7.9-1.2 1.2-.5.4-1.1.7-1.8.9l3.4 6.7 2.1.3v1.1c-.3.1-.7.2-1.1.3s-.7.1-1 .1c-.5 0-.9-.1-1.1-.3s-.4-.5-.6-.9l-3.4-7h-4.5v6.5h2.4v1.5h-6.4zm8.1-9.6c.5 0 .9 0 1.4-.1s.9-.3 1.2-.5.6-.6.9-1.1c.2-.5.3-1.1.3-1.8 0-1.2-.4-2.1-1.1-2.6-.8-.5-1.7-.8-2.8-.8h-4.2v7h4.3zm25.1.6c0 1.3-.2 2.5-.5 3.6s-.8 2.1-1.5 2.9c-.7.8-1.5 1.5-2.5 1.9-1 .5-2.1.7-3.4.7-1.5 0-2.8-.2-3.9-.6-1.1-.4-1.9-1-2.6-1.8-.7-.8-1.1-1.7-1.4-2.9-.3-1.1-.4-2.4-.4-3.8 0-1.2.1-2.4.4-3.6.3-1.2.7-2.2 1.4-3.1s1.5-1.6 2.6-2.1 2.4-.8 4-.8 2.9.3 3.9.8 1.8 1.2 2.4 2.1c.6.9 1 1.9 1.2 3 .2 1.3.3 2.5.3 3.7zm-2 .1c0-.9-.1-1.8-.2-2.7s-.4-1.8-.9-2.6c-.4-.8-1-1.4-1.8-1.9s-1.8-.7-3-.7c-1.3 0-2.3.2-3.1.7-.8.5-1.4 1.1-1.9 1.8s-.8 1.6-1 2.6c-.2 1-.3 1.9-.3 2.9 0 2.4.5 4.3 1.5 5.5 1 1.2 2.6 1.9 4.8 1.9 1 0 1.9-.2 2.6-.6s1.3-.9 1.8-1.6c.5-.7.8-1.5 1.1-2.4.3-.9.4-1.9.4-2.9zm22.1-5.4l-1 2-5.2 10.5h-1.8l-5.3-10.7-.9-1.9h-.1v12.8h1.9v1.5h-5.5v-1.5h1.8v-15h-1.8v-1.6h3.9l5.5 11.2 1.5 3.4 1.6-3.4 5.4-11.1h4v1.6h-1.8v15h1.8v1.5h-5.6v-1.5h1.9v-12.7h-.3zm17.1 14.3v-1.5h1.9L201 257h-7.7l-1.1 3.4h2v1.5h-5.8v-1.5h1.7l5.9-16.6h2.4l6 16.6h1.6v1.5h-5.8zm-2.6-14.6l-.5-1.4-.5 1.4-2.7 8h6.6l-2.9-8zm18.7-3.8c1.1 0 2.1.1 2.9.2.8.2 1.5.3 2.1.5v4.1h-1.7v-2.8c-.4-.1-.9-.2-1.5-.3-.6-.1-1.2-.1-1.7-.1-1.2 0-2.3.2-3.1.6-.9.4-1.6.9-2.1 1.6-.6.7-1 1.5-1.2 2.5-.3 1-.4 2.1-.4 3.2 0 1 .1 1.9.3 2.8.2.9.5 1.7 1 2.4s1.1 1.2 2 1.6c.8.4 1.9.6 3.2.6.5 0 1.1 0 1.9-.1s1.3-.2 1.8-.3v-6h-3v-1.5h6.4v1.5h-1.5v7.3c-.9.3-1.9.5-2.9.6s-1.9.2-2.9.2c-1.5 0-2.7-.2-3.8-.6-1-.4-1.9-1-2.5-1.8s-1.1-1.8-1.4-2.9c-.3-1.1-.5-2.4-.5-3.7 0-.9.1-1.9.4-3 .2-1.1.7-2.1 1.4-3.1s1.5-1.7 2.7-2.4c.8-.8 2.3-1.1 4.1-1.1zm20.4 11.9l2.3 3.2v-13.3h-2v-1.6h5.7v1.6h-1.9v16.6H239l-8.8-12.4c-.3-.5-.6-.9-.9-1.2s-.6-.8-.9-1.3v13.4h2v1.6h-5.8v-1.6h1.9v-15h-1.9v-1.6h3.9l8.2 11.6zm19.2 6.5v-1.5h1.9l-1.1-3.4H249l-1.1 3.4h2v1.5h-5.8v-1.5h1.7l5.9-16.6h2.4l6 16.6h1.6v1.5h-5.8zm-2.6-14.6l-.5-1.4-.5 1.4-2.7 8h6.6l-2.9-8z" fill="#A7A9AC"/><path fill="#D11242" d="M257.2 181.8c-2.7-4.6-6.5-6.9-11.8-6.9-5.1 0-8.3 2.3-10.4 6.7h-.2v-5.9h-10.9v5.1c-3.3-3.7-8-5.9-14.2-5.9-7.2 0-12.5 3.2-15.7 8.2-3.2-5-8.6-8.2-15.9-8.2-7 0-12.2 3-15.4 7.7-3.1-4.9-8.6-7.7-15-7.7-7.7 0-13.5 3.3-16.8 8.7-.5-1.9-1.4-3.6-3.2-5.1-3.2-2.7-8.6-3.6-12.7-3.6-5.9 0-12.3 1.4-16 5.5-.2-.2-.4-.5-.6-.7-.2-4.6 7.9-5.8 7.9-5.8l.1-7.2s-10.8 1.8-13.4 9.4c-1.4-.5-6.2-1.2-9.9-1.2-5.7 0-12.8 1.5-16.3 6-3.4-3.9-8.7-6-13.8-6-6.6 0-11.7 2.7-15 6.9v-20.2H26.4v54.2H38v-5.9c3.5 4.2 8.8 6.7 15.3 6.7 5.9 0 10.1-2.2 12.9-4.9.7.6 1.6 1.2 2.6 1.6-3.6.8-6.9 3.2-6.9 7.3 0 9.1 14.3 9.3 20.7 9.3 4.7 0 10.4-.3 14.8-2.1 4.6-1.9 8.4-5.5 8.4-10.9v-.4c.5 0 1 .1 1.5.1 6 0 9.5-2.3 12.8-7-.1 2.1.1 4.2.6 6.2h11.5c-.6-2-.8-3.9-.8-6v-.8c3.3 4.7 8.6 7.5 15.6 7.5 6.8 0 12.5-2.9 15.7-8 3.2 4.9 8.4 8 15.5 8s12.6-3.2 15.9-8.3c3.1 5 8.4 8.3 15.7 8.3 6 0 10.8-2.3 14.2-6.1v18.8h11.6v-17.9h.2c1.7 3.6 5.3 5.2 9.2 5.2 11.7 0 15.3-10.9 15.3-20.8-.1-4.8-.6-9.7-3.1-13.9zm-174.3-.6c3.6 0 6.9 1.9 6.9 5.9 0 4.1-3.2 6.2-6.9 6.2-3.9 0-6.4-2.1-6.4-6.1 0-3.8 2.7-6 6.4-6zm-29.5 1.2c5.1 0 6.5 4 6.7 8.4H45.9c.4-4.6 2.4-8.4 7.5-8.4zm.3 25.8c-5.1 0-7.7-3.9-7.7-8.6l.1-2h24.6c-2.4 1.1-4.7 2.4-5.9 4.6l-3.9-.3c-.1 3.7-3.7 6.3-7.2 6.3zm30.1 14.6c-2.5 0-6.2-.1-8.7-.8-1.7-.5-2.9-1.3-2.9-3.2 0-1.6 1.1-2.7 2.5-3.2l6.2.2 9.5.4c1.7.2 4.3.6 4.3 2.8 0 4-8 3.8-10.9 3.8zm34.1-16.9c-1.3 2.1-3.5 3.3-5.8 3.3-3.2 0-5.1-2.1-5.1-5.3 0-5.8 8.1-6.9 12.6-7.3v1.6c-.1 2.8 0 5.1-1.7 7.7zm1.6-16.1v.9c-4.9.5-11.3.8-15.9 2.5-5.3 2-9 6-9 11.9 0 .5 0 .9.1 1.4-1.3-.2-2.6-.3-3.8-.4l-5.1-.2c-2.3-.1-6.6-.2-8.6-.8-1.5-.5-2.3-1.4-2.3-3.1 0-1.3.9-2.3 2-2.9l6.7.6c7.5 0 17.5-2.7 17.8-11.8l5.4.5c0-3.9 3.2-5.8 6.9-5.8 1.7 0 3.7.6 4.7 1.9 1.2 1.5 1.1 3.5 1.1 5.3zm34.6 10.2c-.4 3.7-2.4 6.9-6.6 6.9-6.6 0-6.7-6.9-6.7-11.8 0-5.1.8-11.4 7.2-11.4 4.2 0 6.1 3.6 6.1 7.2l5.4-.3c-.3 1.6-.5 3.3-.5 5 0 1.6.1 3.2.4 4.7l-5.3-.3zm24 8.8c-6.6 0-6.6-9.8-6.6-14.4s.4-11.9 6.6-11.9c2.7 0 4.6 1 5.5 3.6 1.1 3 1.3 6.8 1.3 9.9.1 4.9-.2 12.8-6.8 12.8zm31.6 0c-6.6 0-6.6-9.8-6.6-14.4s.4-11.9 6.6-11.9c2.7 0 4.6 1 5.5 3.6 1.1 3 1.3 6.8 1.3 9.9.1 4.9-.3 12.8-6.8 12.8zm32.1-.5c-2.1 0-4.1-1.3-5.2-3-1.3-2.2-1.1-5.6-1.1-8.1v-3.9c0-2.4 0-4.8 1.2-6.9 1-2 2.9-3.2 5.2-3.2 5.8 0 6.2 8.3 6.2 12.4-.1 3.9-.3 12.7-6.3 12.7z"/><g fill="#A7A9AC"><path d="M157.7 122.7c-1.7 0-3.5-.1-5.2-.3-7.5 6.5-17.2 10.4-27.9 10.4-7.7 0-15-2.1-21.3-5.7l-4.5 7.8c7.6 4.4 16.4 6.9 25.8 6.9 16.4 0 31.1-7.7 40.5-19.6-2.4.3-4.9.5-7.4.5zm9.7-32.7c0 1.3-.1 2.5-.2 3.8 3.5-1.5 6.6-3.7 9.1-6.6-1.5-27.2-24-48.9-51.6-48.9C96.1 38.4 73 61.5 73 90h9c0-23.6 19.1-42.7 42.7-42.7 23.5 0 42.7 19.2 42.7 42.7zm-37.9 24.3c-1.6.3-3.2.5-4.8.5-4.4 0-8.6-1.2-12.2-3.2l-4.6 7.7c4.9 2.8 10.7 4.4 16.7 4.4 5.8 0 11.2-1.5 15.9-4-3.9-1.3-7.6-3.2-11-5.4z"/><path d="M149.4 90c0 1.4-.1 2.7-.4 4.1 2.7 1 5.6 1.6 8.7 1.6h.2c.3-1.8.5-3.7.5-5.6 0-18.6-15.1-33.7-33.7-33.7-18.7-.1-33.8 15-33.8 33.6h9c0-13.7 11.1-24.7 24.7-24.7 13.7 0 24.8 11.1 24.8 24.7z"/><path d="M200.4 71c0 23.6-19.1 42.7-42.7 42.7S115 94.6 115 71c0-1.3.1-2.5.2-3.8-3.5 1.5-6.6 3.7-9.1 6.6 1.5 27.2 24 48.9 51.6 48.9 28.5 0 51.7-23.1 51.7-51.7h-9zm-42.7-51.7c-16.4 0-31.1 7.7-40.5 19.6 2.4-.4 4.9-.5 7.5-.5 1.7 0 3.5.1 5.2.3 7.5-6.5 17.2-10.4 27.9-10.4 7.7 0 15 2.1 21.3 5.7l4.5-7.8c-7.7-4.4-16.5-6.9-25.9-6.9z"/><path d="M182.4 71c0 13.7-11.1 24.7-24.7 24.7C144 95.7 133 84.6 133 71c0-1.4.1-2.7.4-4.1-2.7-1-5.6-1.6-8.7-1.6h-.2c-.3 1.8-.5 3.7-.5 5.6 0 18.6 15.1 33.7 33.7 33.7s33.7-15.1 33.7-33.7h-9zm-24.7-33.7c-5.8 0-11.2 1.5-15.9 4 3.9 1.4 7.6 3.2 11.1 5.5 1.6-.3 3.2-.5 4.8-.5 4.4 0 8.6 1.2 12.2 3.2l4.6-7.7c-5-2.9-10.7-4.5-16.8-4.5z"/></g></svg>