<svg xmlns="http://www.w3.org/2000/svg" width="433.7" height="149.7" viewBox="0 0 433.7 149.7"><text transform="matrix(1.0753 0 0 1 142.238 107.193)" fill="#536E82" font-family="'MyriadPro-BoldCond'" font-size="131.43">asbr</text><text transform="matrix(1.0753 0 0 1 142.238 132.258)" fill="#C76754" font-family="'MyriadPro-Cond'" font-size="20.492">Azienda Servizi Bassa Reggiana</text><path fill="#536E82" d="M32.2 114.6c10.6 0 19.2-8.6 19.2-19.2s-8.6-19.2-19.2-19.2S13 84.8 13 95.4s8.6 19.2 19.2 19.2"/><path fill="#FAB96A" d="M56 95.4c15.5 0 28-12.5 28-27.9 0-15.4-12.5-28-27.9-28-15.4 0-28 12.5-28 28 0 15.4 12.5 27.9 27.9 27.9"/><path fill="#C76754" d="M106.2 105.2c10.9 0 19.8-8.9 19.8-19.8s-8.9-19.8-19.8-19.8-19.8 8.9-19.8 19.8 8.9 19.8 19.8 19.8"/></svg>