<svg xmlns="http://www.w3.org/2000/svg" width="663.75" height="572.5" viewBox="0 0 663.75 572.5"><defs><clipPath id="a"><path d="M0 458h531V0H0v458z"/></clipPath><clipPath id="b"><path d="M0 458h531V0H0v458z"/></clipPath></defs><g clip-path="url(#a)" transform="matrix(1.25 0 0 -1.25 0 572.5)"><path d="M98.356 187.903h6.098v-76.83h-6.098v76.83m38.254-34.923c-10.08-.015-18.5-8.461-18.518-18.514-.016-10.078 8.425-18.396 18.517-18.404 10.134-.008 18.743 8.167 18.74 18.405-.005 10.24-8.599 18.53-18.74 18.514m18.296-1.553l5.656 6.986c0-16.224-.002-32.447 0-48.67l-6.21 7.426c-4.657-4.767-10.893-7.564-17.742-7.54-13.512.052-24.604 11.396-24.615 24.837-.01 13.434 10.947 24.796 24.504 24.833 7.52.02 13.306-2.771 18.407-7.872m60.761-35.367c10.103.005 18.517 8.332 18.512 18.405-.004 10.074-8.382 18.501-18.512 18.514-10.155.014-18.416-8.335-18.405-18.513.01-10.15 8.295-18.41 18.405-18.406m-24.06 43.128l6.433-7.315c4.657 4.656 10.889 7.449 17.849 7.426 13.556-.046 24.481-11.553 24.496-24.945.016-13.425-10.956-24.695-24.496-24.724-7.412-.015-13.194 2.66-18.295 7.872V81.139h-5.987v78.05zm57.424-1.331h6.097v-46.786l-6.098.001c.003 15.595.001 31.19.001 46.785m0 18.294h6.097v-6.542h-6.097v6.542zm16.517-65.08c-.003 15.854 0 31.708-.001 47.563l5.876-5.655c3.658 3.991 7.537 6.32 13.08 6.32 10.419 0 16.849-8.316 16.849-18.073v-30.155h-5.875v28.05c0 7.54-3.77 13.858-11.861 13.858-7.98 0-12.083-6.209-12.083-13.526v-28.382h-5.985zm51.211 23.283c-.022-3.747.999-6.984 2.995-10.09 9.308 7.988 18.625 15.965 27.936 23.948-3.88 3.215-7.9 4.797-12.527 4.768-10.188-.064-18.343-8.5-18.404-18.626m34.813-8.647c2.174-1.155 3.26-1.73 5.435-2.884-4.436-8.092-12.31-13.194-21.732-13.193-13.727.001-24.848 11.212-24.835 24.833.012 13.515 11.114 24.808 24.723 24.835 8.742.018 16.189-3.99 20.957-11.53l-32.267-27.938c3.657-2.55 6.765-3.77 11.2-3.77 7.319 0 13.084 3.658 16.519 9.646m17.519-14.635v41.021h-8.314v5.765h8.315v13.415l6.099 3.438v-16.853h8.649v-5.765h-8.65v-41.02h-6.098zm44.02 41.908c-10.079-.016-18.5-8.465-18.517-18.515-.016-10.072 8.423-18.395 18.517-18.403 10.135-.008 18.744 8.169 18.74 18.405-.006 10.238-8.6 18.53-18.74 18.514m18.297-1.553l5.653 6.986v-48.671l-6.208 7.427c-4.656-4.767-10.894-7.564-17.742-7.54-13.509.053-24.604 11.389-24.613 24.837-.01 13.442 10.948 24.796 24.503 24.833 7.518.02 13.307-2.771 18.407-7.872" fill="#31471d"/></g><path d="M253.557 501.192c-1.59 1.59-3.394 2.492-5.714 2.492-4.34 0-7.433-3.351-7.433-7.132 0-3.91 3.223-7.175 7.476-7.175 2.449 0 4.34 1.031 5.93 2.836l1.847-1.504c-2.235-2.75-4.64-3.78-7.777-3.78-5.585 0-10.01 4.253-10.01 9.623 0 5.414 4.468 9.624 10.053 9.624 3.609 0 5.156-1.203 7.476-3.351l-1.848-1.633zm14.007 4.984a9.608 9.608 0 0 0 9.624-9.624c0-5.413-4.34-9.624-9.624-9.624-5.37 0-9.581 4.297-9.581 9.624 0 5.242 4.21 9.624 9.58 9.624zm7.175-9.624c0 3.996-3.137 7.132-7.132 7.132a7.114 7.114 0 0 1-7.132-7.132c0-3.91 3.136-7.175 7.132-7.175 3.952 0 7.132 3.18 7.132 7.175zm14.608 9.624a9.608 9.608 0 0 0 9.624-9.624c0-5.413-4.34-9.624-9.624-9.624-5.37 0-9.581 4.297-9.581 9.624 0 5.242 4.21 9.624 9.58 9.624zm7.175-9.624c0 3.996-3.137 7.132-7.132 7.132a7.114 7.114 0 0 1-7.132-7.132c0-3.91 3.136-7.175 7.132-7.175 3.952 0 7.132 3.18 7.132 7.175zm6.015 20.666h2.32v-14.092c1.976 2.019 4.21 3.05 7.089 3.05 5.328 0 9.495-4.296 9.495-9.58 0-5.243-4.167-9.668-9.495-9.668-2.707 0-5.113 1.074-6.917 2.879l-2.492-2.836v30.247zm2.19-20.666c0-4.081 3.18-7.175 7.133-7.175 4.039 0 7.175 3.265 7.175 7.175a7.124 7.124 0 0 1-7.175 7.132c-3.953 0-7.132-3.093-7.132-7.132zm29.002 7.132c-1.719 0-2.922-.472-4.34-1.46l12.503-10.828c-1.847-2.921-4.726-4.468-8.12-4.468-5.414 0-9.581 4.382-9.581 9.624 0 5.242 4.081 9.624 9.624 9.624 3.652 0 6.702-1.976 8.42-5.113l-2.104-1.117c-1.332 2.32-3.566 3.738-6.402 3.738zm.043-14.307c1.804 0 3.351.602 4.855 1.848l-10.827 9.28c-.774-1.203-1.16-2.45-1.16-3.91 0-3.953 3.136-7.218 7.132-7.218zm21.095-2.105a6.687 6.687 0 0 0-2.406-.43c-2.062 0-3.695.86-5.07 2.535l-2.277-2.234v18.475h2.32v-10.956c0-2.922 1.633-5.37 4.727-5.37.601 0 .945.085 1.59.3l1.116-2.32zm10.827-.344c-5.284 0-9.495 4.297-9.495 9.624 0 5.328 4.297 9.624 9.538 9.624 2.664 0 5.07-1.074 6.875-2.921l2.406 2.878v-18.861l-2.192 2.707c-1.976-1.977-4.21-3.05-7.132-3.05zm7.304 9.624c0 4.082-3.308 7.132-7.26 7.132-3.996 0-7.176-3.18-7.176-7.132 0-3.91 3.18-7.175 7.175-7.175 3.953 0 7.261 3.094 7.261 7.175zm10.269 9.066V489.72h3.351v-2.234h-3.351v-6.53l-2.363 1.331v5.199h-3.223v2.234h3.223v15.897h2.363zm5.972 0h2.363v-18.131h-2.363v18.13zm0-22.686h2.363v-2.534h-2.363v2.534zm12.073 23.201l7.347-18.646h-2.492l-4.64 12.545-5.242-12.545h-2.363l7.39 18.646zm18.388-19.205c-5.284 0-9.495 4.297-9.495 9.624 0 5.328 4.297 9.624 9.539 9.624 2.663 0 5.07-1.074 6.874-2.921l2.406 2.878v-18.861l-2.191 2.707c-1.977-1.977-4.21-3.05-7.132-3.05zm7.305 9.624c0 4.082-3.309 7.132-7.261 7.132-3.996 0-7.175-3.18-7.175-7.132 0-3.91 3.179-7.175 7.175-7.175 3.952 0 7.26 3.094 7.26 7.175zm22.341-7.089c-1.289-1.676-2.492-2.535-4.34-2.535-2.878 0-5.026 2.32-5.026 5.027 0 6.402 8.163 3.91 8.163 8.679 0 1.632-1.418 3.05-3.136 3.05-1.29 0-2.192-.601-3.395-2.148l-1.804 1.547c1.804 2.105 3.007 3.093 5.199 3.093 3.093 0 5.542-2.449 5.542-5.671 0-6.402-8.163-4.511-8.163-8.636 0-1.418 1.203-2.492 2.492-2.492 1.117 0 1.976.602 2.62 1.504l1.848-1.418zm13.362 16.713a9.608 9.608 0 0 0 9.624-9.624c0-5.413-4.34-9.624-9.624-9.624-5.37 0-9.581 4.297-9.581 9.624 0 5.242 4.21 9.624 9.581 9.624zm7.175-9.624c0 3.996-3.136 7.132-7.132 7.132a7.114 7.114 0 0 1-7.132-7.132c0-3.91 3.136-7.175 7.132-7.175 3.953 0 7.132 3.18 7.132 7.175zm20.623 4.64c-1.59 1.59-3.394 2.492-5.714 2.492-4.34 0-7.433-3.351-7.433-7.132 0-3.91 3.222-7.175 7.476-7.175 2.449 0 4.339 1.031 5.929 2.836l1.847-1.504c-2.234-2.75-4.64-3.78-7.776-3.78-5.586 0-10.011 4.253-10.011 9.623 0 5.414 4.468 9.624 10.054 9.624 3.609 0 5.155-1.203 7.475-3.351l-1.847-1.633zm5.027 4.426h2.363v-18.131h-2.363v18.13zm0-22.686h2.363v-2.534h-2.363v2.534zm14.779 3.996c-5.284 0-9.495 4.297-9.495 9.624 0 5.328 4.297 9.624 9.538 9.624 2.664 0 5.07-1.074 6.875-2.921l2.406 2.878v-18.861l-2.191 2.707c-1.977-1.977-4.21-3.05-7.133-3.05zm7.304 9.624c0 4.082-3.308 7.132-7.26 7.132-3.996 0-7.176-3.18-7.176-7.132 0-3.91 3.18-7.175 7.175-7.175 3.953 0 7.261 3.094 7.261 7.175zm5.801 9.066h2.363v-29.775h-2.363v29.775zm15.037-1.934c-1.718 0-2.921-.472-4.34-1.46l12.503-10.828c-1.847-2.921-4.726-4.468-8.12-4.468-5.413 0-9.58 4.382-9.58 9.624 0 5.242 4.08 9.624 9.623 9.624 3.652 0 6.703-1.976 8.421-5.113l-2.105-1.117c-1.332 2.32-3.566 3.738-6.402 3.738zm.043-14.307c1.805 0 3.351.602 4.855 1.848l-10.827 9.28c-.773-1.203-1.16-2.45-1.16-3.91 0-3.953 3.136-7.218 7.132-7.218z" style="-inkscape-font-specification:CaponeCGLight" font-weight="400" font-size="34.371" font-family="Capone CG Light" fill="#59595d"/><g clip-path="url(#b)" transform="matrix(1.25 0 0 -1.25 0 572.5)"><path d="M189.727 235.494c1.177 1.708 1.294 3.334.98 4.924 1.035-.073 2.067-.162 3.107-.188 1.843-.043 4.058.997 3.45 2.832-1.27 3.843 1.401 6.897 1.265 10.41-.065 1.735.02 3.775 2.142 4.135 2.775.477 5.281-.826 7.744-1.699.221-2.269-3.582-2.572-1.869-5.044 2.732-2.212 5.65.794 8.641-.073-.635-3.645-2.498-5.04-5.867-3.974-1.232.386-2.41.968-3.718.695-1.86-.39-4.12-.58-4.499-2.9-.399-2.432 1.7-3.118 3.512-3.87 1.892-.789 3.69-.424 5.627-.072 3.109.568 6.583 1.547 9.302-.534 2.645-2.025 4.18-1.046 5.974.837 1.03 1.081 2.071 2.215 3.313 3.015 3.623 2.337 5.501 1.532 6.692-2.728.232-.832.378-1.647 1.118-1.97 6.771-.232 5.518 6.974 8.932 10.095 2.612-2.433 1.49-5.208 1.872-7.587.481-2.995 4.912-2.755 4.81-6.79-1.67.715-3.527 1.896-4.677.296-2.938-4.087-7.305-3.769-11.463-3.984-3.615-.182-6.629-2.033-9.798-3.434 11.271.518 22.762.796 34.44.796 8.337 0 16.234-.024 23.757-.083-6.871 3.352-18.237 6.017-22.79 9.125 4.15 2.704 8.329 3.52 12.896 2.641 3.37-.648 6.875-1.192 10.21-.507 10.299 2.091 19.952-3.57 30.172-1.715-5.521-1.835-4.304-4.72-9.324-5.39-4.744-.632-4.744-.632-7.547-3.225a20.321 20.321 0 0 0-.291-1.082c16.535-.255 31.176-.76 44.594-1.696-3.618 2.895-9.733 6.446-8.606 8.215.212 2.045 1.28 1.73 2.587 1.004 2.651-1.479 5.495-2.85 8.528-2.27 8.537 1.627 17.09 3.373 23.441 10.122.13 1.987-1.48 3.52-.693 5.912 1.703 5.234.955 5.746-4.44 4.204-1-.282-1.95-.72-3.003-.789-1.522-.23-2.42.162-2.374 1.971.174 6.283-.015 6.572-5.927 8.014-2.127.523-4.438.54-5.766 3.734 2.244-.565 3.785-.988 5.346-1.35 4.273-.982 4.592 1.956 5.488 5.004.99 3.403-.037 4.585-3.228 5.374-3 .744-5.829 2.175-8.897 3.368 1.441 3.325 3.358 5.112 6.963 4.641 3.133-.408 6.342-.224 6.881 3.807.5 3.78-3.029 3.388-5.186 4.353-.179.08-.302.28-.455.42 1.401 5.713 1.401 5.713-4.988 11.203 1.15 2.316 5.232 1.313 5.435 5.207-9.89 5.871-8.263 18.936-15.996 26.098.522 2.207 3.174.895 3.424 3.378-4.119 2.331-6.94 6.064-5.824 11.1.87 3.924.006 6.98-1.959 10.188-1.455 2.363-2.232 5.04-2.359 7.885-.067 1.637.341 3.534-2.055 4.543-.842-2.4-1.88-4.817-1.51-7.325.565-3.816-1.414-7.642-3.445-9.179-4.879-3.676-2.902-5.647.68-7.635-1.387-3-5.967-3.209-4.434-7.528.982-2.776 1.65-5.405 5.72-4.935-.71-1.209-.898-1.908-1.36-2.254-2.729-2.059-5.604-2.806-8.946-1.233-2.04.967-4.375.952-5.79-1.119-1.345-1.97.651-3.073 1.79-4.187 1.016-.988 1.795-2.017 1.098-3.342-1.473-2.81.168-3.33 2.4-3.59 1.381-.163 3.012.612 4.141-1.158-1.23-3.929-4.82-.668-6.467-1.676-1.389-1.778 1.318-4.617-2.104-4.957-1.964-.193-3.908-.428-3.396 2.807.178 1.115-1.035 2.506-2.619 1.83-1.182-.507-2.174-1.548-1.313-3.058.754-1.323.838-2.289-.726-3.095-3.032-1.563-2.725-5.124-4.307-7.586-1.219-1.886.025-3.116 2.52-3.622 1.05 5.003 4.134 6.911 9.877 5.422-2.834-2.296-.274-4.377.11-6.78-4.15-.006-7.79.437-11.21-1.246-2.098-1.036-2.824-2.912-.645-3.596 4.188-1.314 5.094-6.845 10.508-6.312-2.11-2.529-5.818-2.828-4.908-6.267.82-3.13 3.881-.2 5.818-1.96-2.043-1.46-3.373-4.126-6.125-.69-1.252 1.556-3.029 2.702-4.482 4.186-3.37 3.456-4.293 9.907-11.168 9.008.398 1.067.432 1.637.707 1.81 2.361 1.443 3.842 2.645 2.102 6.022-1.72 3.33-3.424 2.577-6.164 2.04-2.38-.467-5.292-1.319-7.749.652 2.327 3.241 5.375 3.42 8.397 2.604.857 3.613-3.125 1.898-3.38 4.224 3.306 1.945 7.144 1.914 11.882 2.683-6.766 6.158-15.779 5.206-22.052 10.08 5.007 2.796 10.148 4.36 15.851 3.57 2.217-.304 4.224.538 6.043 1.74 2.931 1.935 2.865 3.425-.198 4.941a11.693 11.693 0 0 1-4.92 1.228c-2.578.083-4.695 1.208-6.216 3.221 1.468 2.536 6.064 1.568 5.316 5.145-.625 2.978-3.994 1.673-6.058 2.483-.2.073-.409.126-.618.188-4.443 1.275-5.728 3.618-3.232 7.445 2.502 3.805 1.738 5.745-2.283 7.225-1.998.743-3.46 2.368-1.887 4.481 3.523 4.721-.218 9.4-.963 13.482-.673 3.67-1.093 6.504.945 9.17 2.057 2.694 1.895 4.433-.652 6.431-3.106 2.431-2.849 7.64-7.413 9.075-.5.156-.879 2.604-.427 3.588 3.606 7.841-3.4 10.518-6.724 15.772-4.776-7.163-4.216-15.74-9.897-20.98.574-3.032 4.56-2.437 4.498-5.415-.103-1.539-1.666-1.889-2.323-2.929-.77-1.223-1.292-2.598-1.925-3.916-2.392.08-4.046 2.777-6.704 1.37-3.454-1.824-.026-4.538-.894-6.9-3.027-.179-7.25 2.523-8.046-3.252 1.906-1.26 3.84-2.547 6.115-4.053-6.113-4.652.762-5.98 2.76-8.845-7.544.072-9.257-1.397-10.395-8.309-.07-.41-.297-.798-.39-1.217-1.116-4.82-.37-5.578 4.53-3.94 2.331.776 3.983 1.075 4.842-1.909-.849-.33-1.398-.614-1.98-.758-5.113-1.255-5.367-2.198-2.382-6.588 1.67-2.457 2.88-5.223 4.761-8.705-10.984 5.724-12.572 5.99-18 3.467 3.91-5.563 13.655-3.682 16.441-12.668-6.713 0-12.46.046-18.21-.02-2.067-.027-4.78.35-4.848-2.752-.073-3.262 2.544-3.35 5.025-3.46 2.027-.085 4.4.686 5.861-1.966-.908-2.368-2.722-3.46-5.332-3.429-2.352.025-4.72.203-7.06.025-4.529-.339-9.188-.434-12.93-3.57 1.096-2.65 3.137-2.629 5.001-2.917 7.16-1.115 14.334-2.113 21.587-2.322 2.144-.063 3.817-.623 4.264-2.964.35-1.834-.02-3.53-1.832-4.366-2.21-1.019-3.592.017-4.47 2.15-1.319 3.204-3.849 2.932-6.43 1.928-1.15-.444-2.456-2.279-3.305-1.479-3.846 3.64-8.08.43-12.048 1.057-1.923.303-4.34.292-4.812-2.035-.562-2.796 2.264-3.46 4.108-4.05 1.966-.628 4.233-.258 6.338-.55 1.49-.21 3.546.57 4.281-2.259-5.799-.109-9.478-3.195-11.586-8.318-.639-1.552-2.17-1.918-3.414-2.712-3.16-2.019-4.759-5.929-4.274-8.686.603-3.407 1.883-7.794 7.184-8.692-3.162-3.436-6.025-3.149-10.107-1.658 4.306 4.945.148 7.355-2.613 10.242-2.01 2.101-3.204 3.857.192 6.08 3.057 2.002 3.084 6.195.946 7.847-3.464 2.682-3.262 6.006-2.857 9 .682 5.026-1.578 7.03-5.745 8.003-6.927-4.189-.106-10.018-1.879-15.733-6.822 6.442-5.965-4.029-10.597-3.246 2.52-4.104 4.44-7.648 7.621-10.488-1.427-1.746-5.558-1.307-4.246-4.495 1.191-2.908-.543-4.267-1.687-6.253-3.063-5.317-1.257-11.44 4.025-14.305-1.158-1.119-1.936-2.17-2.413-3.11-2.964-1.86-2.794-5.583-6.622-6.599 1.562-1.568 3.104-1.53 4.494-1.363 2.881.36 4.037-.346 4.654-2.494.881-3.038-1.689-1.774-3.428-1.904-1.312-.109-2.115-.962-2.037-1.839.23-2.613-.164-5.29-.08-7.983a657.596 657.596 0 0 0 25.543 2.774c-1.807 3.336-3.202 6.783-6.33 9.643M157.11 222.44c-.407 2.797-4.067 2.384-3.85 5.129 6.697 7.836 7.341 11.092-1.485 24.305.25.533.492 1.113.795 1.662 2.982 5.432 2.42 6.79-3.428 8.025-2.098.439-3.83 1.516-5.562 2.723 1.085 6.207 9.611-.914 9.931 6.499-1.248 1.014-1.709 4.79-5.232 1.762-.517-.44-1.315.047-1.563.61-.222.498-.298 1.297-.044 1.732 2.925 5.2 2.882 5.458-2.662 6.399-1.909.32-3.782.293-4.116 2.703 1.166 1.317 2.446.899 3.706.753 2.197-.262 3.882.788 4.386 2.791.535 2.123-1.25 2.895-2.997 3.392-1.712.477-3.642 1.271-3.78 3.055-.334 4.196-1.992 6.77-6.405 7.297-1.382.178-1.7 1.788-2.416 2.823-3.08 4.491-4.892 9.405-4.96 14.905-.032 2.844-1.017 5.437-2.202 7.967-.564 1.208-1.374 2.295-2.809 2.223-1.523-.084-2.273-1.323-2.173-2.666.16-2.18-.223-3.676-2.613-4.366-.944-.27-2.01-2.055-1.407-2.515 3.736-2.822.868-6.215.573-8.992-.448-4.225 3.44-5.129 5.118-8.286-4.978-1.76-10.394-.45-14.393-3.99 1.573-1.605 5.655.753 5.513-2.707-.123-2.964 1.088-2.603 2.885-2.416 1.255.135 2.636.496 3.252-1.84-6.838-1.249-8.8-8.259-14.495-12.003 3.287-.696 5.882-1.705 6.368-4.82.49-3.189-3.674-1.419-4.294-3.923 2.477-3.074 7.233-5.473 4.012-10.476 1.871-1.589 4.251.601 5.737-1.996-1.94-1.6-4.309-1.507-6.527-1.783-5.347-.654-7.159-3.567-5.55-8.737 1.155-3.702 2.5-7.094 7.514-7.838-4.838-1.352-6.52-4.599-6.963-8.668-.359-3.283 1.166-4.609 4.537-3.574 4.282 1.317 8.938.918 13.023 3.121 1.72.92 3.567.434 4.175-1.552.596-1.967-.772-3.348-2.506-3.87-2.658-.795-5.433-1.259-8.227-.795-1.267.21-2.492.753-3.523-.498-2.797-3.444-7.426-3.099-11.155-6.323-.322 5.57-2.554 9.32-4.674 13.27-1.882 3.505-3.226 7.275-6.033 10.217 2.45 6.254-4.224 10.791-3.158 16.856.39 2.232-1.506 3.283-3.439 3.994-1.969.717-2.71-.746-3.55-1.914-1.208-1.692-.915-3.094.91-4.296 2.468-1.631 1.255-4.35-.31-4.463-5.884-.451-3.732-6.598-7.343-8.236 1.283-1.473 2.4-1.358 3.396-1.12 2.06.514 2.965-.124 3.623-2.23.933-2.98-1.056-1.85-2.308-2.082-.94-.172-1.443-1.06-1.3-1.937.936-5.805-.38-12.104 5.081-17.678-3.094-.387-4.566-.57-6.036-.752-1.579-.193-3.087-.53-2.747-2.641.238-1.47 1.428-2.556 2.683-2.16 3.281 1.052 5.37-1.088 7.907-3.062 3.595.924 4.636 2.286 7.887 1.408 4.006-1.082 8.382-1.121 11.784 2.193 1.32 1.287 3.563 1.87 5.303 2.598 5.498 2.273 11.77-2.64 16.862 2.177.33.307 1.492 1.007 2.323.85 1.231-.213 2.45-.991 3.722-.228 4.732 2.829 9.835 1.494 15.107 1.143 1.786.303 3.592.593 5.4.882 1.606.615 3.201 1.403 4.722 1.969m297.568 5.044c1.088-2.75-1.463-4.28-2.807-3.479-5.078 3.012-6.841-3.256-10.744-2.523.207-1.945 1.188-2.494 2.139-2.866 1.98-.763 2.359-1.808 1.689-3.909-.947-2.977-1.927-.91-3.086-.377-.873.396-1.793-.042-2.18-.842-.13-.267-.282-.48-.417-.727-1.658.241-3.334.57-5.088 1.34-5.934 2.597-10.125 11.155-17.705 11.776 4.344 3.562 7.845 1.607 9.43.347 8.789-7.01 16.302 2.676 24.494 1.326.134-.019.42.246.468.414.85 3.523 2.883 3.666 5.078 3.32-1.537-.732-1.992-1.959-1.271-3.8m11.826 6.315c-5.453 2.556-1.46 7.476-2.8 12.621-.723 2.791-.253 5.918-2.01 8.488-4.71-2.44-8.133-5.342-9.62-10.68-1.25-4.512-7.916-9.31-13.29-10.335 3.333 3.681 6.208 6.581 7.755 9.954-1.98 3.032-4.57.366-6.414 1.146-1.81 3.063 2.508 3.92 1.844 6.42-4.45 3.92-4.934 5.362-10.221 7.852 4.23 1.024 2.97.983 7.024 1.532 1.668.224 3.562.716 4.125 2.598.52 1.788-1.125 2.561-2.25 3.503-.494.418-.97.846-1.172 1.014.176 2.446 2.615 2.692 2.984 4.757-2.344 3.77-5.238 7.163-10.36 8.455 2.84 2.272 4.595-.09 6.593-.132 1.894-.037 4.308.597 3.556 2.338-.922 2.148-.77 4.804-3.23 6.582-5.545 3.988-6.883 11.412-3.401 17.31-5.824 2.102-5.37 6.408-3.455 10.942 2.698 6.388-4.814 9.227-4.396 14.88-2.463-3.055-4.205-5.988-4.184-9.475 0-2.54-8.4-3.068-1.693-7.147.293-.176-.732-.846-1.11-1.307-2.785-3.44-2.554-8.218.438-10.942-3.248-2.16-3.248-2.16-7.391-1.4-5.25.951-5.32.872-3.68-4.37-1.134-1.569-3.46.888-4.458-1.622 1.35-5.26 7.388 1.066 9.174-3.524-1.813-1.902-6.15.575-6.127-1.663.033-5.264-4.03-5.044-6.707-6.342-.858-2.028 1.343-2.782 1.199-4.312-1.727-2.614-4.576-3.55-7.436-4.632 2.658-3.545 3.276-13.504 8.688-14.037l-2.938-2.223c-2.54-.407-2.468-.396-4.93-.783-1.72-1.465-2.175-3.576-.93-5.155 2.829-3.603 1.63-8.025 3.489-11.8-4.023-.826-7.316-2.43-11.101-2.097-1.795.152-3.911-.324-4.356-2.797 1.44-5.186 5.397-7.26 10.248-8.03 3.742-.595 7.528-.925 11.285-1.474 1.026-.168 2.05.722 3.233-.11-1.098-2.812-5.664-5.744-.156-8.704.015-.007-1.481-.25-1.846-1.078 2.99-2.176 6.258-1.814 9.033-.073 2.637 1.653 4.592-2.535 7.39-2.97 3.81-.586 6.93-3.386 10.643-4.485 1.112-.328 2.215-.695 3.324-1.062l16.983.77c5.586 3.711 9.726 10.048 7.086 15.61-.59 1.25.27 3.038-.285 4.601 1.304-.596.714-1.72 3.414-2.73 1.283-.484 5.357.226 6.056 2.166.592 1.666-2.187 3.283-3.617 3.952" fill="#89b82c"/><path d="M474.426 190.647c-47.016 19.139-123.063 31.589-208.922 31.589-85.87 0-161.918-12.45-208.93-31.59C111.83 202.974 185.1 210.49 265.49 210.49c80.404 0 153.677-7.517 208.935-19.843" fill="#484749"/></g></svg>