<svg version="1" xmlns="http://www.w3.org/2000/svg" width="800" height="800" viewBox="0 0 600.000000 600.000000"><path d="M211.4 81.3l-.1 5.2 7.2 5.8c23.4 18.8 38.7 35.1 64.1 68.7 30.8 40.6 62.7 91.4 67.7 107.8 2.8 9.1 3.1 14.1 3.1 45.7-.1 23.6-.1 24.2-3.3 36.5-1.7 6.9-3.4 13.6-3.6 14.8-1.2 5-9.7 31.7-10.8 33.7-.7 1.2-4.8 7.1-9.2 13.1-6.3 8.7-10.3 12.8-19.4 20.4-26.9 22.3-30.9 24.9-55.1 35.5-27.9 12.2-35.5 14.4-91 26.5-5.2 1.1-10.4 2.2-11.5 2.5-1.1.2-21.1 4.3-44.5 9.1l-42.5 8.6-25.5.2-25.6.1-5.2 3.8c-2.8 2.1-5.2 4.1-5.2 4.3 0 .2 134.8.4 299.5.4H600l-.5-3.3c-.4-1.7-1.7-7.5-3-12.7-14.2-57.2-48.2-124.4-93.4-184.8-10-13.3-30.7-39.1-33-41.2-.3-.3-4-4.3-8.1-9-18.2-20.7-51.6-53.8-68.5-68.1-2.2-1.9-4.4-3.9-5-4.5-.5-.7-4.1-3.8-8-7-3.8-3.2-7.2-6.1-7.5-6.4-1.2-1.6-32.7-26.2-45-35.3-7.4-5.4-14.6-10.7-16-11.8-14.4-10.9-73.7-48.9-94-60.2l-6.6-3.6v5.2zm78.6 74.4c3.6 3.4 7.5 7 8.6 8 3.9 3.4 18.1 26.2 26.2 42.1 9.6 18.9 11.3 23.7 4.2 12.2-11-18-30.2-45.2-50.1-71l-4.2-5.5 4.4 4.1c2.4 2.2 7.3 6.8 10.9 10.1zm52.4 52.8c.2 1.1.9 3.8 1.4 6 .6 2.2 1.3 5.2 1.6 6.8.3 1.5 1 5.3 1.5 8.5.6 3.1 1.3 7.5 1.6 9.7.3 2.2.8 5.3 1.1 7 .3 1.9-.5.8-2.1-2.9-1.4-3.3-2.5-6.3-2.5-6.7 0-.5-1.3-3.8-3-7.4-1.6-3.6-3-6.7-3-7 0-.8-12.9-26.9-16.1-32.5-3.1-5.5-3.1-5.5 8 5.5 6.1 6.1 11.3 11.9 11.5 13zm17.9 17.1c6.4 6.9 7.5 8.6 7.2 11-.2 1.6-.7 6.3-1 10.4-1.2 14.9-1.6 19.5-2 21.5-.2 1.1-.4 3.5-.4 5.2-.1 1.8-.5 3.3-.9 3.3-1.7 0-6.1-11.7-6.7-17.5-1.3-13.4-2.9-24.1-5.1-35.2-1.8-9.1-1.8-10.2-.1-8.3.8.8 4.8 5.2 9 9.6zm23 25.4c1.8 2 5.2 6 7.7 8.9 2.5 2.9 5.5 6.5 6.7 8 1.3 1.4 2.3 3.1 2.3 3.7 0 4.1-16.4 45.4-18 45.4-.4 0-2.4-3.9-4.5-8.8-2.1-4.8-5.1-11.4-6.7-14.6-3-6-3.2-8.5-1.4-19.6.5-3 1.4-11.7 2.2-22.5.4-4.4.8-8.7 1-9.5.1-.8.3-1.7.3-2 .1-.3 1.7 1.3 3.7 3.5 1.9 2.2 5 5.6 6.7 7.5zm25.2 29.8c1.6 2 7.4 9.5 12.8 16.6 8.2 10.9 9.5 13.1 8.5 14.5-7.1 9.2-34.4 38.9-35 38.1-.3-.3-2.6-6.1-5.2-12.9l-4.7-12.3 1.9-4.2c4.1-8.6 11-25.4 14.2-34.4 1.8-5 3.5-9.2 3.9-9.2.3 0 1.9 1.7 3.6 3.8zm-33.6 35c.6 1.5 1.7 4.1 2.5 5.9 1.4 3 1.3 3.5-2.1 10.5l-3.6 7.3-.8-4.4c-.5-2.5-1.1-6.3-1.4-8.5-.4-2.3-1.5-8.4-2.5-13.6-1-5.2-1.6-10.8-1.3-12.5.6-2.9.8-2.6 4.4 4.8 2 4.2 4.2 8.9 4.8 10.5zm64.9 7.4c4.9 7.3 11.9 18.5 15.3 24.5l1.8 3.2-8.2 5.9c-7 5-37.9 25.5-41.4 27.6-.8.4-2.6-3.8-5.7-13.6l-4.6-14.2 3.3-3.5c5.7-6.1 7.1-7.6 15.3-16.7 4.5-4.9 10.3-11.5 13-14.7 2.7-3.1 5.2-5.7 5.6-5.7.4 0 2.9 3.3 5.6 7.2zm-75.2 6.4c.8 4.9 1.6 10.5 1.9 12.5.2 1.9.5 4 .7 4.5.1.5-2.1 5.2-4.9 10.4l-5.3 9.5.6-9.4c1-18.2 1.4-21.9 4-32.4.1-.4.2-1.7.3-2.9.2-4 1.2-1.1 2.7 7.8zm22.9 17.3l3.3 8.5-7.4 7.5c-4.1 4.1-7.6 7.2-7.8 7-.2-.2-.7-3.1-1-6.4-.3-3.3-.8-7.8-1.2-10-.5-3.4 0-5.2 3.7-12.8l4.4-8.9 1.4 3.4c.8 1.8 2.9 7.1 4.6 11.7zm76.1 16.8c7.6 16.1 12.7 29.4 11.6 30.3-5.4 3.9-14.9 9.4-24.2 14.1-12.6 6.3-32.4 14.9-34.3 14.9-1 0-3.4-8.9-8.3-30.5-.4-1.4.4-2.6 2.8-4.1 8.8-5.7 37-24.5 42.2-28.2 3.3-2.3 6.1-4.2 6.2-4.2.2 0 2 3.5 4 7.7zm-94.1 3.7c.7 8.8.6 8.9-2.2 11.5-1.6 1.4-5.2 4.7-8 7.4l-5.1 4.7.5-5.2c.3-4 1.5-7.3 5-13.3 2.6-4.4 5.1-8.9 5.7-10 1.8-3.3 2.8-4.7 3.1-4.3.2.2.7 4.3 1 9.2zm29.4 12.8c1.4 4.3 2.3 8 2 8.2-1 .9-23.3 14.5-23.5 14.3-.1-.1-.4-5.8-.8-12.6l-.6-12.3 8.2-8.3 8.3-8.4 2 5.7c1.1 3.1 3.1 9.2 4.4 13.4zm-48.3-4.2c0 1.1-.4 2-.8 2s-.8.7-.8 1.7c0 .9-.2 1.4-.5 1.1-.7-.7.6-6.8 1.4-6.8.4 0 .7.9.7 2zm21 25.7l-.1 4.7-9.8 5.8c-5.4 3.2-10.2 5.8-10.6 5.8-.4 0-.2-4.1.6-9l1.3-9 8.7-8.4 8.8-8.4.6 6.9c.3 3.8.5 9 .5 11.6zm-23.1-9c-.3 3.5-1.7 5.9-5.2 8.8-3.5 2.9-3.6 2.9-2.3.5 1.5-2.9 7-11 7.4-11 .1 0 .2.8.1 1.7zm55 3.5c.3 1.3 2.1 8.4 4 15.8l3.2 13.5-3.1 1.4c-3.3 1.5-27.5 10.1-29 10.4-.6.1-1-5.6-1.1-13.9v-14.1l12-7.6c6.6-4.1 12.3-7.5 12.6-7.6.4-.1 1 .9 1.4 2.1zm76 11.7c1.8 8.8 2.6 23 1.5 27-.5 2-2.9 3.4-14.5 8.1-19.6 7.8-43.3 15.6-44.4 14.4-.5-.5-1.2-3.6-1.5-6.9-.4-3.3-.9-6.7-1.1-7.5-.4-1.5-1.1-5.1-2.1-10.7-.4-2.6-.1-3.2 1.8-3.9 1.3-.4 4.6-1.7 7.3-2.9 2.8-1.2 7.5-3.3 10.5-4.6 9.3-4 28.2-13.7 34.5-17.8 3.3-2.1 6.1-3.8 6.1-3.7.1.1 1 3.9 1.9 8.5zm-134.2 6.3c-.8 4.6-1.5 8.3-1.6 8.4-.1 0-2.8 1.5-6 3.3-3.2 1.8-6 3.1-6.3 2.9-.2-.3.8-3.4 2.2-6.9 1.8-4.7 3.9-7.7 7.7-11.2 2.8-2.6 5.2-4.7 5.3-4.7 0 0-.5 3.7-1.3 8.2zm26.7 12.1v13.3l-7 2.3c-3.8 1.2-7.2 2.2-7.5 2.2-.2 0-2.8.9-5.7 2-2.9 1-5.6 1.9-6.1 1.9-.7 0-.4-2.6.8-9 1.1-5.4 1.5-7.6 2.1-10.5.3-1.7.8-3.1 1.2-3.3.4-.1 5.2-2.9 10.7-6.1 5.5-3.3 10.3-6 10.8-6 .4-.1.7 5.9.7 13.2zm-46.9 2.4c-1.5 4-2.7 5.3-7.2 7.7l-5.4 3 4.4-5.5c9.2-11.2 11-12.4 8.2-5.2zm16.8 5.8c-.5 2.8-1.2 6.1-1.4 7.5-1.1 5.9-1.5 7.3-2 7.9-.8.7-18.8 6.1-19.2 5.7-.3-.2 4.1-10 7-15.5.9-1.8 15.3-11.2 16.4-10.7.1.1-.3 2.4-.8 5.1zm70.2-1.5c.1.5.2 1.3.3 1.7.1.5.6 3.3 1.1 6.3.5 3 .9 5.7 1 6 .3 1.5 1.6 11.7 1.5 12.5 0 .5-1.3 1.4-2.8 1.8-7.9 2.3-35.8 9.7-36.5 9.7-.9 0 .2-26.2 1.2-27.1.3-.4 5.3-2.3 11.1-4.3s12.8-4.5 15.5-5.5c5.7-2.3 7.4-2.5 7.6-1.1zm-96.7 17.2c-2 4-3.8 7.5-4 7.7-.6.7-17.7 5.2-18.1 4.7-.5-.5 4.5-6.4 9.2-10.8 3.1-2.9 13.1-8.6 15.3-8.7.7-.1-.2 2.7-2.4 7.1zm163.5-3.5c-3.8 14.5-16.7 29.5-33.2 38.7-7.3 4-19.6 9.1-20.3 8.3-.3-.3-.7-2.9-.8-5.9-.5-8.3-1.8-22.2-2.2-22.9-.2-.3 7-2.9 15.9-5.9 15.3-5 35.8-12.8 39.5-15 .9-.5 1.8-1 1.9-1 .1 0-.3 1.7-.8 3.7zm-107.6 8.5c-.4 7.8-.8 13.9-1.2 16.9-.1.6-6.6 2.5-12.1 3.6-1.3.2-6.2 1.3-10.7 2.4-4.6 1-8.6 1.9-8.9 1.9-.6 0 .3-5.3 3-16.5l2.2-9 13-4.2c7.1-2.3 13.4-4.2 14.1-4.2.8-.1 1 2.5.6 9.1zm-33.7 1.6c-.3.5-.7 1.9-1 3.3-1.6 8.7-4.6 20.3-5.3 20.9-.4.4-6 1.8-12.3 3-15.8 3.1-17 3.2-16.9 2.3 0-.4 3-5.9 6.7-12.2l6.8-11.5 10.9-3.2c6.1-1.8 11.1-3.3 11.3-3.3.2-.1.1.3-.2.7zm-51.9 5c-3.6 3.7-6 5.2-9.5 6-2.6.6-4.8.9-5 .8-.9-.9 16.2-11.4 18.8-11.6.2 0-1.7 2.2-4.3 4.8zm20.1 6.9c-1.2 2.1-4.3 7.4-6.9 11.9l-4.8 8.1-6.8 1.1c-3.7.7-8.4 1.4-10.3 1.8-1.9.3-6 1-9 1.5s-5.8.9-6.1.9c-.3 0 4.6-5.1 11-11.4l11.6-11.4 10.5-3c13.7-3.9 13.3-3.9 10.8.5zm111.8-.1c.5 5.3 1.7 21.3 1.9 24.2.2 3.1 0 3.3-4.9 4.7-2.8.8-6.7 1.7-8.6 2-1.9.3-5.1 1-7 1.5-1.9.5-5.7 1.1-8.5 1.5-9 1.1-14 1.7-15.8 2.1-1.7.3-1.8-.3-1.3-6.4 1.3-15.6 1.8-19.8 2.9-20.8.7-.6 6.2-2.3 12.2-3.8 6.1-1.5 14.6-3.8 19-5.1 9-2.6 9.9-2.6 10.1.1zm-152.1 13.6c-11.9 11.2-14.9 13.8-16 13.8-.5 0-5.7.7-11.4 1.5s-10.6 1.3-10.9 1.1c-.2-.3 2-2 4.9-3.8 3-1.8 9.7-6.2 14.9-9.7 7.3-5 11.3-7 17.5-8.7 4.4-1.2 8.2-2 8.4-1.8.2.2-3.1 3.6-7.4 7.6zm103.9.5c-1.2 12.9-2.3 21.5-2.9 22.1-.4.4-12.3 1.2-24.7 1.6-7.4.2-10.8 0-10.8-.8 0-1.3 4.8-18.7 5.3-19.2.5-.6 29-7.2 31.3-7.3 1.9-.1 2.1.3 1.8 3.6zm-130.3 1.2c-1.4 1-7.9 5.3-14.5 9.5-12.8 8-12.7 7.9-31.6 10.1-2.5.2-6.3.7-8.5.9-2.2.3-6.5.8-9.5 1.1-3 .3-6.8.8-8.5 1l-3 .5 2.5-1.5c1.4-.8 3.2-1.4 4.1-1.5 1.8 0 31.4-9.7 41.4-13.5 5.3-2 26-7.9 29.5-8.4.3 0-.6.8-1.9 1.8zm88.3 13.5c-1.5 5.3-3.2 9.6-3.8 9.7-.6 0-2.7.2-4.6.4-1.9.2-9.6.6-16.9 1-7.4.3-13.9.8-14.3 1.1-1.7 1.1-.6-1.2 3.9-8 2.6-3.9 4.8-7.2 4.9-7.4.1-.3 11.8-2.8 17.5-3.7 1.9-.4 6.1-1.2 9.4-1.9 3.3-.7 6.1-1.2 6.3-1.1.1.2-.9 4.6-2.4 9.9zm-38.4-1.7c-.1.5-2.3 3.8-5.1 7.5L279 510l-5.3.1c-2.8.1-7 .3-9.2.4-13.7.7-21.5.7-21.6 0-.3-1.6 11.1-10.1 13.8-10.3 1.5-.1 9.1-1.3 16.8-2.6 16.9-2.9 15.5-2.8 15.5-1.9zm-134 6.9c-9.2 2.9-43.2 9.6-42.5 8.4.3-.4 2.4-1.1 4.7-1.5 8-1.3 9.3-1.6 24.3-4.9 16-3.6 20.8-4.3 13.5-2zm85.4 2.2c-7.4 6.8-8 7-22.7 7.6-7.5.3-13.7.4-13.7.1 0-1.4 11.4-6.4 16-7 3-.4 6.3-.9 7.4-1.1 1-.2 4.4-.6 7.5-1 3.1-.3 5.8-.8 6-1 .2-.2.7-.2.9.1.3.3-.3 1.3-1.4 2.3zM198 509c0 .5-1.7 1.7-3.7 2.6-3 1.3-8.1 1.8-23.3 2.1-10.7.3-19.3.2-19 0 .5-.5 8.3-1.4 19.5-2.3 3.3-.2 6.9-.6 8-.9 1.1-.2 5.4-.7 9.5-1.1 4.1-.3 7.7-.8 7.9-1 .7-.7 1.1-.4 1.1.6zm-47 4.4c0 .2-.7.7-1.6 1-.8.3-1.2.2-.9-.4.6-1 2.5-1.4 2.5-.6z"/></svg>