<svg xmlns="http://www.w3.org/2000/svg" xmlns:xlink="http://www.w3.org/1999/xlink" width="164" height="82.667" viewBox="0 0 164 82.6665039"><defs><path id="a" d="M-44-28.583h252.279v167.249H-44z"/></defs><clipPath id="b"><use xlink:href="#a" overflow="visible"/></clipPath><path clip-path="url(#b)" d="M5.529 62.57c.772 2.722 2.09 4.082 3.983 4.082 1.737 0 2.607-.872 2.622-2.622 0-.59-.296-1.11-.87-1.57a8.622 8.622 0 0 0-2.088-1.234 29.474 29.474 0 0 1-2.483-1.235 6.266 6.266 0 0 1-2.117-1.962c-.576-.843-.855-1.852-.855-3.044 0-1.528.519-2.818 1.557-3.869 1.05-1.05 2.355-1.586 3.926-1.586 2.72 0 4.652 1.221 5.805 3.646L11.994 55.1c-.73-1.417-1.656-2.13-2.79-2.119-1.108 0-1.923.774-1.923 1.84 0 .627.296 1.191.885 1.68a9.982 9.982 0 0 0 2.145 1.304 37.58 37.58 0 0 1 2.509 1.262 6.597 6.597 0 0 1 2.147 1.893c.601.798.897 1.767.897 2.874 0 1.947-.59 3.494-1.754 4.598-1.163 1.108-2.733 1.653-4.682 1.653-1.753 0-3.268-.532-4.53-1.61-1.263-1.08-2.062-2.428-2.382-4.01l3.013-1.894zm16.469-12.815h3.745v20.106h-3.745zm10.61.001H36.8l4.739 12.548 4.739-12.548h4.192v20.106h-3.73v-12.41L42.9 68.025h-2.706L36.35 57.453v12.409h-3.743zm23.744 10.066c0-2.245.449-4.162 1.332-5.749.899-1.586 2.049-2.746 3.437-3.462 1.401-.716 2.972-1.081 4.712-1.081 1.75 0 3.322.365 4.71 1.08 1.4.717 2.55 1.877 3.436 3.463.882 1.587 1.332 3.504 1.332 5.749 0 2.23-.45 4.151-1.332 5.735-.885 1.586-2.035 2.748-3.436 3.464-1.388.716-2.96 1.063-4.71 1.063-1.74 0-3.311-.347-4.712-1.063-1.388-.716-2.538-1.878-3.437-3.464-.883-1.584-1.332-3.505-1.332-5.735m3.802 0c0 2.257.532 3.954 1.613 5.103 1.08 1.15 2.44 1.727 4.066 1.727 1.625 0 2.985-.577 4.066-1.727 1.079-1.15 1.626-2.846 1.626-5.103 0-2.255-.547-3.97-1.626-5.117-1.081-1.149-2.441-1.725-4.066-1.725-1.627 0-2.986.576-4.066 1.725-1.081 1.147-1.613 2.862-1.613 5.117m20.199-10.066h3.938l7.377 13.278V49.756h3.73v20.106h-3.926l-7.374-13.263v13.263h-3.745zm26.733 0h3.727l6.802 20.105h-4.01l-1.472-4.738h-6.38l-1.46 4.738h-4.022l6.815-20.105zm3.982 11.917l-2.118-6.968-2.13 6.968h4.248zm9.697 6.465l8.706-14.931h-8.217v-3.452h13.334v1.724l-8.622 14.933h9.015v3.45h-14.216zm18.165 0l8.708-14.931h-8.218v-3.452h13.336v1.724l-8.623 14.933h9.014v3.45H138.93zm19.091-18.383h3.741v20.106h-3.741z"/><path clip-path="url(#b)" fill="#E2001A" d="M69.256 2.53c-7.623 8.28-12.492 17.576-14.99 27.71 4.84.079 9.856.093 14.838.309-9.29 2.496-17.539 7.853-20.998 15.508 1.54.144 4.61-3.248 6.19-4.303a47.385 47.385 0 0 1 7.808-4.201c5.665-2.408 12.06-3.611 18.416-3.656 8.027-.056 15.72 1.771 22.384 5.118a57.705 57.705 0 0 1 10.718 8.049h1.927c-.45-.68-.915-1.346-1.411-1.992-1.178-3.59-9.286-9.383-11.381-10.567-2.627-1.548-5.522-2.766-8.559-3.666-10.47-4.142-22.684-5.654-34.088-4.49"/><path d="M46.64 78.094c-.04-.722-.085-1.592-.078-2.238h-.023a30.893 30.893 0 0 1-.653 1.969l-.916 2.515h-.507l-.838-2.468a23.51 23.51 0 0 1-.6-2.016h-.016a68.536 68.536 0 0 1-.1 2.292l-.138 2.223h-.638l.361-5.184h.854l.884 2.507c.215.639.392 1.208.523 1.746h.023c.13-.523.315-1.092.546-1.746l.923-2.507h.854l.323 5.184h-.654l-.13-2.277zm6.171-.369c0 1.784-1.084 2.73-2.407 2.73-1.369 0-2.33-1.061-2.33-2.63 0-1.646 1.023-2.722 2.407-2.722 1.415 0 2.33 1.084 2.33 2.622zm-4.022.085c0 1.107.6 2.099 1.653 2.099 1.062 0 1.662-.977 1.662-2.153 0-1.03-.539-2.107-1.654-2.107-1.107 0-1.66 1.022-1.66 2.161zm5.604-2.054h-1.577v-.569h3.837v.57H55.07v4.614h-.676v-4.615zm6.997 1.969c0 1.784-1.085 2.73-2.408 2.73-1.369 0-2.33-1.061-2.33-2.63 0-1.646 1.023-2.722 2.407-2.722 1.415 0 2.33 1.084 2.33 2.622zm-4.023.085c0 1.107.6 2.099 1.654 2.099 1.061 0 1.66-.977 1.66-2.153 0-1.03-.537-2.107-1.653-2.107-1.107 0-1.66 1.022-1.66 2.161zm4.819-2.554a6.99 6.99 0 0 1 1.284-.107c.716 0 1.177.13 1.5.423.261.23.407.585.407.984 0 .685-.43 1.138-.976 1.323v.023c.4.139.638.508.761 1.046.17.722.293 1.222.4 1.423h-.692c-.085-.147-.2-.592-.346-1.239-.154-.715-.43-.984-1.038-1.007h-.631v2.246h-.669v-5.115zm.669 2.362h.685c.715 0 1.168-.393 1.168-.985 0-.669-.484-.962-1.191-.968-.324 0-.554.03-.662.06v1.893zm7.019 2.584c-.246.123-.738.246-1.369.246-1.461 0-2.56-.923-2.56-2.623 0-1.622 1.099-2.722 2.706-2.722.646 0 1.054.138 1.23.23l-.16.546a2.436 2.436 0 0 0-1.047-.214c-1.215 0-2.022.776-2.022 2.137 0 1.269.73 2.084 1.992 2.084.407 0 .823-.085 1.092-.216l.138.532zm1.721.168v-2.199l-1.638-2.984h.76l.731 1.43c.2.393.354.708.516 1.07h.015c.146-.339.323-.677.523-1.07l.746-1.43h.761l-1.738 2.977v2.207h-.676zm6.357-.168c-.246.123-.738.246-1.369.246-1.46 0-2.56-.923-2.56-2.623 0-1.622 1.1-2.722 2.706-2.722.646 0 1.054.138 1.231.23l-.162.546a2.436 2.436 0 0 0-1.046-.214c-1.214 0-2.022.776-2.022 2.137 0 1.269.73 2.084 1.992 2.084.407 0 .823-.085 1.092-.216l.138.532zm.767-5.015h.669v4.622h2.215v.562h-2.884v-5.184zm6.241 2.753h-2.014v1.87h2.246v.56h-2.915v-5.183h2.8v.562h-2.13v1.638h2.014v.553zm5.828 2.43a16.786 16.786 0 0 1-.484-.507 2.127 2.127 0 0 1-1.516.593c-1.007 0-1.592-.677-1.592-1.455 0-.707.423-1.19 1.016-1.514v-.024c-.27-.338-.43-.714-.43-1.084 0-.63.452-1.276 1.314-1.276.646 0 1.146.43 1.146 1.1 0 .546-.315.976-1.138 1.383v.024c.438.508.93 1.076 1.261 1.445.239-.361.4-.861.5-1.514h.615c-.138.815-.362 1.46-.746 1.915.277.292.546.584.854.915h-.8zm-.815-.891c-.308-.339-.885-.97-1.461-1.63-.278.176-.67.507-.67 1.053 0 .592.44 1.046 1.061 1.046.447 0 .824-.2 1.07-.469zm-1.577-3.161c0 .369.17.653.392.93.524-.3.861-.577.861-1.015 0-.316-.176-.669-.6-.669-.43 0-.653.353-.653.754zm6.84-1.062a6.477 6.477 0 0 1 1.223-.107c.669 0 1.1.115 1.422.377.27.2.431.508.431.915 0 .5-.33.938-.876 1.138v.015c.492.123 1.068.531 1.068 1.3 0 .446-.177.784-.438 1.038-.362.331-.946.485-1.792.485-.461 0-.815-.03-1.038-.062v-5.099zm.67 2.123h.607c.707 0 1.122-.369 1.122-.869 0-.607-.461-.845-1.138-.845a2.9 2.9 0 0 0-.592.045v1.67zm0 2.484c.13.023.322.031.56.031.692 0 1.33-.254 1.33-1.008 0-.707-.607-1-1.337-1h-.554v1.977zm4.088-4.676v5.184h-.67v-5.184h.67zm1.1 0h.669v2.5h.022c.139-.2.278-.385.408-.554l1.584-1.946h.83l-1.876 2.2 2.023 2.984h-.792l-1.707-2.546-.492.569v1.977h-.67v-5.184zm6.78 2.753h-2.015v1.87h2.245v.56h-2.915v-5.183h2.8v.562h-2.13v1.638h2.015v.553zm.89 1.615c.3.185.738.339 1.199.339.684 0 1.085-.361 1.085-.885 0-.484-.277-.76-.977-1.03-.846-.3-1.369-.738-1.369-1.469 0-.807.67-1.407 1.677-1.407.53 0 .915.123 1.145.253l-.184.547a2.06 2.06 0 0 0-.985-.246c-.707 0-.976.423-.976.776 0 .484.315.723 1.03 1 .877.338 1.323.76 1.323 1.523 0 .8-.592 1.492-1.815 1.492-.5 0-1.046-.147-1.322-.331l.169-.562z"/></svg>