<svg xmlns="http://www.w3.org/2000/svg" width="1819.829" height="471.1" viewBox="0 0 1819.829 471.1"><path d="M688.884 80.215h5.769l21.854 61.898 20.366-62.095h3.973l20.371 62.095 21.858-61.898h5.367l-25.237 70.049h-4.178l-20.366-60.406-20.366 60.406h-4.173l-25.238-70.049zm127.171 34.973v-.196c0-18.977 14.008-35.975 35.067-35.975 21.068 0 34.875 16.797 34.875 35.773v.201c0 18.972-14.008 35.965-35.071 35.965-21.064.001-34.871-16.791-34.871-35.768zm64.575 0v-.196c0-17.189-12.515-31.3-29.705-31.3s-29.509 13.91-29.509 31.099v.201c0 17.189 12.521 31.296 29.705 31.296 17.191 0 29.509-13.915 29.509-31.1zm41.818-34.973h29.214c8.543 0 15.393 2.686 19.576 6.858 3.275 3.275 5.259 7.945 5.259 12.909v.201c0 11.631-8.637 18.285-20.362 19.875l22.944 29.705h-6.56l-22.148-28.816h-22.757v28.816h-5.166V80.215zm28.615 36.068c11.622 0 20.268-5.867 20.268-15.898v-.201c0-9.334-7.345-15.201-19.968-15.201h-23.749v31.3h23.449zm62.086-36.068h5.175v64.781h40.826v4.768h-46.001V80.215zm80.38 0h23.141c21.858 0 36.971 15 36.971 34.575v.201c0 19.571-15.112 34.772-36.971 34.772h-23.141V80.215zm5.165 4.768v60.013h17.976c19.379 0 31.6-13.217 31.6-29.808v-.196c0-16.492-12.221-30.009-31.6-30.009h-17.976zM690.082 199.437h35.666c8.74 0 14.901 2.185 18.972 6.167 2.784 2.877 4.478 6.55 4.478 11.318v.206c0 8.042-4.571 12.81-10.733 15.5 8.445 2.774 13.812 7.542 13.812 16.983v.201c0 11.921-9.736 19.168-26.332 19.168h-35.862v-69.543zm40.134 21.466c0-3.874-3.079-5.965-8.74-5.965h-12.618v12.216h12.118c5.862 0 9.241-1.984 9.241-6.059v-.192zm-6.658 19.767h-14.7v12.815h14.901c5.961 0 9.241-2.283 9.241-6.358v-.192c0-3.78-2.981-6.265-9.442-6.265zm61.599-41.724h18.579l29.606 70.035h-20.666l-4.969-12.511h-26.926l-4.964 12.511h-20.169l29.509-70.035zm16.89 42.515l-7.748-19.665-7.851 19.665h15.599zm31.891 17.199l10.728-12.824c6.953 5.465 14.504 8.342 22.551 8.342 5.268 0 8.052-1.783 8.052-4.768v-.192c0-2.985-2.288-4.473-11.828-6.756-14.803-3.383-26.229-7.552-26.229-21.761v-.196c0-12.918 10.237-22.257 26.926-22.257 11.823 0 21.063 3.182 28.615 9.241l-9.638 13.605c-6.358-4.566-13.315-6.85-19.477-6.85-4.665 0-6.953 1.886-6.953 4.468v.196c0 3.177 2.386 4.576 12.123 6.761 15.898 3.477 25.835 8.642 25.835 21.658v.197c0 14.209-11.229 22.654-28.119 22.654-12.323.001-23.945-3.868-32.586-11.518zm70.039-59.223h55.929v16.292h-36.859v10.634h33.387v15.206h-33.387v11.023h37.354v16.389h-56.425v-69.544zm66.362 0H1006c8.749 0 14.916 2.185 18.977 6.167 2.789 2.877 4.473 6.55 4.473 11.318v.206c0 8.042-4.566 12.81-10.733 15.5 8.45 2.774 13.812 7.542 13.812 16.983v.201c0 11.921-9.731 19.168-26.322 19.168H970.34v-69.543zm40.143 21.466c0-3.874-3.088-5.965-8.749-5.965H989.12v12.216h12.118c5.858 0 9.245-1.984 9.245-6.059v-.192zm-6.662 19.767h-14.7v12.815h14.897c5.96 0 9.236-2.283 9.236-6.358v-.192c-.001-3.78-2.977-6.265-9.433-6.265zm61.599-41.724h18.575l29.606 70.035h-20.661l-4.969-12.511h-26.931l-4.959 12.511h-20.175l29.514-70.035zm16.881 42.515l-7.739-19.665-7.851 19.665h15.59zm38.047-42.024h19.286v52.659h33.677v16.885h-52.963v-69.544zm61.3 0h19.276v52.659h33.677v16.885h-52.953v-69.544zm83.561 59.223l10.724-12.824c6.953 5.465 14.504 8.342 22.551 8.342 5.268 0 8.047-1.783 8.047-4.768v-.192c0-2.985-2.283-4.473-11.818-6.756-14.803-3.383-26.229-7.552-26.229-21.761v-.196c0-12.918 10.228-22.257 26.921-22.257 11.828 0 21.063 3.182 28.615 9.241l-9.638 13.605c-6.363-4.566-13.306-6.85-19.473-6.85-4.669 0-6.962 1.886-6.962 4.468v.196c0 3.177 2.396 4.576 12.137 6.761 15.889 3.477 25.826 8.642 25.826 21.658v.197c0 14.209-11.229 22.654-28.119 22.654-12.313.001-23.945-3.868-32.582-11.518zm67.748-24.25v-.196c0-19.969 16.095-36.167 37.551-36.167 21.466 0 37.364 15.997 37.364 35.965v.201c0 19.964-16.104 36.162-37.561 36.162-21.456 0-37.354-15.991-37.354-35.965zm55.143 0v-.196c0-10.134-7.158-18.776-17.788-18.776s-17.686 8.539-17.686 18.575v.201c0 10.031 7.252 18.78 17.882 18.78 10.536 0 17.592-8.548 17.592-18.584zm29.7-34.973h55.639v16.89h-36.354v11.828h32.882v15.997h-32.882v24.83h-19.286v-69.545zm81.474 16.89h-20.764v-16.89h60.897v16.89h-20.867v52.654h-19.267v-52.654zm48.575-16.89h35.67c8.74 0 14.897 2.185 18.977 6.167 2.779 2.877 4.473 6.55 4.473 11.318v.206c0 8.042-4.576 12.81-10.733 15.5 8.45 2.774 13.812 7.542 13.812 16.983v.201c0 11.921-9.741 19.168-26.332 19.168h-35.867v-69.543zm40.143 21.466c0-3.874-3.079-5.965-8.749-5.965h-12.614v12.216h12.127c5.858 0 9.236-1.984 9.236-6.059v-.192zm-6.654 19.767h-14.709v12.815h14.896c5.97 0 9.245-2.283 9.245-6.358v-.192c.001-3.78-2.975-6.265-9.432-6.265zm61.591-41.724h18.574l29.616 70.035h-20.661l-4.978-12.511h-26.921l-4.969 12.511h-20.174l29.513-70.035zm16.889 42.515l-7.748-19.665-7.851 19.665h15.599zm38.048-42.024h19.276v52.659h33.687v16.885h-52.962v-69.544zm61.29 0h19.285v52.659h33.678v16.885h-52.963v-69.544zM691.172 353.628v-.197c0-19.669 14.705-35.97 34.772-35.97 12.417 0 19.871 4.566 27.024 11.126l-3.677 3.771c-6.059-5.848-13.016-10.228-23.445-10.228-16.689 0-29.312 13.615-29.312 31.094v.206c0 17.592 12.82 31.291 29.41 31.291 10.036 0 16.895-3.864 23.946-10.826l3.476 3.378c-7.35 7.252-15.299 12.118-27.618 12.118-19.871.001-34.576-15.785-34.576-35.763zm90.21 0v-.197c0-18.986 14.008-35.97 35.066-35.97 21.068 0 34.875 16.797 34.875 35.764v.206c0 18.977-14.008 35.96-35.071 35.96s-34.87-16.787-34.87-35.763zm64.575 0v-.197c0-17.189-12.516-31.3-29.705-31.3s-29.509 13.915-29.509 31.094v.206c0 17.18 12.521 31.291 29.705 31.291 17.19 0 29.509-13.914 29.509-31.094zm41.827-34.969h4.866l47.98 60.505v-60.505h4.969v69.544h-3.874l-48.977-61.796v61.796h-4.964v-69.544zm97.349 0h48.986v4.763h-43.811v28.521h39.338v4.763h-39.338v31.497h-5.175v-69.544zm84.048 0h49.482v4.763h-44.307v27.323h39.834v4.763h-39.834v27.932h44.812v4.763h-49.987v-69.544zm85.349 0h23.15c21.859 0 36.962 15 36.962 34.566v.206c0 19.576-15.103 34.772-36.962 34.772h-23.15v-69.544zm5.165 4.763v60.018h17.985c19.37 0 31.6-13.231 31.6-29.812v-.197c0-16.487-12.23-30.009-31.6-30.009h-17.985zm91.393-4.763h49.481v4.763h-44.307v27.323h39.834v4.763h-39.834v27.932h44.812v4.763h-49.987v-69.544zm85.349 0h29.205c8.543 0 15.402 2.686 19.576 6.85 3.275 3.285 5.268 7.954 5.268 12.913v.206c0 11.631-8.646 18.284-20.371 19.866l22.954 29.709h-6.56l-22.158-28.811h-22.748v28.811h-5.166v-69.544zm28.615 36.064c11.622 0 20.268-5.867 20.268-15.898v-.197c0-9.338-7.354-15.206-19.978-15.206h-23.74v31.3h23.45zm88.52-36.559h4.969l32.386 70.04h-5.661l-8.843-19.463h-41.042l-8.833 19.463h-5.361l32.385-70.04zm20.671 45.897l-18.284-40.236-18.387 40.236h36.671zm60.598-40.639h-24.245v-4.763h53.655v4.763h-24.245v64.781h-5.165v-64.781zm64.575-4.763h5.165v69.544h-5.165v-69.544zm42.314 34.969v-.197c0-18.986 14.017-35.97 35.071-35.97 21.063 0 34.875 16.797 34.875 35.764v.206c0 18.977-14.008 35.96-35.062 35.96-21.072.001-34.884-16.787-34.884-35.763zm64.584 0v-.197c0-17.189-12.52-31.3-29.7-31.3-17.199 0-29.513 13.915-29.513 31.094v.206c0 17.18 12.511 31.291 29.7 31.291s29.513-13.914 29.513-31.094zm41.819-34.969h4.875l47.993 60.505v-60.505h4.96v69.544h-3.874l-48.977-61.796v61.796h-4.978v-69.544z"/><path fill="#FFF" d="M130.966 69.623c-5.844 1.226-18.336 3.832-18.336 3.832v25.012c-36.896 6.452-71.972 14.939-104.381 25.274L0 126.37l66.353 201.179 46.277 5.951v9.432l64.828 39.254c16.479 36.503 52.612 59.934 92.863 59.934 1.918 0 3.888-.057 5.867-.169l48.121 29.148 71.485-43.287c4.15.028 8.291.047 12.342.047 107.731 0 174.122-11.828 197.37-35.156.056-.047.093-.075.093-.075.014-.028.038-.038.052-.065.136-.131.276-.271.402-.393l-.028-.047c5.498-6.391 7.612-13.727 9.507-19.267.547-1.628.926-3.378 1.184-5.034a38.87 38.87 0 0 0 .529-7.354v-.394l-.009.01c-.421-13.465-7.818-30.805-32.418-50.23-5.53-4.37-11.187-8.253-16.404-11.565l26.851-4.015V125.809l-6.176-1.802c-16.09-4.692-41.21-10.63-53.15-13.395V80.898l-10.522-2.652c-1.006-12.287-6.214-37.617-30.847-57.286 0 0-.188-.168-.585-.468-3.851-3.106-27.792-21.049-66.409-20.479-23.45.346-102.968.033-177.963 12.038-56.691 8.801-82.574 20.656-84.254 21.447-.001.001-41.07 16.614-34.393 36.125z"/><linearGradient id="a" gradientUnits="userSpaceOnUse" x1="139.363" y1="58.328" x2="376.278" y2="58.328"><stop offset="0"/><stop offset=".02" stop-color="#241f1f"/><stop offset=".05" stop-color="#3b282b"/><stop offset=".079" stop-color="#46232a"/><stop offset=".105" stop-color="#4d1926"/><stop offset=".13" stop-color="#520e23"/><stop offset=".15" stop-color="#540521"/><stop offset=".166" stop-color="#550120"/><stop offset=".515" stop-color="#b60d2e"/><stop offset=".688" stop-color="#b80d2d"/><stop offset=".786" stop-color="#bd0d2b"/><stop offset=".865" stop-color="#c60d26"/><stop offset=".934" stop-color="#d20b20"/><stop offset=".996" stop-color="#e20615"/><stop offset="1" stop-color="#e30613"/></linearGradient><path fill="url(#a)" d="M376.278 53.481c-24.68-3.677-263.714-37.911-234.435 22.645l3.434-.707s.173-.145.421-.328l.519-.861s.959-2.405 5.979-5.128c.59-.519 32.704-27.665 221.438 1.521"/><linearGradient id="b" gradientUnits="userSpaceOnUse" x1="33.556" y1="205.236" x2="730.868" y2="205.236"><stop offset="0" stop-color="#83d0f5"/><stop offset=".142" stop-color="#7bcdf4"/><stop offset=".327" stop-color="#61c7f2"/><stop offset=".537" stop-color="#18bcef"/><stop offset=".763" stop-color="#00adea"/><stop offset=".969" stop-color="#009fe3"/></linearGradient><path fill="url(#b)" d="M573.564 276.196s-240.143-56.21-486.747 28.792L33.556 140.926s257.43-77.437 540.008-3.388v138.658z"/><path d="M542.24 293.525l44.443-6.644v-154.64c-21.457-6.25-59.139-14.756-59.316-14.789V87.584l-10.34-2.611s2.171-33.78-28.343-57.735c0 0 17.751 17.321 17.751 45.818 0 15.117-5.535 32.072-19.599 46.113 0 0 27.084 4.599 40.48 7.533v.009c27.829 5.783 46.225 10.826 46.225 10.826v138.658c-75.055-15.44-149.811-18.396-199.083-18.186-18.069.154-36.971.776-56.551 2.03-13.929-8.286-30.201-13.049-47.587-13.049-25.635 0-48.846 10.331-65.703 27.071-38.454 7.196-78.05 17.218-117.823 30.926L33.532 140.926s55.4-16.946 144.159-27.272c57.272-6.794 128.056-10.911 206.171-6.045a66.092 66.092 0 0 1-6.19-12.59c-15.299-1.417-113.159-9.334-229.424 6.587v-9.245c49.87-10.003 122.24-10.541 122.24-10.541-110.22-21.718-125.21-6.4-125.21-6.4-1.657.323-24.062 5.011-24.062 5.011v25.279c-36.157 6.017-73.535 14.466-110.352 26.205L72.81 319.717l48.406 6.241v12.136l63.022 38.16c14.083 33.649 47.32 57.295 86.083 57.295 2.686 0 5.343-.122 7.977-.336l46.01 27.856 69.127-41.846c73.736.748 178.268-3.678 206.433-33.013 0 0-41.238 39.965-249.823 2.957-16.581 23.104-44.218 37.523-74.709 35.867-35.212-1.909-64.318-24.703-76.005-55.704 13.067 25.583 39.02 43.736 69.773 45.411 45.978 2.47 85.269-32.779 87.753-78.761 1.582-29.13-12.005-55.555-33.86-71.664a86.734 86.734 0 0 1 19.913 15.828c43.881-5.802 157.358-5.016 157.358-5.016v49.584l-16.688 10.106c43.657 3.238 44.008-12.997 44.008-12.997v-17.639c82.995 31.16 79.734 66.138 79.734 66.138 12.579-40.9-65.082-76.795-65.082-76.795zm-365.176 48.818l-28.736-17.629v-6.756s18.958-5.427 34.299-9.554a93.221 93.221 0 0 0-5.582 31.862c.001.711.006 1.403.019 2.077zm146.415 74.559c5.039.281 12.843.692 22.701 1.104l-21.873 13.241-12.366-7.477a93.388 93.388 0 0 0 11.538-6.868zm22.243-93.367c0 37.064-30.037 67.083-67.092 67.083s-67.092-30.019-67.092-67.083c0-37.055 30.037-67.088 67.092-67.088s67.092 30.032 67.092 67.088z"/><path fill="#FFF" d="M379.876 92.777v-.018.014z"/><path d="M412.959 11.453C240.199 7.766 169.013 41.26 169.013 41.26c65.015-15.771 191.545 1.016 210.419 3.659a66.59 66.59 0 0 1 33.527-33.466z"/><linearGradient id="c" gradientUnits="userSpaceOnUse" x1="353.666" y1="371.415" x2="603.933" y2="371.415"><stop offset=".012" stop-color="#fde900"/><stop offset=".073" stop-color="#f4e600"/><stop offset=".179" stop-color="#dcdb00"/><stop offset=".319" stop-color="#b1cb09"/><stop offset=".484" stop-color="#66b32e"/><stop offset=".546" stop-color="#3aaa35"/><stop offset="1" stop-color="#145b1e"/></linearGradient><path fill="url(#c)" d="M596.709 353.956c5.975 25.648-53.141 22.729-53.141 22.729-76.458-.374-170.66-32.096-177.471-34.416-.015.439-.023.907-.047 1.366-.796 14.7-5.236 28.343-12.385 40.105 87.884 16.778 157.994 16.815 157.994 16.815 129.021.59 85.05-46.599 85.05-46.599z"/><linearGradient id="d" gradientUnits="userSpaceOnUse" x1="359.229" y1="337.698" x2="590.644" y2="337.698"><stop offset="0" stop-color="#fff59b"/><stop offset=".087" stop-color="#fff596"/><stop offset=".2" stop-color="#fff385"/><stop offset=".328" stop-color="#fff068"/><stop offset=".465" stop-color="#ffec34"/><stop offset=".592" stop-color="#fde900"/><stop offset=".665" stop-color="#fae800"/><stop offset=".726" stop-color="#f1e500"/><stop offset=".784" stop-color="#e4df00"/><stop offset=".839" stop-color="#cfd600"/><stop offset=".892" stop-color="#b1cb09"/><stop offset=".944" stop-color="#87bd24"/><stop offset=".994" stop-color="#47ac34"/><stop offset="1" stop-color="#3aaa35"/></linearGradient><path fill="url(#d)" d="M531.723 322.833c19.777 22.43-30.407 18.752-30.407 18.752-76.852-3.5-135.555-33.116-142.087-36.522a85.332 85.332 0 0 1 6.676 27.192c96.531 40.265 180.943 38.057 180.943 38.057 106.703-3.013-15.125-47.479-15.125-47.479z"/><radialGradient id="e" cx="302.579" cy="345.328" r="92.501" gradientUnits="userSpaceOnUse"><stop offset=".012" stop-color="#fff"/><stop offset=".094" stop-color="#fffffb"/><stop offset=".203" stop-color="#fffdef"/><stop offset=".329" stop-color="#fffbdb"/><stop offset=".465" stop-color="#fff8bc"/><stop offset=".577" stop-color="#fff59b"/><stop offset="1" stop-color="#fde900"/></radialGradient><path fill="url(#e)" d="M232.456 372.165c7.528 21.793 26.519 38.3 49.739 42.258 11.397-1.151 22.163-4.65 31.796-9.984a56.786 56.786 0 0 1-21.035 4.033c-20.596 0-38.679-10.958-48.733-27.352 10.063 6.026 21.84 9.498 34.43 9.498 35.23 0 64.098-27.155 66.858-61.675a56.668 56.668 0 0 1 4.576 22.393 56.696 56.696 0 0 1-4.608 22.448 82.59 82.59 0 0 0 10.822-31.488A63.767 63.767 0 0 0 345.1 314.29c-4.506-32.676-32.526-57.843-66.447-57.843-37.06 0-67.087 30.033-67.087 67.088-.001 19.135 8.028 36.409 20.89 48.63z"/><path d="M343.808 281.099a85.998 85.998 0 0 1 11.28 15.617c5.619 3.116 46.964 25.312 96.198 33.649.001 0-63.62-16.824-107.478-49.266z"/><path fill="#FFF" d="M323.021 264.316c21.85 16.109 35.437 42.534 33.86 71.664-2.484 45.982-41.771 81.231-87.753 78.761-30.758-1.675-56.706-19.828-69.773-45.411 11.687 31.001 40.793 53.795 76 55.704 47.517 2.573 88.127-33.874 90.696-81.399 1.82-33.528-15.805-63.603-43.03-79.319z"/><path d="M231.707 362.068l8.66 7.439-.533-7.008-8.651-7.43-7.444 8.618.52 7.037z"/><path d="M231.482 347.761l6.709 9.245 1.095-6.944-6.695-9.254-9.236 6.719-1.123 6.943z"/><path d="M234.645 333.612l4.534 10.499 2.592-6.559-4.534-10.471-10.466 4.52-2.606 6.531z"/><path d="M241.008 320.54l1.942 11.257 4.047-5.755-1.933-11.248-11.242 1.938-4.071 5.736z"/><path d="M250.244 309.292l-.744 11.389 5.292-4.641.734-11.398-11.379-.748-5.295 4.641z"/><path d="M261.917 300.515l-3.392 10.911 6.227-3.284 3.393-10.892-10.893-3.388-6.241 3.257z"/><path d="M275.368 294.779l-5.904 9.788 6.835-1.703 5.895-9.769-9.768-5.895-6.836 1.675z"/><path d="M289.746 292.291l-8.001 8.149 7.042-.074 7.991-8.132-8.132-7.991-7.045.037z"/><path d="M304.217 293.235l-9.685 6.064 6.859 1.563 9.671-6.045-6.04-9.676-6.859-1.6z"/><path d="M318.127 297.596l-10.864 3.537 6.279 3.191 10.85-3.537-3.533-10.846-6.264-3.2z"/><path d="M330.619 305.101l-11.388.907 5.352 4.557 11.379-.898-.899-11.36-5.347-4.585zm138.728-169.35c-6.021-1.043-10.766-.084-13.686.889a22.751 22.751 0 0 1 3.187-.234c1.184 0 2.396.089 3.598.276a983.314 983.314 0 0 1 46.572 8.894v-.014l5.221 1.146 5.235 1.16a993.391 993.391 0 0 1 26.837 6.499l6.452 1.656-.014 45.374-13.877-10.896c-1.619-1.263-6.396-3.87-14.013-5.549l-16.693-3.514a977.175 977.175 0 0 0-30.252-5.619v31.487l50.801 7.533c3.205.566 6.27.866 8.88.866 2.091 0 3.537-.201 4.188-.393l2.676-.777c-.421.023-.908.047-1.479.047-2.377 0-5.184-.276-8.136-.8l-47.264-7.013v-22.687a956.306 956.306 0 0 1 25.078 4.721l16.651 3.509c7.13 1.567 11.294 3.954 12.291 4.74l17.269 13.554-6.105 1.773v42.225l-10.106-1.811a897.16 897.16 0 0 0-20.989-3.523 953.04 953.04 0 0 0-61.258-7.463c-10.195-1.029-18.855-8.211-21.124-17.451-.033-.154-.375-1.535-.515-3.153-1.554 10.105-10.635 17.643-21.929 17.643 0 0-.351-.004-.524-.004a956.939 956.939 0 0 0-37.851-.763c-8.028 0-16.16.107-24.198.318-6.985.168-14.19.435-21.396.786l-8.988.421v-12.487c-3.032 6.742-9.189 13.077-20.6 14.078l-3.504.295c-17.297 1.493-49.5 4.267-90.86 11.907l-24.713 4.552 9.517-8.903c9.072-7.935 9.582-23.365 9.577-23.52v-53.262a7686.938 7686.938 0 0 0-23.206 81.208l-1.395 4.969-5.053 1.114a992.539 992.539 0 0 0-31.09 7.289l-7.86 1.975-.819-2.625-.819 3.069-4.8 1.292a936.628 936.628 0 0 0-30.351 8.637l-8.202 2.47 2.526 8.506c102.496-32.704 203.092-40.33 215.243-41.387 12.151-1.076 17.484-6.12 17.484-6.12v4.618c66.77-2.835 77.849-1.54 94.799-1.053 16.951.5 23.936-10.195 23.936-10.195 8.492 14.359 27.993 13.797 27.993 13.797 34.117 2.629 90.738 13.082 90.738 13.082V155.855c-44.455-11.781-82.745-18.321-93.08-20.104zm-363.319 8.337s-12.455 10.63-5.114 32.84l9.283 30.907c.875-3.261 1.74-6.522 2.61-9.769a6391.75 6391.75 0 0 1-5.806-19.117l-2.686-8.871 4.038-.889c-1.034-12.67 5.834-18.668 5.834-18.668l-3.743-7.439-5.034 1.146v.004l.618-.144zm38.263 18.051l2.162 7.042a9410.448 9410.448 0 0 0 9.245 29.943l4.234-15.051-7.397-23.973-8.352 1.698.108.341zm24.521-17.152c-.814-6.531-4.506-9.231-7.098-10.34l-1.567-.543-1.024-.215-3.397.374 6.765 6.826c-.001 0 4.159-.079 6.321 3.898zm148.07-17.489c2.924 2.208 6.208 5.961 8.061 12.151.974-3.027 2.611-5.755 4.721-8.057l-.014-.009c-7.145-9.058-23.969-8.146-23.969-8.146.936 0 6.101.201 11.201 4.061z"/><path d="M346.054 124.391c.206 0 .417.005.623.009a980.644 980.644 0 0 1 70.564 5.605c11.781 1.399 21.255 11.084 21.746 22.145l.005.028a18.4 18.4 0 0 1 5.273-10.083c-4.698-6.484-9.231-11.514-25.476-13.676-17.47-2.325-65.081-5.072-65.081-5.072-4.206-.206-7.935.721-9.296 1.109.542-.037 1.09-.065 1.642-.065z"/><path fill="#FFF" d="M134.699 268.817l7.86-1.975a991.878 991.878 0 0 1 31.09-7.289l5.053-1.114 1.395-4.969a7686.938 7686.938 0 0 1 23.206-81.208v53.262c.005.155-.505 15.585-9.577 23.52l-9.517 8.903 24.713-4.552c41.359-7.64 73.562-10.415 90.86-11.907l3.504-.295c11.411-1.001 17.568-7.336 20.6-14.078v12.487l8.988-.421c7.205-.351 14.41-.618 21.396-.786 8.038-.21 16.17-.318 24.198-.318 12.529 0 25.241.262 37.851.763.173 0 .524.004.524.004 11.294 0 20.375-7.538 21.929-17.643.14 1.619.481 2.999.515 3.153 2.269 9.24 10.929 16.422 21.124 17.451a953.127 953.127 0 0 1 61.258 7.463 897.16 897.16 0 0 1 20.989 3.523l10.106 1.811V212.12l-10.981 3.191c-.65.192-2.096.393-4.188.393-2.611 0-5.675-.299-8.88-.866l-50.801-7.533v-31.487a977.175 977.175 0 0 1 30.252 5.619l16.693 3.514c7.617 1.679 12.394 4.286 14.013 5.549l13.877 10.896.014-45.374-6.452-1.656a993.391 993.391 0 0 0-26.837-6.499l-5.235-1.16-5.221-1.146v.014a983.314 983.314 0 0 0-46.572-8.894 23.361 23.361 0 0 0-3.598-.276c-10.265 0-18.271 6.579-19.856 15.772l-.005-.028c-.491-11.061-9.965-20.745-21.746-22.145a980.644 980.644 0 0 0-70.564-5.605c-.206-.004-.417-.009-.623-.009-9.872 0-18.256 6.415-21.11 15.257-1.853-6.19-5.137-9.942-8.061-12.151-5.1-3.859-10.265-4.061-11.201-4.061a533.987 533.987 0 0 0-6.728-.047c-41.219 0-87.449 4.468-87.983 4.524l-41.443 4.796-10.405 1.179c.033.028 15.875 1.576 7.322 26.972l-10.747 38.262a9490.938 9490.938 0 0 1-9.245-29.943l-2.27-7.383-7.574 1.474a963.196 963.196 0 0 0-23.234 4.81l-9.058 1.998 2.686 8.871a6391.75 6391.75 0 0 0 5.806 19.117c-.87 3.247-1.736 6.508-2.61 9.769l-9.283-30.907c-7.341-22.21 5.114-32.84 5.114-32.84l-9.746 2.241-7.902 1.89-35.853 8.81 2.508 8.599a9716.512 9716.512 0 0 0 32.185 107.844l2.489 8.188 8.202-2.47a935.905 935.905 0 0 1 30.351-8.637l4.8-1.292"/><path fill="#009FE3" d="M170.019 136.967s6.962 1.895.562 25.055l-14.668 52.214c-4.58-14.658-9.119-29.34-13.568-43.802l-1.127-3.687-3.79.734a980.665 980.665 0 0 0-23.136 4.795l-4.524.997 1.343 4.44a6020.48 6020.48 0 0 0 6.162 20.277 8844.039 8844.039 0 0 0-6.826 25.606l-13.638-45.435c-6.485-21.601.473-27.656.473-27.656l-7.865 1.876-31.511 7.738 1.259 4.3a9717.541 9717.541 0 0 0 32.151 107.797l1.259 4.089 4.094-1.226a958.384 958.384 0 0 1 30.491-8.684l2.4-.631.636-2.419c1.123-4.206 2.237-8.394 3.359-12.586.94 3.022 4.033 12.899 4.033 12.899l3.925-.987a994.222 994.222 0 0 1 31.226-7.322l2.522-.552.702-2.494a7848.356 7848.356 0 0 1 31.632-109.879v82.986s.463 17.368-9.806 25.574l10.354-1.815c41.561-7.678 73.895-10.461 91.271-11.954l3.5-.299c15.805-1.385 19.473-15.037 19.211-22.153v-23.075c0-4.497-1.82-7.626-4.342-9.755 3.528-3.106 4.492-7.027 4.342-9.572v-21.77c0-11.36-4.258-16.97-7.833-19.674-4.089-3.097-8.244-3.196-8.665-3.196a525.075 525.075 0 0 0-6.672-.037c-41.065 0-87.028 4.449-87.491 4.491l-41.445 4.792zm121.201 69.61c0 .463-1.492 1.076-2.508 1.254a973.91 973.91 0 0 0-50.474 5.198l-.028-10.223c11.084-1.235 45.688-4.534 51.138-4.534l.239.005.159-.009c.098-.009.196-.014.285-.014.753 0 1.067.107 1.188.683v7.64zm0-40.19c0 .065-.005.098-.005.098-.149.248-1.076.763-2.414.968a980.648 980.648 0 0 0-50.562 3.649l-.028-10.237c10.897-.884 43.438-2.976 50.479-2.976.248 0 .449.004.604.009l.164.009.309-.009c.847 0 1.319.141 1.455.828v7.661zm151.771 53.482v-64.402c.033-8.426 6.845-14.766 15.856-14.766.973 0 1.97.07 2.947.22a977.876 977.876 0 0 1 51.513 9.989v-.014l5.24 1.165a971.297 971.297 0 0 1 26.701 6.461l3.229.833-.014 33.219-6.938-5.441c-2.363-1.862-7.912-4.646-15.744-6.368l-16.726-3.528a959.128 959.128 0 0 0-35.137-6.429 1.752 1.752 0 0 0-.206-.014c-.028 0-.061.004-.094.004v39.441c.089.257.604.819 1.413.978l52.939 7.846c3.434.608 6.765.932 9.624.932 2.227 0 4.141-.197 5.385-.566l5.498-1.591v31.633l-5.058-.903a849.35 849.35 0 0 0-21.091-3.537 949.245 949.245 0 0 0-61.539-7.495c-8.52-.861-15.528-6.821-17.334-14.205 0 0-.464-1.81-.464-3.462zm-8.43-31.446l-.005 29.775c-.033 9.175-7.884 16.352-17.868 16.352 0 0-.295-.005-.44-.005a960.954 960.954 0 0 0-37.939-.749c-8.057 0-16.235.094-24.301.304-7.042.183-14.279.444-21.494.786l-4.496.225v-37.654l6.592 4.192c2.031 1.291 7.107 2.793 14.743 2.793.267 0 20.352-.145 20.352-.145v.107c7.682.126 24.006.412 33.377.81.436-.028.697-.215.758-.351v-6.611a967.182 967.182 0 0 0-54.273-1.53c-1.179 0-3.701.004-3.701.004-9.984-.318-17.826-8.159-17.84-17.868v-32.629c.023-9.68 8.042-17.549 17.868-17.549.173 0 .342 0 .51.009a977.011 977.011 0 0 1 70.18 5.577c9.75 1.16 17.723 9.343 17.971 18.345l.005.033v19.552l-6.831-5.011c-2.452-1.792-8.281-3.93-15.767-4.65l-15.075-1.315a993.535 993.535 0 0 0-38.075-2.353v7.303c.005.426.529.959 1.226.982a980.21 980.21 0 0 1 56.425 3.2c8.211.721 15.262 6.55 17.409 13.774.001.002.689 2.505.689 4.297z"/><linearGradient id="f" gradientUnits="userSpaceOnUse" x1="303.726" y1="124.168" x2="303.726" y2="282.329"><stop offset=".129" stop-color="#002e52"/><stop offset=".737" stop-color="#005faa"/><stop offset="1" stop-color="#009fe3"/></linearGradient><path fill="url(#f)" d="M544.177 244.343a865.152 865.152 0 0 0-21.19-3.551 952.032 952.032 0 0 0-61.814-7.528c-7.561-.772-13.718-6.663-13.872-13.391l-.019-.004v-64.402c.023-6.817 6.237-11.458 13.877-10.302a971.652 971.652 0 0 1 56.444 11.107v-.023a966.254 966.254 0 0 1 26.575 6.428l-.004 21.078c-3.425-2.69-9.952-5.525-17.471-7.182l-15.079-3.177v-.014a957.638 957.638 0 0 0-37.013-6.807c-2.915-.435-5.273 1.272-5.282 3.813v40.12c.178 2.349 2.339 4.473 4.997 4.941l52.893 7.841c7.159 1.268 13.414 1.292 16.96.267v20.786zm-113.907-55.92h-.014c-.168-6.882-6.475-13.119-14.171-13.792a964.52 964.52 0 0 0-56.224-3.182c-2.933-.122-5.324-2.47-5.338-5.277v-11.767a988.586 988.586 0 0 1 42.735 2.541l15.117 1.319c7.734.744 14.462 2.953 17.896 5.469v-10.7c0-.009-.004-.014 0-.028-.023-6.98-6.381-13.549-14.186-14.476a967.62 967.62 0 0 0-69.796-5.554c-7.688-.206-13.952 5.746-13.971 13.254v32.625c.014 7.406 6.134 13.343 13.685 13.587a962.035 962.035 0 0 1 62.133 1.768v10.958c-.201 2.457-2.376 4.305-5.081 4.342-12.53-.533-37.635-.87-37.635-.87v-.023l-15.206.112c-7.72.112-14.429-1.249-17.905-3.458v25.335a980.542 980.542 0 0 1 21.592-.795 951.337 951.337 0 0 1 62.437.449c7.683.164 13.9-5.156 13.929-12.062l.003-29.775zm-253.149-47.956c.004.033 3.326 2.69-2.415 22.71l-18.574 66.133a9978.823 9978.823 0 0 1-17.887-57.608 956.07 956.07 0 0 0-23.033 4.763c2.176 7.167 4.347 14.321 6.518 21.447a10096.886 10096.886 0 0 0-11.023 41.49l-18.018-60.009c-5.643-18.949-2.255-22.86-2.255-22.841l-27.16 6.672a9770.44 9770.44 0 0 0 32.152 107.741 977.564 977.564 0 0 1 30.622-8.711 7323.375 7323.375 0 0 1 7.21-26.917c2.395 7.762 4.8 15.478 7.214 23.174a1032.586 1032.586 0 0 1 31.356-7.355 7695.168 7695.168 0 0 1 32.845-113.996l-27.552 3.307zm140.706 74.382s.697 16.399-15.29 17.789c-15.992 1.399-50.385 4.047-95.178 12.31 0 0 4.529-3.944 4.529-19.534v-88.965s50.782-4.969 93.681-4.431c0 0 12.258 0 12.258 18.574v21.919s.711 8.08-11.813 9.68c0 0 11.813.103 11.813 9.498v23.16zm-22.312-16.23s-.384-4.988-6.031-4.637c-5.685-.075-55.597 4.711-55.587 5.081.023 6.279.038 12.567.061 18.855a977.793 977.793 0 0 1 55.255-5.825s6.302-.796 6.302-5.517v-7.957zm0-40.181c0 .009-.384-4.997-6.031-4.819-5.685-.257-55.597 3.018-55.587 3.383.023 6.293.038 12.567.061 18.851a971.483 971.483 0 0 1 55.255-4.122c0-.009 6.302-.613 6.302-5.343v-7.95z"/><g fill="#171944"><path d="M527.217 223.289l-51.348-7.607v.178c.173 2.354 2.334 4.473 4.997 4.936l52.893 7.846c3.822.673 7.388 1.001 10.419.997v-6.083c-3.547 1.025-9.803 1.001-16.961-.267z"/><path d="M453.841 225.221l-.019-.004v-64.393c.023-6.817 6.232-11.463 13.877-10.312a976.263 976.263 0 0 1 56.439 11.117v-.028a941.266 941.266 0 0 1 20.039 4.772v-3.696a966.254 966.254 0 0 0-26.575-6.428v.023a969.812 969.812 0 0 0-56.444-11.107c-7.64-1.156-13.854 3.485-13.877 10.302v64.402l.019.004c.117 5.133 3.738 9.769 8.8 12.02-1.374-1.983-2.203-4.276-2.259-6.672z"/></g><g fill="#171944"><path d="M427.823 181.349c-2.555-3.63-6.864-6.288-11.739-6.718a973.648 973.648 0 0 0-55.021-3.149v.038c.009 2.812 2.396 5.161 5.333 5.273a971.871 971.871 0 0 1 56.233 3.191 16.27 16.27 0 0 1 5.194 1.365z"/><path d="M341.006 191.38a13.143 13.143 0 0 1-2.143-7.177v-32.62c.019-7.514 6.279-13.465 13.966-13.25a964.558 964.558 0 0 1 69.801 5.549 16.37 16.37 0 0 1 4.987 1.437c-2.578-3.565-6.784-6.223-11.533-6.789a967.62 967.62 0 0 0-69.796-5.554c-7.688-.206-13.952 5.746-13.971 13.254v32.625c.014 5.676 3.612 10.481 8.689 12.525zm-2.157 19.244c3.472 2.208 10.181 3.561 17.9 3.453l15.206-.103v.019s25.115.332 37.64.865c2.705-.033 4.88-1.885 5.086-4.337v-10.962c-2.18-.131-4.365-.253-6.545-.37v5.979c-.201 2.457-2.376 4.305-5.081 4.342-12.53-.533-37.635-.87-37.635-.87v-.023l-15.206.112c-7.72.112-14.429-1.249-17.905-3.458v25.335c2.186-.107 4.361-.182 6.541-.276v-19.706z"/></g><path d="M113.023 230.672l4.225 14.083a9138.198 9138.198 0 0 1 11.023-41.491c-2.175-7.125-4.346-14.279-6.517-21.447a989.527 989.527 0 0 1 18.429-3.846l-1.937-6.269a956.07 956.07 0 0 0-23.033 4.763c2.176 7.167 4.347 14.321 6.518 21.447a9450.614 9450.614 0 0 0-8.708 32.76zm45.411-9.545c1.413 4.515 2.831 9.035 4.234 13.54l18.579-66.138c5.741-20.02 2.419-22.682 2.41-22.706l19.136-2.307c.631-2.12 1.258-4.248 1.881-6.358l-27.553 3.308c.004.033 3.326 2.69-2.415 22.71l-16.272 57.951zm-18.635 19.562c-.758 2.798-1.511 5.61-2.265 8.417.978 3.14 1.951 6.274 2.938 9.404 1.497-.375 3.008-.739 4.515-1.113-1.731-5.554-3.466-11.112-5.188-16.708zm-69.984-72.112l19.678-4.838c-.37-5.694.94-7.2.94-7.187l-27.16 6.672a9770.44 9770.44 0 0 0 32.152 107.741c1.502-.449 3.004-.889 4.505-1.338a9800.226 9800.226 0 0 1-30.115-101.05zm232.236-4.782s-.379-5.006-6.031-4.828l-.505-.014v7.435c0 4.73-6.302 5.333-6.302 5.343a969.902 969.902 0 0 0-48.729 3.472l.014 5.998a974.027 974.027 0 0 1 55.255-4.117c0-.014 6.297-.608 6.297-5.343l.001-7.946zm-6.298 53.65s6.297-.8 6.297-5.516v-7.958s-.379-4.987-6.031-4.641c-.145 0-.313 0-.505.009v7.238c0 4.721-6.302 5.512-6.302 5.512a981.295 981.295 0 0 0-48.733 4.974c.009 2.068.014 4.141.019 6.204a971.07 971.07 0 0 1 55.255-5.822z" fill="#171944"/><path fill="#171944" d="M218.419 230.766v-88.97s50.792-4.955 93.695-4.426c0 0 1.169 0 2.784.548-3.621-5.896-9.329-5.9-9.329-5.9-42.899-.538-93.681 4.431-93.681 4.431v88.965c0 15.59-4.529 19.534-4.529 19.534 3.317-.604 6.578-1.184 9.783-1.745.721-2.935 1.277-6.968 1.277-12.437z"/><path fill="#FFF" d="M506.425 72.167c.533 35.857-29.724 66.391-66.391 66.391s-66.399-29.724-66.399-66.391c0-36.671 29.733-66.395 66.399-66.395 36.667 0 65.848 29.729 66.391 66.395z"/><path d="M450.88 13.909c-32.119-6.017-63.06 15.154-69.067 47.278-6.021 32.128 15.159 63.055 47.283 69.062 32.128 6.021 63.055-15.14 69.071-47.269 6.026-32.128-15.154-63.045-47.287-69.071zm27.108 64.079c-4.754 25.438-29.237 42.179-54.666 37.42-25.419-4.758-42.188-29.237-37.411-54.661 4.749-25.438 29.237-42.178 54.666-37.42 25.424 4.754 42.178 29.228 37.411 54.661z"/><radialGradient id="g" cx="410.498" cy="67.149" r="73.594" gradientUnits="userSpaceOnUse"><stop offset=".012" stop-color="#fff"/><stop offset=".329" stop-color="#fbfbfb"/><stop offset=".713" stop-color="#f1f1f1"/><stop offset=".822" stop-color="#ededed"/><stop offset=".994" stop-color="#c6c6c6"/></radialGradient><path fill="url(#g)" d="M440.577 23.327c25.424 4.753 42.178 29.228 37.411 54.661-4.754 25.438-29.237 42.179-54.666 37.42-25.419-4.758-42.188-29.237-37.411-54.661 4.749-25.438 29.237-42.178 54.666-37.42z"/><path d="M462.646 97.98l3.528-6.307-4.285 1.221-3.519 6.298 6.293 3.514 4.286-1.207z"/><path d="M453.813 99.921l4.875-5.319-4.44.196-4.88 5.32 5.32 4.876 4.445-.188z"/><path d="M444.647 99.749l5.924-4.132-4.38-.777-5.922 4.127 4.122 5.914 4.383.795z"/><path d="M435.739 97.456l6.733-2.62-4.075-1.787-6.728 2.619 2.625 6.724 4.075 1.796z"/><path d="M427.604 93.156l7.153-.987-3.547-2.681-7.148.978.977 7.149 3.542 2.695z"/><path d="M420.697 87.032l7.187.725-2.817-3.448-7.181-.726-.721 7.178 2.803 3.453z"/><path d="M415.448 79.424l6.803 2.414-1.914-4.018-6.798-2.415-2.419 6.789 1.9 4.029z"/><path d="M412.089 70.825l6.058 3.93-.93-4.36-6.055-3.921-3.925 6.054.917 4.356z"/><path d="M410.844 61.744l4.983 5.235.108-4.454-4.969-5.231-5.231 4.969-.126 4.449z"/><path d="M411.799 52.569l3.56 6.283 1.179-4.286-3.56-6.278-6.274 3.551-1.193 4.29z"/><path d="M414.868 43.885l1.998 6.939 2.147-3.898-1.993-6.929-6.929 1.989-2.161 3.888z"/><path d="M419.902 36.175l.314 7.214 3.008-3.28-.313-7.21-7.206.309-3.017 3.275z"/><path d="M426.574 29.84l-1.315 7.097 3.668-2.526 1.31-7.093-7.092-1.315-3.673 2.513z"/><path d="M434.546 25.264l-3.008 6.569 4.169-1.558 2.999-6.56-6.56-3.004-4.178 1.544zm36.307 68.739l1.951-6.952-3.874 2.18-1.955 6.953 6.947 1.95 3.884-2.175z"/><linearGradient id="h" gradientUnits="userSpaceOnUse" x1="152.197" y1="72.703" x2="375.618" y2="72.703"><stop offset="0" stop-color="#b60d2e"/><stop offset="1" stop-color="#e30613"/></linearGradient><path fill="url(#h)" d="M373.635 70.624c-188.733-29.186-220.848-2.04-221.438-1.521 14.495-7.874 62.91-18.429 220.142 18.462 1.993.43 3.135.688 3.279.716a72.723 72.723 0 0 1-.486-2.073c-1.858-8.323-1.497-15.584-1.497-15.584z"/></svg>