<svg xmlns="http://www.w3.org/2000/svg" viewBox="0 0 337.6 275.3"><path d="M22 257.1h4c3.1 0 5.8 1.1 5.8 4.6 0 3.4-2.7 4.6-5.4 4.6h-2.2v6.1H22v-15.3zm2.2 7.2h2.2c1.4 0 3.1-.7 3.1-2.7 0-1.9-2-2.6-3.4-2.6h-1.9v5.3zm9.9-3.1H36v1.7c.5-1.2 1.7-2 2.9-2 .6 0 .9.1 1.4.2v1.8c-.4-.2-.8-.2-1.1-.2-1.8 0-3.1 1.8-3.1 4.6v5.1H34v-11.2zm17.2 10.7c-.8.3-1.7.7-3.5.7-4 0-5.8-2.4-5.8-6.1 0-3.3 2.1-5.7 5.2-5.7 3.7 0 4.9 2.7 4.9 6.3h-8c0 2.2 1.7 3.7 3.7 3.7 1.4 0 2.9-.7 3.4-1.1v2.2zm-1.4-6.2c0-1.7-1-3.1-2.8-3.1-2 0-2.9 1.7-3 3.1h5.8zm10 6.7h-2.5l-4-11.2h2.3l3 9.1 3.1-9.1h2.1l-4 11.2zm14.6-.5c-.8.3-1.7.7-3.5.7-4 0-5.8-2.4-5.8-6.1 0-3.3 2.1-5.7 5.2-5.7 3.7 0 4.9 2.7 4.9 6.3h-8c0 2.2 1.7 3.7 3.7 3.7 1.4 0 2.9-.7 3.4-1.1v2.2zm-1.4-6.2c0-1.7-1-3.1-2.8-3.1-2 0-2.9 1.7-3 3.1h5.8zm5-4.5h2v1.8c.6-1.3 2.1-2 3.7-2 2.9 0 4.2 1.8 4.2 4.8v6.7h-2.1v-5.8c0-2.6-.6-3.9-2.4-4-2.3 0-3.4 1.9-3.4 4.6v5.2H78v-11.3zm12.6 9.4l6.5-7.7H91v-1.7h8.5v1.8l-6.5 7.7h6.7v1.7h-9.1v-1.8zm14.3-11.9h-2.3v-2.3h2.3v2.3zm-2.2 2.5h2.1v11.2h-2.1v-11.2zm10.8-.3c3.4 0 5.7 2.5 5.7 5.9 0 3.2-2.3 5.9-5.7 5.9-3.4 0-5.7-2.7-5.7-5.9 0-3.4 2.3-5.9 5.7-5.9zm0 10.1c2.4 0 3.5-2.2 3.5-4.2 0-2.1-1.3-4.2-3.5-4.2s-3.5 2.1-3.5 4.2c0 2 1 4.2 3.5 4.2zm8.4-9.8h2v1.8c.6-1.3 2.1-2 3.7-2 2.9 0 4.2 1.8 4.2 4.8v6.7h-2.1v-5.8c0-2.6-.6-3.9-2.4-4-2.3 0-3.4 1.9-3.4 4.6v5.2h-2v-11.3zm22 10.7c-.8.3-1.7.7-3.5.7-4 0-5.8-2.4-5.8-6.1 0-3.3 2.1-5.7 5.2-5.7 3.7 0 4.9 2.7 4.9 6.3h-8c0 2.2 1.7 3.7 3.7 3.7 1.4 0 2.9-.7 3.4-1.1v2.2zm-1.3-6.2c0-1.7-1-3.1-2.8-3.1-2 0-2.9 1.7-3 3.1h5.8zm5 4.3h2.5l-1.9 5.4h-2l1.4-5.4zm19.3-6.9c-.8-.3-1.6-.5-2.2-.5-2.3 0-3.6 2.1-3.6 4.2 0 2 1.1 4.2 3.7 4.2.7 0 1.6-.2 2.2-.6l.2 1.8c-.9.4-1.8.5-2.6.5-3.4 0-5.7-2.7-5.7-5.9 0-3.4 2.3-5.9 5.7-5.9.8 0 1.9.2 2.5.4l-.2 1.8zm12.6 9.3h-2v-1.8c-.6 1.3-2.1 2-3.7 2-2.9 0-4.2-1.8-4.2-4.8v-6.7h2.1v5.8c0 2.6.6 3.9 2.4 4 2.4 0 3.4-1.9 3.4-4.6v-5.2h2.1v11.3zm3.5-11.2h1.9v1.7c.6-1.2 1.7-2 2.9-2 .6 0 .9.1 1.4.2v1.8c-.4-.2-.8-.2-1.1-.2-1.8 0-3 1.8-3 4.6v5.1h-2.1v-11.2zm9 .8c1-.6 2.3-1.1 3.7-1.1 3.2 0 4.5 1.6 4.5 4.6v4.6c0 1.3 0 1.9.1 2.2h-1.9V271c-.5.7-1.6 1.7-3.5 1.7-2.4 0-4.1-1.1-4.1-3.5 0-2.8 3.1-3.7 5.2-3.7h2.2c0-1.9-.7-2.9-2.8-2.9-1.2 0-2.4.4-3.3 1.1l-.1-1.7zm6.2 5.1H197c-1.1 0-3.9.2-3.9 2.2 0 1.2 1.1 1.8 2.1 1.8 2 0 3.1-1.3 3.1-2.9v-1.1zm5.6 2.9h2.5l-1.9 5.4h-2l1.4-5.4zm12.1-14.1h2.1v6.8c.6-1 1.8-1.8 3.7-1.8 3.2 0 4.8 2.7 4.8 5.7 0 3.1-1.4 6.1-4.8 6.1-2 0-3.3-1-3.8-1.8v1.6h-2v-16.6zm5.4 6.7c-2.2 0-3.3 2.1-3.3 4.2 0 1.9 1 4.2 3.3 4.2 2.2 0 3.1-2.5 3.1-4.2 0-2.1-.8-4.2-3.1-4.2zm16.7 9.3c-.8.3-1.7.7-3.5.7-4 0-5.8-2.4-5.8-6.1 0-3.3 2.1-5.7 5.2-5.7 3.7 0 4.9 2.7 4.9 6.3h-8c0 2.2 1.7 3.7 3.7 3.7 1.4 0 2.9-.7 3.4-1.1v2.2zm-1.4-6.2c0-1.7-1-3.1-2.8-3.1-2 0-2.9 1.7-3 3.1h5.8zm5-4.5h2v1.8c.6-1.3 2.1-2 3.7-2 2.9 0 4.2 1.8 4.2 4.8v6.7h-2.1v-5.8c0-2.6-.6-3.9-2.4-4-2.3 0-3.4 1.9-3.4 4.6v5.2h-2.1v-11.3zm22 10.7c-.8.3-1.7.7-3.5.7-4 0-5.8-2.4-5.8-6.1 0-3.3 2.1-5.7 5.2-5.7 3.7 0 4.9 2.7 4.9 6.3h-8c0 2.2 1.7 3.7 3.7 3.7 1.4 0 2.9-.7 3.4-1.1v2.2zm-1.3-6.2c0-1.7-1-3.1-2.8-3.1-2 0-2.9 1.7-3 3.1h5.8zm4.1 4.5c.8.5 2 .8 2.6.8.9 0 2.1-.4 2.1-1.6 0-2-4.9-1.9-4.9-5 0-2.3 1.7-3.4 3.9-3.4 1 0 1.8.2 2.6.4l-.2 1.8c-.5-.3-1.7-.6-2.2-.6-1.1 0-2 .4-2 1.4 0 2.3 4.9 1.6 4.9 5.2 0 2.4-1.9 3.5-3.9 3.5-1.1 0-2.1-.1-3.1-.6l.2-1.9zm8.5 0c.8.5 2 .8 2.6.8.9 0 2.1-.4 2.1-1.6 0-2-4.9-1.9-4.9-5 0-2.3 1.7-3.4 4-3.4 1 0 1.7.2 2.6.4l-.2 1.8c-.5-.3-1.7-.6-2.2-.6-1.1 0-2 .4-2 1.4 0 2.3 4.9 1.6 4.9 5.2 0 2.4-1.9 3.5-3.9 3.5-1.1 0-2.1-.1-3.1-.6l.1-1.9zm18 1.7c-.8.3-1.7.7-3.5.7-4 0-5.8-2.4-5.8-6.1 0-3.3 2.1-5.7 5.3-5.7 3.7 0 4.9 2.7 4.9 6.3h-8c0 2.2 1.7 3.7 3.7 3.7 1.4 0 2.9-.7 3.4-1.1v2.2zm-1.3-6.2c0-1.7-1-3.1-2.8-3.1-2 0-2.8 1.7-3 3.1h5.8zm4.9-4.5h1.9v1.7c.6-1.2 1.7-2 2.9-2 .6 0 .9.1 1.4.2v1.8c-.4-.2-.8-.2-1.1-.2-1.8 0-3.1 1.8-3.1 4.6v5.1h-2.1v-11.2zm17.2 10.7c-.8.3-1.7.7-3.5.7-4 0-5.8-2.4-5.8-6.1 0-3.3 2.1-5.7 5.2-5.7 3.7 0 4.9 2.7 4.9 6.3h-8c0 2.2 1.7 3.7 3.7 3.7 1.4 0 2.9-.7 3.4-1.1v2.2zm-1.4-6.2c0-1.7-1-3.1-2.8-3.1-2 0-2.9 1.7-3 3.1h5.8zm5.1 4.3h2.5v2.5h-2.5V270z" fill="#F37021"/><g fill-rule="evenodd" clip-rule="evenodd"><path fill="#FFF" d="M96.3 14.8l7.6 148.8h127.9L235.9 0"/><path fill="#008C44" d="M103.1 147.9l.8 15.7h85.8c-1.2-9.6-4.7-30.5-14.1-44.1-.1 0-28 18.2-72.5 28.4z"/><path fill="#50B848" d="M209.6 163.6h22.2l2.1-83.7c-8.2 4.2-21 9.4-36.8 10.9 0 0 11.3 38.4 12.5 72.8z"/><path fill="#F37021" d="M155.5 93s-28.7-3-55.8-10.9l2.4 46.4c20.6-6.5 51.8-19 53.4-35.5z"/><path fill="#ED1C24" d="M96.3 14.8l2.4 47.9c19.8 5.1 77.9 16.5 135.7-5.5L235.9 0 96.3 14.8zm104.1 28.4c-5.2 8.7-13.9 14.9-23 19.8-8-6.3-15.6-14.2-19.1-23.5-5.7-15.2 1.9-33.1 22.4-9.5 23.8-15 28-.7 19.7 13.2z"/></g><path d="M22.8 244.5c-2.6.8-5.2 1.2-7.6 1.2-8.9 0-15.3-5.3-15.3-16.1 0-9.1 5.2-15.7 15.2-15.7 4 0 6.7 1.1 7.4 1.4l-.4 6.8c-1-.6-3.4-1.8-6-1.8-5.3 0-7.7 3.4-7.7 9.4 0 5.3 2.9 9.3 8.1 9.3 2.9 0 5.1-1.2 5.9-1.7l.4 7.2zm12-10.6c-.1 3.4.7 5.7 3.6 5.7 2.9 0 3.6-2.3 3.6-5.7v-19.4h8.1v19.2c0 9-5.2 12-11.7 12-6.5 0-11.7-3.1-11.7-12v-19.2h8.1v19.4zm33.4-20c6.7 0 13.6 4.5 13.6 15.9s-6.9 15.9-13.6 15.9c-6.7 0-13.6-4.5-13.6-15.9-.1-11.4 6.9-15.9 13.6-15.9zm-.1 25.9c3.5 0 5.2-3.9 5.2-10 0-6-1.7-10-5.1-10-3.5 0-5.2 4-5.2 10-.1 6 1.6 10 5.1 10zm30.5-3.4c-.8-2.9-2.2-3.3-3.5-3.3h-.4v12h-8.3v-30.7h12.3c6.2 0 9.7 2.6 9.7 8.3 0 4.5-3.2 6.4-5.9 7v.1c1.8.6 2.9 1.4 4.1 5.7l2.8 9.6h-8.5l-2.3-8.7zm-1.9-9.2c1.8 0 3.4-1.3 3.4-3.3 0-2.1-1.1-3.6-3.5-3.6h-2.3v6.9h2.4zm16.5-12.8H132v6.1h-10.7v5.9h10.2v6.1h-10.2v6.6h11.3v6.1h-19.4v-30.8zm52.6 28.7c-1.4 1.3-4 2.5-7.6 2.5-6.4 0-10.9-3.5-10.9-9.5 0-2.6.7-5.2 3.8-7.3l1.5-1.1-.5-.6c-1.1-1.3-2.8-3.6-2.8-6.1 0-3.4 2.2-7.3 9.9-7.3 6.4 0 9.2 2.9 9.2 7.2 0 2.7-1.5 4.8-4.5 7.2l-.8.7 3.6 4.3c.5-.7 1.2-2.6 1.2-4.1v-1h7v.7c0 4-2.4 8.1-4.1 9.8l5 6.4h-8.3l-1.7-1.8zm-8.9-10.7l-.3.3c-.5.4-1.5 1.8-1.5 3.2 0 2.8 1.3 4.4 3.8 4.4 1.3 0 2.3-.4 3-1.1l.4-.3-5.4-6.5zm2.3-7.5c1.2-1 2.6-2.4 2.6-4.1 0-1.6-1-2.6-2.7-2.6-1.8 0-3 1-3 2.9 0 1 .4 1.8 1.5 3l1.2 1.2.4-.4zm32.2 12.8c1 .6 4 1.9 6.9 1.9 3.1 0 4.2-1.4 4.2-3.3 0-2-1.4-2.6-3.7-3.5l-1.8-.7c-5.1-2-6.6-4.7-6.6-9.1 0-5.8 4.7-9.1 11.2-9.1 2.3 0 5.2.2 7.7 1.2l-.4 6c-1.5-.7-4-1.5-6.3-1.5-2.5 0-4 1-4 2.9 0 1.6.8 2.3 3.5 3.5l3.7 1.7c2.8 1.3 5.2 3.2 5.2 7.8 0 6.7-4.8 10.2-12 10.2-3.7 0-6.6-.8-8.2-1.2l.6-6.8zm40.6.9h-9l-2 6.5h-7.9l10.2-30.7h9.1l9.8 30.7h-8.5l-1.7-6.5zm-4.2-17.9l-3.4 12h6.1l-2.7-12zm17.2-6.3h8.3v24.4h10.1v6.2H245v-30.6zm29.9 19.5c-.1 3.4.7 5.7 3.6 5.7 2.9 0 3.6-2.3 3.6-5.7v-19.4h8.1v19.2c0 9-5.2 12-11.7 12-6.5 0-11.7-3.1-11.7-12v-19.2h8.1v19.4zm25.1-13.2h-6.6v-6.2h21.4v6.2h-6.6v24.4H300v-24.4zm18.2-6.3H337v6.1h-10.7v5.9h10.2v6.1h-10.2v6.6h11.3v6.1h-19.4v-30.8zm-199.6-10.6c-1.7.5-3.4.8-4.9.8-5.7 0-9.8-3.4-9.8-10.4 0-5.8 3.3-10.1 9.8-10.1 2.6 0 4.3.7 4.8.9l-.3 4.4c-.6-.4-2.2-1.1-3.9-1.1-3.4 0-5 2.2-5 6.1 0 3.4 1.9 6 5.2 6 1.9 0 3.3-.8 3.8-1.1l.3 4.5zm7.2-19.3h12.1v3.9H131v3.8h6.6v3.9H131v4.2h7.3v3.9h-12.5v-19.7zm24.3 6h-.1v13.7h-4.6v-19.8h6.2l5.2 13.6h.1v-13.6h4.6v19.8h-6.2l-5.2-13.7zm22.2-2H168v-4h13.8v4h-4.2v15.7h-5.3v-15.7zm24.1 10.1c-.5-1.9-1.4-2.1-2.2-2.1h-.3v7.7h-5.3v-19.8h7.9c4 0 6.3 1.7 6.3 5.3 0 2.9-2.1 4.1-3.8 4.5v.1c1.1.4 1.9.9 2.7 3.7l1.8 6.2H198l-1.6-5.6zm-1.2-5.9c1.1 0 2.2-.8 2.2-2.1 0-1.4-.7-2.3-2.3-2.3h-1.5v4.4h1.6zm23.3-8.6c4.3 0 8.8 2.9 8.8 10.2 0 7.3-4.5 10.2-8.8 10.2-4.3 0-8.8-2.9-8.8-10.2.1-7.3 4.5-10.2 8.8-10.2zm0 16.7c2.3 0 3.3-2.5 3.3-6.4 0-3.8-1.1-6.4-3.3-6.4-2.3 0-3.3 2.6-3.3 6.4 0 3.9 1.1 6.4 3.3 6.4z"/></svg>